<?xml version="1.0" standalone="no"?>
<!DOCTYPE svg PUBLIC "-//W3C//DTD SVG 1.1//EN" "http://www.w3.org/Graphics/SVG/1.1/DTD/svg11.dtd" >
<svg xmlns="http://www.w3.org/2000/svg" xmlns:xlink="http://www.w3.org/1999/xlink" version="1.1">
<metadata></metadata>
<defs>
<font id="aurora_bdcn_btbold" horiz-adv-x="860" >
<font-face units-per-em="2048" ascent="1556" descent="-492" />
<missing-glyph horiz-adv-x="451" />
<glyph horiz-adv-x="0" />
<glyph unicode="&#xd;" horiz-adv-x="451" />
<glyph unicode=" "  horiz-adv-x="451" />
<glyph unicode="&#x09;" horiz-adv-x="451" />
<glyph unicode="&#xa0;" horiz-adv-x="451" />
<glyph unicode="!" horiz-adv-x="508" d="M86 1399h336l-49 -1028h-238zM106 0v317h295v-317h-295z" />
<glyph unicode="&#x22;" horiz-adv-x="678" d="M80 879v559h192v-559h-192zM406 879v559h192v-559h-192z" />
<glyph unicode="#" horiz-adv-x="1575" d="M45 406l76 200h282l86 242h-299l74 201h297l148 415h221l-146 -415h242l148 415h221l-148 -415h283l-74 -201h-280l-84 -242h290l-71 -200h-291l-148 -416h-221l148 416h-244l-149 -416h-220l146 416h-287zM621 604h251l86 244h-249z" />
<glyph unicode="$" horiz-adv-x="854" d="M57 385v162h297v-150q0 -78 18.5 -112.5t59.5 -34.5q33 0 51.5 26t18.5 74q0 67 -29.5 120t-116.5 128q-18 16 -55 47q-244 204 -244 387q0 143 78 231.5t219 106.5v133h133v-133q158 -19 228.5 -106t70.5 -263v-83h-297v75q0 63 -17.5 93t-53.5 30q-30 0 -49 -20.5 t-19 -55.5q0 -60 176 -198q33 -26 49 -39q132 -104 177 -192t45 -226q0 -179 -76 -274t-234 -113v-131h-133v133q-155 19 -226 111t-71 274z" />
<glyph unicode="%" horiz-adv-x="901" d="M10 0l735 1370h144l-733 -1370h-146zM45 934v268q0 92 45.5 139.5t134.5 47.5q90 0 136.5 -47.5t46.5 -139.5v-268q0 -93 -46.5 -141t-136.5 -48q-89 0 -134.5 48t-45.5 141zM186 922q0 -40 9 -51t32 -11t32 11t9 51v295q0 37 -9 48t-34 11q-23 0 -31 -10t-8 -49v-295z M494 168v268q0 93 45.5 141t134.5 48t135.5 -48.5t46.5 -140.5v-268q0 -92 -46 -139t-136 -47t-135 46.5t-45 139.5zM633 154q0 -38 9 -49t34 -11q23 0 32 10.5t9 49.5v297q0 37 -9.5 48t-33.5 11t-32.5 -11t-8.5 -48v-297z" />
<glyph unicode="&#x26;" horiz-adv-x="901" d="M10 365q0 159 49.5 268t157.5 192q-46 93 -68 166.5t-22 134.5q0 134 88 212.5t238 78.5q128 0 211.5 -78.5t83.5 -199.5q0 -104 -58.5 -202.5t-159.5 -162.5l82 -184q21 66 53.5 113.5t79.5 80.5l158 -153q-90 -81 -134 -145t-44 -115q0 -12 7 -37l3 -12l146 -322h-299 l-41 86q-38 -53 -93.5 -78.5t-132.5 -25.5q-152 0 -228.5 95.5t-76.5 287.5zM270 416q0 -97 28.5 -157t72.5 -60q35 0 54 30t23 95l-116 258q-31 -23 -46.5 -64.5t-15.5 -101.5zM385 1143q0 -31 13 -71t46 -105q53 49 77 91t24 85q0 38 -21 59t-59 21q-37 0 -58.5 -21.5 t-21.5 -58.5z" />
<glyph unicode="'" horiz-adv-x="352" d="M80 879v559h192v-559h-192z" />
<glyph unicode="(" horiz-adv-x="563" d="M80 485v328q0 297 105 442.5t331 161.5v-241q-81 -18 -111 -73.5t-30 -240.5v-426q0 -184 30 -240t111 -73v-242q-226 17 -331 162t-105 442z" />
<glyph unicode=")" horiz-adv-x="563" d="M49 -119v242q82 17 111.5 73t29.5 240v426q0 184 -30 240t-111 74v241q226 -16 330 -161t104 -443v-328q0 -298 -104 -442.5t-330 -161.5z" />
<glyph unicode="*" horiz-adv-x="649" d="M20 1130l50 142l180 -58l-4 185h155l-2 -185l181 56l49 -142l-183 -53l111 -145l-123 -90l-115 149l-108 -149l-127 84l119 151z" />
<glyph unicode="+" horiz-adv-x="1706" d="M254 512v199h498v510h202v-510h498v-199h-498v-512h-202v512h-498z" />
<glyph unicode="," horiz-adv-x="451" d="M78 0v317h295v-317l-201 -141l-53 55l78 86h-119z" />
<glyph unicode="-" horiz-adv-x="844" d="M72 494v260h700v-260h-700z" />
<glyph unicode="." horiz-adv-x="451" d="M78 0v317h295v-317h-295z" />
<glyph unicode="/" horiz-adv-x="590" d="M-131 -190l602 1607h180l-602 -1607h-180z" />
<glyph unicode="0" horiz-adv-x="901" d="M76 389v592q0 203 93.5 305.5t281.5 102.5q186 0 279 -102t93 -306v-592q0 -204 -93 -305.5t-279 -101.5q-188 0 -281.5 102t-93.5 305zM385 371q0 -85 14 -107t52 -22q36 0 50.5 22t14.5 107v628q0 86 -14 107.5t-51 21.5t-51.5 -22t-14.5 -107v-628z" />
<glyph unicode="1" horiz-adv-x="569" d="M-10 969v219q96 23 159 68.5t95 113.5h235v-1370h-303v997q-35 -16 -69.5 -23t-75.5 -7q-10 0 -20.5 0.5t-20.5 1.5z" />
<glyph unicode="2" horiz-adv-x="795" d="M12 55q0 145 66.5 294t200.5 302q14 17 41 46q139 152 139 307q0 82 -14 103t-52 21q-37 0 -51 -22t-14 -107v-151h-308v133q0 204 93.5 306t279.5 102q181 0 277 -101t96 -291q0 -119 -32 -214.5t-101 -182.5q-27 -34 -82 -95q-135 -152 -162 -245h379v-260h-753 q-2 10 -2.5 21.5t-0.5 33.5z" />
<glyph unicode="3" horiz-adv-x="877" d="M49 367v168h309v-164q0 -86 14 -106.5t50 -20.5t49.5 20.5t13.5 106.5v94q0 111 -34 142.5t-158 31.5h-55v235q168 2 204.5 26t36.5 106q0 79 -13 100.5t-46 21.5t-46.5 -22t-13.5 -90v-49h-294q-2 14 -2.5 29.5t-0.5 43.5q0 183 86.5 266t276.5 83q203 0 281.5 -84.5 t78.5 -331.5q0 -101 -16 -145.5t-55 -65.5q44 -21 62 -69t18 -175v-160q0 -184 -95.5 -280t-277.5 -96q-194 0 -283.5 92t-89.5 293z" />
<glyph unicode="4" horiz-adv-x="895" d="M41 354q0 309 71.5 561t217.5 455h450v-876h76v-267h-76v-227h-299v227h-437q-2 23 -2.5 49t-0.5 78zM348 494h133v598q-66 -113 -99.5 -252t-33.5 -303v-43z" />
<glyph unicode="5" horiz-adv-x="874" d="M61 389v135h310v-153q0 -88 13.5 -108.5t49.5 -20.5q37 0 51.5 22t14.5 107v264q0 84 -14.5 106.5t-51.5 22.5q-43 0 -61.5 -23.5t-20.5 -78.5h-260l14 708h637v-260h-372l-4 -139q25 14 59 21t76 7q142 0 224.5 -93t82.5 -255v-262q0 -203 -94 -305t-281 -102 q-186 0 -279.5 101.5t-93.5 305.5z" />
<glyph unicode="6" horiz-adv-x="887" d="M80 389v592q0 204 93 306t280 102q181 0 276.5 -99t95.5 -286v-50h-307v45q0 86 -14 107.5t-51 21.5t-51.5 -22t-14.5 -107v-172q23 37 65 56.5t99 19.5q135 0 204.5 -91t69.5 -267v-156q0 -204 -93 -305.5t-279 -101.5q-187 0 -280 101.5t-93 305.5zM387 371 q0 -85 14 -107t52 -22q36 0 50.5 22t14.5 107v155q0 85 -14 106t-51 21q-38 0 -52 -21.5t-14 -105.5v-155z" />
<glyph unicode="7" horiz-adv-x="735" d="M-4 1110v260h739v-55q0 -106 -35 -241.5t-106 -301.5l-9 -21q-182 -423 -190 -751h-344v20q0 138 36.5 290t115.5 341q27 66 79 180q92 200 103 279h-389z" />
<glyph unicode="8" horiz-adv-x="891" d="M72 389v197q0 66 18.5 110.5t54.5 67.5q-35 19 -54 67.5t-19 116.5v64q0 180 97 278.5t275 98.5q179 0 277 -98.5t98 -278.5v-64q0 -68 -19.5 -116.5t-54.5 -67.5q37 -23 55.5 -67.5t18.5 -110.5v-197q0 -203 -93.5 -305t-281.5 -102q-186 0 -279 101.5t-93 305.5z M373 369q0 -87 15.5 -109t57.5 -22t58 21t16 110v155q0 88 -16 109.5t-58 21.5q-41 0 -57 -22t-16 -109v-155zM373 1018q0 -100 15.5 -123t57.5 -23t58 23t16 111q0 83 -16 105t-58 22q-41 0 -57 -22.5t-16 -92.5z" />
<glyph unicode="9" horiz-adv-x="887" d="M59 375q0 6 1 19.5t1 21.5h310v-45q0 -88 13.5 -108.5t49.5 -20.5q37 0 51.5 22t14.5 107v172q-24 -36 -65 -56t-91 -20q-142 0 -213.5 89.5t-71.5 268.5v156q0 203 94 305.5t281 102.5t281 -102.5t94 -305.5v-592q0 -203 -94 -305t-281 -102q-183 0 -279 100t-96 293z M371 844q0 -87 13.5 -107t49.5 -20q37 0 51.5 21.5t14.5 105.5v155q0 86 -14.5 107.5t-51.5 21.5q-36 0 -49.5 -21t-13.5 -108v-155z" />
<glyph unicode=":" horiz-adv-x="451" d="M78 0v317h295v-317h-295zM78 901v318h295v-318h-295z" />
<glyph unicode=";" horiz-adv-x="451" d="M78 0v317h295v-317l-201 -141l-53 55l78 86h-119zM78 901v318h295v-318h-295z" />
<glyph unicode="&#x3c;" horiz-adv-x="1706" d="M264 512v199l1178 483v-219l-893 -365l893 -364v-219z" />
<glyph unicode="=" horiz-adv-x="1706" d="M254 297v199h1198v-199h-1198zM254 727v199h1198v-199h-1198z" />
<glyph unicode="&#x3e;" horiz-adv-x="1706" d="M264 27v219l895 364l-895 365v219l1178 -483v-199z" />
<glyph unicode="?" horiz-adv-x="754" d="M12 926v104q0 216 79 301.5t267 85.5q183 0 275 -91t92 -271q0 -157 -121 -340q-19 -28 -29 -44q-61 -98 -85.5 -163.5t-24.5 -124.5v-6h-256v43q0 94 26 181t85 186q7 12 23 37q85 134 85 223q0 76 -14.5 101.5t-53.5 25.5q-37 0 -51 -22t-14 -105v-121h-283zM190 0v317 h293v-317h-293z" />
<glyph unicode="@" horiz-adv-x="2048" d="M90 520q0 167 52.5 318.5t154.5 275.5q148 181 356 274t463 93q169 0 317.5 -45.5t258.5 -128.5q135 -105 201.5 -239.5t66.5 -303.5q0 -165 -65.5 -304.5t-188.5 -238.5q-70 -56 -152.5 -85.5t-171.5 -29.5q-106 0 -159.5 42t-55.5 124q-55 -84 -127 -123.5t-170 -39.5 q-158 0 -240.5 86t-82.5 254q0 239 139.5 401t343.5 162q80 0 139 -33t97 -98l53 98h178l-147 -598q-3 -11 -5 -22.5t-2 -18.5q0 -35 24 -52.5t71 -17.5q39 0 81.5 20t79.5 56q86 80 130.5 187t44.5 235q0 240 -185.5 394.5t-478.5 154.5q-141 0 -262.5 -34t-220.5 -101 q-170 -114 -261.5 -285t-91.5 -375q0 -307 207 -490.5t553 -183.5q162 0 316.5 49t287.5 142l82 -117q-153 -115 -324.5 -173t-357.5 -58q-192 0 -353 48.5t-286 143.5q-155 121 -232 279t-77 358zM760 444q0 -92 40.5 -140t117.5 -48q83 0 151.5 63t93.5 164l54 217 q-13 81 -57.5 123.5t-117.5 42.5q-114 0 -198 -124t-84 -298z" />
<glyph unicode="A" horiz-adv-x="899" d="M66 0v274q0 395 59 664t186 461h277q127 -194 186.5 -463t59.5 -662v-274h-310v231h-151v-231h-307zM373 494h151q-3 199 -22 354t-53 262q-35 -107 -54 -262t-22 -354z" />
<glyph unicode="B" horiz-adv-x="952" d="M94 0v1399h430q191 0 269.5 -84t78.5 -285q0 -116 -22.5 -176t-73.5 -82q53 -26 74.5 -93.5t21.5 -234.5q0 -254 -81 -349t-291 -95h-406zM397 266h41q73 0 98 37t25 154q0 92 -23 133t-75 41h-8h-58v-365zM397 866h47q67 0 92 27.5t25 95.5q0 90 -23 122t-83 32h-58 v-277z" />
<glyph unicode="C" horiz-adv-x="924" d="M80 451v497q0 259 89 364t300 105t300 -105t89 -364v-100h-313v172q0 85 -16.5 108t-59.5 23q-44 0 -60 -21t-16 -100v-41v-620q0 -80 16.5 -101.5t59.5 -21.5q44 0 60 23t16 110v31v211h313v-170q0 -259 -89 -364t-300 -105t-300 105t-89 364z" />
<glyph unicode="D" horiz-adv-x="948" d="M94 0v1399h414q189 0 274.5 -89.5t85.5 -287.5v-645q0 -199 -85 -288t-275 -89h-414zM403 266h52q58 0 79 21.5t21 109.5v35v569q0 88 -21 110t-79 22h-52v-867z" />
<glyph unicode="E" horiz-adv-x="793" d="M94 0v1399h631v-266h-322v-238h310v-264h-310v-365h336v-266h-645z" />
<glyph unicode="F" horiz-adv-x="754" d="M94 0v1399h617v-266h-308v-238h295v-264h-295v-631h-309z" />
<glyph unicode="G" horiz-adv-x="946" d="M80 451v497q0 259 89 364t300 105q207 0 298 -102.5t91 -337.5v-57h-313v100q0 85 -16.5 108t-59.5 23q-44 0 -60 -21t-16 -100v-41v-575q0 -108 19 -137t69 -29q51 0 70.5 31t19.5 147v33v153h-82v230h369v-842h-131l-39 59q-49 -40 -106 -58.5t-133 -18.5 q-196 0 -282.5 108t-86.5 361z" />
<glyph unicode="H" horiz-adv-x="950" d="M94 0v1399h309v-500h144v500h309v-1399h-309v643h-144v-643h-309z" />
<glyph unicode="I" horiz-adv-x="508" d="M94 0v1399h309v-1399h-309z" />
<glyph unicode="J" horiz-adv-x="872" d="M6 451v194h313v-235v-41q0 -80 16.5 -101.5t59.5 -21.5q44 0 60 23t16 110v31v989h313v-948q0 -259 -88.5 -364t-300.5 -105q-211 0 -300 105t-89 364z" />
<glyph unicode="K" horiz-adv-x="934" d="M94 0v1399h303v-547q66 69 108 215t48 332h309q0 -12 1 -25t1 -14q0 -149 -35.5 -280t-103.5 -230q59 -77 98 -286.5t39 -469.5v-94h-309q-2 308 -20 453t-58 202q-18 -18 -57 -50q-13 -11 -21 -18v-587h-303z" />
<glyph unicode="L" horiz-adv-x="725" d="M94 0v1399h309v-1133h320v-266h-629z" />
<glyph unicode="M" horiz-adv-x="1417" d="M94 0v1399h412q64 -72 115 -165.5t88 -205.5q34 109 85.5 203.5t116.5 167.5h412v-1399h-309v1063q-81 -97 -116.5 -203.5t-35.5 -296.5v-78v-485h-307v563q0 190 -35.5 296.5t-116.5 203.5v-1063h-309z" />
<glyph unicode="N" horiz-adv-x="958" d="M94 0v1399h287q44 -71 88 -164t86 -205v369h307v-1399h-307v274q0 178 -38 342t-114 312v-928h-309z" />
<glyph unicode="O" horiz-adv-x="938" d="M80 451v497q0 259 89 364t300 105t300 -105t89 -364v-497q0 -259 -89 -364t-300 -105t-300 105t-89 364zM393 369q0 -80 16.5 -101.5t59.5 -21.5q44 0 60 23t16 110v31v610q0 85 -16.5 108t-59.5 23q-44 0 -60 -21t-16 -100v-41v-620z" />
<glyph unicode="P" horiz-adv-x="877" d="M94 0v1399h414q200 0 280 -93t80 -329q0 -191 -80.5 -268.5t-283.5 -77.5h-101v-631h-309zM393 868h56q65 0 89.5 30.5t24.5 117.5q0 74 -25 105.5t-83 31.5h-62v-285z" />
<glyph unicode="Q" horiz-adv-x="938" d="M80 451v497q0 259 89 364t300 105t300 -105t89 -364v-497q0 -148 -17 -228t-55 -117l105 -55l-109 -178l-209 115q-22 -3 -45.5 -4.5t-58.5 -1.5q-212 0 -300.5 104t-88.5 365zM393 369q0 -80 16.5 -101.5t59.5 -21.5q44 0 60 23t16 110v31v610q0 85 -16.5 108t-59.5 23 q-44 0 -60 -21t-16 -100v-41v-620z" />
<glyph unicode="R" horiz-adv-x="932" d="M94 0v1399h414q198 0 279 -93.5t81 -328.5q0 -111 -25.5 -184t-74.5 -99l115 -694h-324l-80 631h-76v-631h-309zM393 868h51q71 0 95 29.5t24 118.5q0 74 -25 105.5t-83 31.5h-62v-285z" />
<glyph unicode="S" horiz-adv-x="922" d="M70 387v170h313v-156q0 -82 19.5 -118.5t62.5 -36.5q35 0 54.5 27.5t19.5 76.5q0 69 -29.5 122.5t-124.5 135.5q-16 14 -47 40q-266 226 -266 419q0 169 100.5 260.5t286.5 91.5q205 0 293 -87.5t88 -297.5v-90h-283v80q0 65 -23 96t-71 31q-36 0 -58 -20.5t-22 -55.5 q0 -66 222 -242q42 -33 65 -51q96 -75 138 -166.5t42 -228.5q0 -203 -97 -304t-292 -101q-202 0 -296.5 97.5t-94.5 307.5z" />
<glyph unicode="T" horiz-adv-x="735" d="M33 1143v256h669v-256h-180v-1143h-309v1143h-180z" />
<glyph unicode="U" horiz-adv-x="948" d="M88 451v948h309v-989v-41q0 -80 16.5 -101.5t59.5 -21.5q45 0 61.5 24t16.5 123v17v989h309v-948q0 -259 -89 -364t-298 -105t-297 104.5t-88 364.5z" />
<glyph unicode="V" horiz-adv-x="872" d="M51 977v422h309v-402q0 -309 18 -463t58 -266q41 113 58.5 266.5t17.5 462.5v402h307v-422q0 -359 -51.5 -582.5t-167.5 -394.5h-330q-116 171 -167.5 394.5t-51.5 582.5z" />
<glyph unicode="W" horiz-adv-x="1331" d="M51 977v422h305v-402q0 -315 18 -465.5t60 -263.5q43 112 61.5 265.5t18.5 463.5v402h303v-402q0 -296 18.5 -456t61.5 -273q43 115 61.5 268.5t18.5 460.5v402h303v-422q0 -359 -51.5 -582.5t-167.5 -394.5h-281q-37 78 -66 151.5t-48 143.5q-22 -75 -49.5 -148 t-63.5 -147h-283q-116 171 -167.5 394.5t-51.5 582.5z" />
<glyph unicode="X" horiz-adv-x="874" d="M53 1399h307q0 -130 18 -272t58 -328q30 138 49 286.5t27 313.5h309q-14 -219 -43.5 -373.5t-75.5 -245.5q54 -84 85.5 -272.5t31.5 -433.5q0 -3 1 -13q1 -32 1 -61h-309v100q0 142 -19.5 292.5t-56.5 285.5q-37 -130 -56.5 -296.5t-19.5 -354.5v-27h-306q1 295 31 491 t87 289q-45 90 -75 244.5t-44 374.5z" />
<glyph unicode="Y" horiz-adv-x="788" d="M10 1370v29h309q5 -264 25 -453.5t51 -263.5q32 76 52 265t24 452h307v-68q0 -253 -59.5 -495.5t-169.5 -438.5v-397h-309v397q-113 200 -171.5 446.5t-58.5 526.5z" />
<glyph unicode="Z" horiz-adv-x="774" d="M10 0v244l400 889h-357v266h678v-275l-383 -858h369v-266h-707z" />
<glyph unicode="[" horiz-adv-x="563" d="M94 -119v1518h486v-160h-191v-1200h191v-158h-486z" />
<glyph unicode="\" horiz-adv-x="590" d="M-61 1417h180l602 -1607h-180z" />
<glyph unicode="]" horiz-adv-x="563" d="M-16 39h192v1200h-192v160h485v-1518h-485v158z" />
<glyph unicode="^" horiz-adv-x="2048" d="M416 899l481 561h252l481 -561h-235l-371 371l-373 -371h-235z" />
<glyph unicode="_" horiz-adv-x="1024" d="M0 -279h1024v-204h-1024v204z" />
<glyph unicode="`" horiz-adv-x="1024" d="M299 1526h225l80 -215h-180z" />
<glyph unicode="a" horiz-adv-x="852" d="M66 266v180q0 142 65.5 218.5t349.5 195.5v41q0 70 -14 91.5t-51 21.5t-51.5 -21.5t-14.5 -91.5v-49h-260v80q0 155 82.5 230t251.5 75q181 0 263.5 -83t82.5 -267v-887h-274v66q-37 -43 -83 -64.5t-102 -21.5q-118 0 -181.5 74t-63.5 212zM350 332q0 -84 14 -105.5 t52 -21.5q37 0 51 21.5t14 105.5v307q-71 -42 -101 -88.5t-30 -147.5v-18v-53z" />
<glyph unicode="b" horiz-adv-x="874" d="M90 0v1399h289v-232q28 35 70.5 52.5t97.5 17.5q143 0 199.5 -80.5t56.5 -341.5v-459q0 -203 -56.5 -288.5t-183.5 -85.5q-66 0 -114.5 19.5t-86.5 61.5v-63h-272zM379 332q0 -84 14 -105.5t51 -21.5q38 0 52 21.5t14 105.5v555q0 83 -14 105t-52 22q-37 0 -51 -22 t-14 -105v-555z" />
<glyph unicode="c" horiz-adv-x="852" d="M72 373v473q0 216 82 303.5t276 87.5q195 0 276.5 -87t81.5 -304v-121h-292v162q0 84 -14.5 105.5t-51.5 21.5t-51 -22t-14 -105v-555q0 -84 14 -105.5t51 -21.5t51.5 21.5t14.5 105.5v162h292v-121q0 -218 -81.5 -304.5t-276.5 -86.5t-276.5 86.5t-81.5 304.5z" />
<glyph unicode="d" horiz-adv-x="874" d="M72 356v459q0 263 56.5 342.5t199.5 79.5q56 0 98.5 -17.5t69.5 -52.5v232h288v-1399h-272v63q-38 -42 -85.5 -61.5t-113.5 -19.5q-127 0 -184 86t-57 288zM365 332q0 -84 14 -105.5t51 -21.5t51.5 21.5t14.5 105.5v555q0 84 -14.5 105.5t-51.5 21.5t-51 -22t-14 -105 v-555z" />
<glyph unicode="e" d="M72 373v473q0 216 82 303.5t276 87.5q195 0 276.5 -87t81.5 -304v-283h-428v-231q0 -85 15 -106t55 -21q39 0 54.5 22t15.5 105v162h288v-121q0 -218 -81.5 -304.5t-276.5 -86.5t-276.5 86.5t-81.5 304.5zM360 786h140v93q0 90 -15 112.5t-55 22.5t-55 -22.5t-15 -112.5 v-93z" />
<glyph unicode="f" horiz-adv-x="530" d="M51 995v207h64v49q0 84 52.5 125t160.5 41q37 0 73.5 -4t71.5 -12v-127q-43 -2 -57.5 -12.5t-14.5 -38.5q0 -3 1 -9.5t1 -11.5h70v-207h-70v-995h-288v995h-64z" />
<glyph unicode="g" d="M33 -59l94 163q66 -27 117.5 -40t97.5 -13q77 0 113.5 31.5t36.5 97.5v37q-39 -43 -87.5 -64.5t-105.5 -21.5q-121 0 -174 75.5t-53 254.5v401q0 207 57 291t190 84q58 0 103 -20.5t82 -63.5v66h270v-1002q0 -89 -8 -134t-27 -81q-38 -69 -126.5 -106t-219.5 -37 q-99 0 -191 21t-169 61zM360 467q0 -85 14.5 -107t51.5 -22t51.5 22.5t14.5 106.5v420q0 84 -14.5 105.5t-51.5 21.5t-51.5 -22t-14.5 -105v-420z" />
<glyph unicode="h" horiz-adv-x="879" d="M90 0v1399h287v-232q32 33 75.5 49.5t96.5 16.5q135 0 192.5 -81.5t57.5 -289.5v-862h-289v887q0 84 -14 105.5t-52 21.5q-37 0 -51 -22t-14 -105v-887h-289z" />
<glyph unicode="i" horiz-adv-x="479" d="M90 0v1219h289v-1219h-289zM90 1270v129h289v-129h-289z" />
<glyph unicode="j" horiz-adv-x="487" d="M31 72q9 -4 14.5 -5t11.5 -1q28 0 37.5 12t9.5 55v1086h289v-1059q0 -193 -49.5 -248t-179.5 -55q-29 0 -62 4.5t-71 13.5v197zM104 1270v129h289v-129h-289z" />
<glyph unicode="k" horiz-adv-x="874" d="M90 0v1399h289v-647q62 54 96.5 169t34.5 273v25h289v-70q0 -96 -25.5 -193t-73.5 -182q49 -88 74 -222.5t25 -309.5v-176v-66h-289v70q0 189 -9 311t-28 190q-23 -21 -46 -39t-48 -34v-498h-289z" />
<glyph unicode="l" horiz-adv-x="479" d="M94 0v1399h289v-1399h-289z" />
<glyph unicode="m" horiz-adv-x="1298" d="M90 0v1219h272v-66q42 44 88.5 64t108.5 20q61 0 111 -28t86 -81q43 55 95.5 82t115.5 27q135 0 193.5 -83t58.5 -292v-862h-289v887q0 84 -14 105.5t-52 21.5q-37 0 -51 -22t-14 -105v-887h-289v887q0 84 -14 105.5t-52 21.5q-37 0 -51 -22t-14 -105v-887h-289z" />
<glyph unicode="n" horiz-adv-x="879" d="M90 0v1219h272v-66q37 42 83.5 63t103.5 21q134 0 192 -83t58 -292v-862h-289v887q0 84 -14 105.5t-52 21.5q-37 0 -51 -22t-14 -105v-887h-289z" />
<glyph unicode="o" d="M72 373v473q0 216 82 303.5t276 87.5q195 0 276.5 -87t81.5 -304v-473q0 -218 -81.5 -304.5t-276.5 -86.5t-276.5 86.5t-81.5 304.5zM365 332q0 -84 14 -105.5t51 -21.5t51.5 21.5t14.5 105.5v555q0 84 -14.5 105.5t-51.5 21.5t-51 -22t-14 -105v-555z" />
<glyph unicode="p" horiz-adv-x="874" d="M90 -141v1360h272v-66q39 43 88 63.5t113 20.5q127 0 183.5 -86t56.5 -289v-459q0 -260 -56.5 -340.5t-199.5 -80.5q-56 0 -99 17.5t-69 51.5v-192h-289zM379 332q0 -84 14 -105.5t51 -21.5q38 0 52 21.5t14 105.5v555q0 84 -14 105.5t-52 21.5q-37 0 -51 -22t-14 -105 v-555z" />
<glyph unicode="q" horiz-adv-x="874" d="M70 403v459q0 202 57 288.5t184 86.5q64 0 114 -21t87 -63v66h272v-1360h-288v192q-28 -34 -71 -51.5t-97 -17.5q-144 0 -201 80t-57 341zM365 332q0 -84 14 -105.5t51 -21.5t51.5 21.5t14.5 105.5v555q0 83 -14.5 105t-51.5 22t-51 -22t-14 -105v-555z" />
<glyph unicode="r" horiz-adv-x="825" d="M90 0v1219h272v-66q35 40 82 60t105 20q135 0 192.5 -81.5t57.5 -289.5v-225h-289v250q0 84 -14 105.5t-52 21.5q-37 0 -51 -22t-14 -105v-887h-289z" />
<glyph unicode="s" horiz-adv-x="831" d="M59 352v150h289v-170q0 -84 14 -105.5t52 -21.5t54.5 26t16.5 86q0 69 -20 109t-88 92q-23 18 -65 50q-249 191 -249 354q0 158 87.5 236.5t263.5 78.5q186 0 270 -76.5t84 -245.5v-79h-283v112q0 29 -20 47.5t-51 18.5q-34 0 -49 -18t-15 -58q0 -61 139 -156 q52 -36 80 -57q115 -85 164 -175.5t49 -215.5q0 -182 -85.5 -267t-268.5 -85q-204 0 -286.5 82.5t-82.5 287.5z" />
<glyph unicode="t" horiz-adv-x="537" d="M41 995v224h72v143l288 55v-198h72v-224h-72v-700q0 -51 14.5 -63.5t57.5 -12.5v-210q-34 -16 -72 -23.5t-82 -8.5q-116 0 -161 50.5t-45 218.5v749h-72z" />
<glyph unicode="u" horiz-adv-x="879" d="M80 356v863h291v-887q0 -87 13.5 -107t49.5 -20q37 0 51.5 21.5t14.5 105.5v887h288v-1219h-270v63q-36 -39 -82.5 -58t-105.5 -19q-135 0 -192.5 80.5t-57.5 289.5z" />
<glyph unicode="v" d="M76 725v494h289v-453q0 -160 16.5 -294.5t48.5 -238.5q33 100 49.5 233.5t16.5 299.5v453h288v-494q0 -231 -49 -415t-143 -310h-324q-94 126 -143 310t-49 415z" />
<glyph unicode="w" horiz-adv-x="1280" d="M76 725v494h289v-453q0 -160 16.5 -294.5t48.5 -238.5q33 100 49.5 233.5t16.5 299.5v453h288v-453q0 -160 17 -294.5t49 -238.5q33 100 49 233.5t16 299.5v453h289v-494q0 -231 -49 -415t-143 -310h-291q-24 53 -44 107t-38 110q-20 -62 -39 -114.5t-41 -102.5h-291 q-94 126 -143 310t-49 415z" />
<glyph unicode="x" horiz-adv-x="840" d="M63 1219l291 -1q2 -145 18.5 -260t47.5 -194q29 78 45.5 192t19.5 262l289 1q0 -138 -27 -275.5t-81 -279.5q52 -113 79.5 -280t28.5 -384h-289q0 149 -16 287t-49 274q-33 -127 -49.5 -260t-16.5 -274v-27h-290q1 217 28 384t80 280q-55 143 -82 281t-27 274z" />
<glyph unicode="y" d="M76 29h192q-99 174 -145.5 356t-46.5 395v439h289v-451q0 -164 16.5 -313t48.5 -275q32 121 49 270.5t17 317.5v451h288v-439q0 -290 -60 -500.5t-196 -420.5h-452v170z" />
<glyph unicode="z" horiz-adv-x="729" d="M29 0v225l354 738h-332v256h629v-246l-344 -717h328v-256h-635z" />
<glyph unicode="{" horiz-adv-x="1024" d="M158 426v209q7 0 21 -1t20 -1q120 0 171.5 58t51.5 196v250q0 143 23.5 201t80.5 92q47 25 114 37t167 12q12 0 37 -1t39 -1v-209q-9 0 -25 1t-22 1q-101 0 -136.5 -38.5t-35.5 -162.5v-240q0 -148 -45 -210t-162 -89q117 -27 162 -88t45 -209v-241q0 -123 35 -161 t137 -38q6 0 22 1t25 1v-209q-14 0 -39 -1t-37 -1q-100 0 -167 12t-114 37q-57 34 -80.5 91.5t-23.5 199.5v252q0 137 -51 194.5t-172 57.5q-6 0 -20 -1t-21 -1z" />
<glyph unicode="|" horiz-adv-x="1024" d="M410 -483v2048h206v-2048h-206z" />
<glyph unicode="}" horiz-adv-x="1024" d="M143 -205q9 0 25 -1t22 -1q101 0 136.5 38.5t35.5 160.5v239q0 150 45 211.5t162 87.5q-117 27 -162 89t-45 210v242q0 122 -35.5 160.5t-136.5 38.5q-6 0 -22 -1t-25 -1v209h68q110 0 177 -12t112 -38q57 -32 80.5 -91.5t23.5 -198.5v-252q0 -137 51 -194.5t172 -57.5 q6 0 20 1t21 1v-209h-37q-125 0 -176 -56t-51 -194v-252q0 -143 -23.5 -201t-80.5 -90q-47 -25 -114 -37t-167 -12q-12 0 -37 1t-39 1v209z" />
<glyph unicode="~" horiz-adv-x="1706" d="M178 418v221q107 72 204 107.5t183 35.5q117 0 291 -58l4 -1q18 -6 55 -19q155 -55 240 -55t175 37t200 117v-221q-104 -71 -196.5 -104.5t-182.5 -33.5q-46 0 -92 8t-92 23q-24 8 -71 25q-219 75 -333 75q-85 0 -177.5 -37.5t-207.5 -119.5z" />
<glyph unicode="&#xa1;" horiz-adv-x="508" d="M86 0l49 1028h238l49 -1028h-336zM106 1081v318h295v-318h-295z" />
<glyph unicode="&#xa2;" horiz-adv-x="848" d="M74 391v473q0 201 64 283.5t227 107.5v134h135v-134q164 -25 228.5 -108t64.5 -283v-121h-295v162q0 85 -14.5 107t-51.5 22t-51 -22t-14 -107v-555q0 -84 14 -105.5t51 -21.5t51.5 22t14.5 105v162h295v-121q0 -200 -64.5 -283t-228.5 -108v-133h-135v133 q-163 25 -227 107.5t-64 283.5z" />
<glyph unicode="&#xa3;" horiz-adv-x="848" d="M23 199q0 103 32.5 153.5t100.5 50.5q31 0 59 -14.5t53 -44.5q18 15 26.5 47t8.5 84q0 33 -4.5 53.5t-13.5 36.5h-222v133h183q-15 21 -44 60q-147 199 -147 323q0 139 98.5 223.5t264.5 84.5q175 0 263.5 -99t88.5 -293v-88h-266v111q0 79 -21.5 114t-68.5 35 q-38 0 -60 -24.5t-22 -67.5q0 -53 72.5 -171t95.5 -208h252v-133h-238q0 -98 -25.5 -177.5t-80.5 -154.5q20 -22 40.5 -32.5t43.5 -10.5q41 0 61 34.5t20 107.5v76h240v-78q0 -169 -67.5 -258.5t-192.5 -89.5q-60 0 -118.5 25.5t-123.5 80.5q-35 -54 -73.5 -80t-81.5 -26 q-63 0 -98 57t-35 160z" />
<glyph unicode="&#xa4;" horiz-adv-x="901" d="M-23 500l58 129h65v112h-123l58 129h65v60q0 253 86 356t289 103q193 0 283 -97t90 -307v-37h-309v78q0 64 -14 83t-50 19q-38 0 -51.5 -22t-13.5 -105v-131h286l-57 -129h-229v-112h178l-58 -129h-120v-131q0 -83 13.5 -105t51.5 -22q36 0 50 19t14 79v106h309v-67 q0 -209 -88.5 -303t-284.5 -94q-203 0 -289 103t-86 357v58h-123z" />
<glyph unicode="&#xa5;" horiz-adv-x="877" d="M59 391v127h164q-17 39 -27.5 66t-17.5 49h-119v127h76q-38 143 -57 284t-19 283v43h303q5 -290 25 -492t51 -280q32 80 52 281.5t24 490.5h303v-65q0 -135 -19 -271.5t-57 -273.5h76v-127h-115q-8 -26 -20 -54.5t-27 -60.5h162v-127h-229v-391h-299v391h-230z" />
<glyph unicode="&#xa6;" horiz-adv-x="1024" d="M410 -350v758h206v-758h-206zM410 674v758h206v-758h-206z" />
<glyph unicode="&#xa7;" horiz-adv-x="883" d="M66 682q0 75 24 123.5t76 77.5q-50 37 -71 83.5t-21 123.5q0 166 91 246.5t277 80.5q98 0 174 -23.5t117 -66.5q41 -35 58.5 -81.5t17.5 -158.5v-18v-90h-229v86q0 92 -30.5 126t-107.5 34q-69 0 -104 -28.5t-35 -84.5q0 -88 195 -167q94 -38 149 -64q88 -44 127 -105 t39 -155q0 -81 -25.5 -136.5t-76.5 -87.5q52 -37 75 -88.5t23 -132.5q0 -157 -94 -237t-279 -80q-194 0 -278 81t-84 275v82h229v-66q0 -104 30.5 -141t106.5 -37q70 0 105 26.5t35 80.5q0 89 -179 163q-97 40 -155 70q-103 54 -141.5 116.5t-38.5 172.5zM283 702 q0 -106 237 -204q27 -11 41 -17q15 9 23 28t8 46q0 74 -48.5 122t-219.5 118q-21 -11 -31 -34.5t-10 -58.5z" />
<glyph unicode="&#xa8;" horiz-adv-x="1024" d="M276 1325v197h201v-197h-201zM549 1325v197h201v-197h-201z" />
<glyph unicode="&#xa9;" horiz-adv-x="1706" d="M111 733q0 149 56 284.5t163 244.5q105 106 238 161.5t284 55.5q152 0 287.5 -56t242.5 -163q105 -105 160 -240.5t55 -286.5q0 -152 -54.5 -284t-160.5 -236q-111 -108 -248 -165.5t-282 -57.5q-147 0 -280.5 56.5t-241.5 164.5q-107 106 -163 240.5t-56 281.5zM233 735 q0 -125 47 -237t136 -201q88 -88 201 -135t237 -47t237.5 47t204.5 137q88 86 133.5 197t45.5 239q0 126 -46.5 238.5t-134.5 200.5q-89 89 -201 135.5t-239 46.5q-128 0 -239.5 -46t-198.5 -134q-89 -90 -136 -203.5t-47 -237.5zM453 729q0 206 109.5 328.5t293.5 122.5 q152 0 250.5 -78t105.5 -205h-188q-8 70 -53 108.5t-119 38.5q-91 0 -143 -81.5t-52 -227.5q0 -147 52 -224t151 -77q73 0 117 42t53 119l193 1q-8 -139 -109 -223t-260 -84q-186 0 -293.5 118t-107.5 322z" />
<glyph unicode="&#xaa;" horiz-adv-x="639" d="M49 731v127q0 99 50.5 153t260.5 136v29q0 50 -10.5 64.5t-38.5 14.5q-27 0 -38 -16t-11 -63v-35h-194v57q0 108 61.5 160.5t187.5 52.5q137 0 199 -58t62 -188v-620h-205v45q-28 -30 -63 -45t-77 -15q-88 0 -136 52t-48 149zM262 776q0 -58 10.5 -73t38.5 -15t38.5 14.5 t10.5 73.5v215q-53 -29 -75.5 -61.5t-22.5 -102.5v-12v-39z" />
<glyph unicode="&#xab;" horiz-adv-x="831" d="M72 604l121 488h239l-121 -488l121 -477h-239zM420 604l121 488h239l-121 -488l121 -477h-239z" />
<glyph unicode="&#xac;" horiz-adv-x="1706" d="M254 668v196h1198v-502h-199v306h-999z" />
<glyph unicode="&#xad;" horiz-adv-x="844" d="M72 494v260h700v-260h-700z" />
<glyph unicode="&#xae;" horiz-adv-x="1706" d="M111 733q0 102 27 198.5t81 188.5q101 170 267 264.5t366 94.5q154 0 290.5 -57.5t243.5 -166.5q103 -104 157 -238t54 -284q0 -152 -56 -287.5t-163 -238.5q-107 -105 -243.5 -161t-282.5 -56q-149 0 -285 58t-243 167q-104 105 -158.5 238.5t-54.5 279.5zM233 735 q0 -124 46 -235.5t133 -198.5q89 -91 203 -139.5t237 -48.5q120 0 233.5 47t206.5 135q87 84 135 196t48 232q0 133 -44.5 245t-132.5 201q-90 93 -202.5 140t-241.5 47q-127 0 -236 -44.5t-196 -131.5q-91 -91 -140 -206.5t-49 -238.5zM545 336v825h323q176 0 264.5 -59.5 t88.5 -177.5q0 -82 -48 -140t-133 -79l185 -369h-224l-157 338h-99v-338h-200zM745 795h99q88 0 129 28t41 88q0 63 -44 93t-136 30h-89v-239z" />
<glyph unicode="&#xaf;" horiz-adv-x="1024" d="M289 1337v172h440v-172h-440z" />
<glyph unicode="&#xb0;" horiz-adv-x="674" d="M35 1159q0 127 88.5 216t214.5 89t214.5 -89.5t88.5 -215.5q0 -125 -89 -214t-216 -89q-126 0 -213.5 88t-87.5 215zM162 1161q0 -74 51 -125t125 -51q72 0 123 52t51 124t-51 123t-123 51q-73 0 -124.5 -51t-51.5 -123z" />
<glyph unicode="&#xb1;" horiz-adv-x="1706" d="M254 -2v199h1198v-199h-1198zM254 698v199h498v326h202v-326h498v-199h-498v-325h-202v325h-498z" />
<glyph unicode="&#xb2;" horiz-adv-x="524" d="M8 580q0 88 44 177.5t132 180.5l27 27q92 91 92 184q0 49 -9 62.5t-34 13.5q-24 0 -33.5 -13t-9.5 -65v-92h-203v80q0 122 61.5 183.5t184.5 61.5q119 0 182.5 -60.5t63.5 -174.5q0 -70 -21.5 -127.5t-66.5 -110.5q-19 -21 -57 -60q-88 -90 -105 -145h252v-155h-497 q-2 6 -2.5 12.5t-0.5 20.5z" />
<glyph unicode="&#xb3;" horiz-adv-x="578" d="M33 766v102h205v-98q0 -53 8.5 -65.5t32.5 -12.5q23 0 31.5 12.5t8.5 65.5v55q0 68 -21.5 86.5t-104.5 18.5h-35v141q110 2 133.5 16.5t23.5 63.5t-8.5 61.5t-30.5 12.5q-21 0 -29.5 -13.5t-8.5 -54.5v-31h-194q-2 9 -2.5 18.5t-0.5 26.5q0 110 57 159.5t183 49.5 q134 0 185.5 -50t51.5 -200q0 -61 -10.5 -87t-35.5 -39q29 -13 40.5 -42t11.5 -104v-96q0 -111 -62.5 -168t-182.5 -57q-128 0 -187 55t-59 174z" />
<glyph unicode="&#xb4;" horiz-adv-x="1024" d="M418 1311l82 215h225l-125 -215h-182z" />
<glyph unicode="&#xb5;" horiz-adv-x="1249" d="M-63 -438l268 1530h289l-76 -435q-15 -80 -23 -151.5t-8 -116.5q0 -93 42 -138.5t128 -45.5q100 0 155.5 82t92.5 291l90 514h289l-193 -1092h-268l18 117q-42 -78 -93.5 -114t-121.5 -36q-67 0 -119 29.5t-94 91.5l-90 -526h-286z" />
<glyph unicode="&#xb6;" horiz-adv-x="1024" d="M41 1130q0 158 107 253.5t284 95.5h551v-111h-113v-1368h-151v1368h-158v-1368h-153v784q-167 6 -267 101t-100 245z" />
<glyph unicode="&#xb7;" horiz-adv-x="451" d="M49 694q0 72 52.5 124t123.5 52q72 0 123 -51.5t51 -124.5q0 -72 -51.5 -124t-122.5 -52q-70 0 -123 53t-53 123z" />
<glyph unicode="&#xb8;" horiz-adv-x="1024" d="M360 -150h89q35 0 52 15.5t17 46.5q0 16 -6 37t-20 51h112q31 -43 45.5 -79t14.5 -68q0 -81 -51 -118.5t-160 -37.5q-15 0 -46 2.5t-47 3.5v147z" />
<glyph unicode="&#xb9;" horiz-adv-x="375" d="M-6 1128v132q64 14 105.5 40.5t62.5 67.5h153v-821h-198v597q-26 -9 -49.5 -13.5t-47.5 -4.5q-5 0 -12.5 1t-13.5 1z" />
<glyph unicode="&#xba;" horiz-adv-x="645" d="M53 805v332q0 151 62.5 212.5t208.5 61.5q145 0 206.5 -61.5t61.5 -212.5v-332q0 -151 -61.5 -212t-206.5 -61q-148 0 -209.5 61t-61.5 212zM274 776q0 -60 11 -74t39 -14q27 0 38 15.5t11 72.5v389q0 60 -10.5 75t-38.5 15t-39 -14.5t-11 -75.5v-389z" />
<glyph unicode="&#xbb;" horiz-adv-x="831" d="M51 125l121 487l-121 478h240l121 -478l-121 -487h-240zM399 125l121 487l-121 478h240l123 -478l-123 -487h-240z" />
<glyph unicode="&#xbc;" horiz-adv-x="1225" d="M-6 1145v123q61 12 100.5 37.5t59.5 64.5h147v-768h-190v559q-24 -9 -46.5 -13.5t-46.5 -4.5q-5 0 -11.5 0.5t-12.5 1.5zM55 -18l774 1407h136l-775 -1407h-135zM688 127v72q0 173 45 314.5t135 254.5h285v-492h47v-149h-47v-127h-188v127h-277zM881 276h84v334 q-42 -61 -63 -139t-21 -170v-25z" />
<glyph unicode="&#xbd;" horiz-adv-x="1163" d="M-6 1145v123q61 12 100.5 37.5t59.5 64.5h147v-768h-190v559q-24 -9 -46.5 -13.5t-46.5 -4.5q-5 0 -11.5 0.5t-12.5 1.5zM55 -18l774 1407h136l-775 -1407h-135zM670 0v31q0 81 41.5 164.5t126.5 169.5l23 23q89 86 89 173q0 46 -9 59t-32 13t-32 -12t-9 -62v-84h-194v74 q0 114 59 171.5t176 57.5q114 0 175 -56.5t61 -162.5q0 -67 -20 -120t-64 -103q-17 -18 -50 -52q-87 -86 -104 -139h238v-145h-475z" />
<glyph unicode="&#xbe;" horiz-adv-x="1419" d="M31 807v94h194v-92q0 -48 9 -59t32 -11q22 0 30.5 11t8.5 59v53q0 63 -21 81t-100 18h-34v131q107 1 129 14.5t22 58.5q0 46 -8 58t-29 12q-20 0 -28.5 -12.5t-8.5 -51.5v-28h-186v41q0 103 54 149.5t173 46.5q128 0 178 -47.5t50 -185.5q0 -58 -10.5 -82.5t-34.5 -36.5 q27 -11 38 -37t11 -98v-90q0 -104 -59.5 -157.5t-174.5 -53.5q-122 0 -178.5 51.5t-56.5 163.5zM250 -18l774 1407h135l-774 -1407h-135zM883 127v72q0 173 44.5 314.5t135.5 254.5h285v-492h47v-149h-47v-127h-189v127h-276zM1075 276h84v334q-41 -61 -62.5 -139 t-21.5 -170v-25z" />
<glyph unicode="&#xbf;" horiz-adv-x="754" d="M29 344q0 158 119 337q20 30 30 46q63 100 87 164.5t24 124.5v6h256v-51q0 -98 -30.5 -189.5t-104.5 -208.5q-52 -82 -68 -128t-16 -93q0 -77 14 -102t53 -25q37 0 51.5 22t14.5 105v121h282v-106q0 -216 -78 -300.5t-266 -84.5q-182 0 -275 91t-93 271zM270 1081v318 h293v-318h-293z" />
<glyph unicode="&#xc0;" horiz-adv-x="899" d="M66 0v274q0 395 59 664t186 461h277q127 -194 186.5 -463t59.5 -662v-274h-310v231h-151v-231h-307zM238 1706h225l80 -215h-180zM373 494h151q-3 199 -22 354t-53 262q-35 -107 -54 -262t-22 -354z" />
<glyph unicode="&#xc1;" horiz-adv-x="899" d="M66 0v274q0 395 59 664t186 461h277q127 -194 186.5 -463t59.5 -662v-274h-310v231h-151v-231h-307zM357 1491l82 215h225l-125 -215h-182zM373 494h151q-3 199 -22 354t-53 262q-35 -107 -54 -262t-22 -354z" />
<glyph unicode="&#xc2;" horiz-adv-x="899" d="M66 0v274q0 395 59 664t186 461h277q127 -194 186.5 -463t59.5 -662v-274h-310v231h-151v-231h-307zM207 1491l119 215h250l119 -215h-185l-59 94l-59 -94h-185zM373 494h151q-3 199 -22 354t-53 262q-35 -107 -54 -262t-22 -354z" />
<glyph unicode="&#xc3;" horiz-adv-x="899" d="M66 0v274q0 395 59 664t186 461h277q127 -194 186.5 -463t59.5 -662v-274h-310v231h-151v-231h-307zM193 1493v61q0 66 27.5 99.5t80.5 33.5q12 0 22.5 -1t21.5 -3l167 -26q2 0 7.5 -1t7.5 -1q23 0 37 13t14 36h133v-60q0 -68 -27 -101.5t-81 -33.5h-19q-8 0 -13.5 0.5 t-10.5 1.5l-168 29q-2 0 -7.5 1t-7.5 1q-23 0 -37 -13.5t-14 -35.5h-133zM373 494h151q-3 199 -22 354t-53 262q-35 -107 -54 -262t-22 -354z" />
<glyph unicode="&#xc4;" horiz-adv-x="899" d="M66 0v274q0 395 59 664t186 461h277q127 -194 186.5 -463t59.5 -662v-274h-310v231h-151v-231h-307zM215 1505v197h201v-197h-201zM373 494h151q-3 199 -22 354t-53 262q-35 -107 -54 -262t-22 -354zM488 1505v197h201v-197h-201z" />
<glyph unicode="&#xc5;" horiz-adv-x="899" d="M66 0v274q0 395 59 664t186 461h277q127 -194 186.5 -463t59.5 -662v-274h-310v231h-151v-231h-307zM242 1653q0 84 61 145.5t146 61.5t145.5 -61t60.5 -146q0 -86 -60 -146.5t-146 -60.5q-87 0 -147 60.5t-60 146.5zM371 1651q0 -31 23 -53.5t55 -22.5q31 0 52 21.5 t21 54.5q0 34 -20 56t-53 22t-55.5 -22.5t-22.5 -55.5zM373 494h151q-3 199 -22 354t-53 262q-35 -107 -54 -262t-22 -354z" />
<glyph unicode="&#xc6;" horiz-adv-x="1208" d="M51 0v344q0 376 71.5 624t227.5 431h793v-266h-324v-238h311v-264h-311v-365h338v-266h-645v231h-152v-231h-309zM361 494h151v632q-74 -82 -111 -237.5t-40 -394.5z" />
<glyph unicode="&#xc7;" horiz-adv-x="924" d="M80 451v497q0 259 89 364t300 105t300 -105t89 -364v-100h-313v172q0 85 -16.5 108t-59.5 23q-44 0 -60 -21t-16 -100v-41v-620q0 -80 16.5 -101.5t59.5 -21.5q44 0 60 23t16 110v31v211h313v-170q0 -259 -89 -364t-300 -105t-300 105t-89 364zM323 -150h89q35 0 52 15.5 t17 46.5q0 16 -6 37t-20 51h112q31 -43 45.5 -79t14.5 -68q0 -81 -51 -118.5t-160 -37.5q-15 0 -46 2.5t-47 3.5v147z" />
<glyph unicode="&#xc8;" horiz-adv-x="793" d="M94 0v1399h631v-266h-322v-238h310v-264h-310v-365h336v-266h-645zM184 1706h225l80 -215h-180z" />
<glyph unicode="&#xc9;" horiz-adv-x="793" d="M94 0v1399h631v-266h-322v-238h310v-264h-310v-365h336v-266h-645zM303 1491l82 215h225l-125 -215h-182z" />
<glyph unicode="&#xca;" horiz-adv-x="793" d="M94 0v1399h631v-266h-322v-238h310v-264h-310v-365h336v-266h-645zM153 1491l119 215h250l119 -215h-185l-59 94l-59 -94h-185z" />
<glyph unicode="&#xcb;" horiz-adv-x="793" d="M94 0v1399h631v-266h-322v-238h310v-264h-310v-365h336v-266h-645zM161 1505v197h201v-197h-201zM434 1505v197h201v-197h-201z" />
<glyph unicode="&#xcc;" horiz-adv-x="508" d="M41 1706h225l80 -215h-180zM94 0v1399h309v-1399h-309z" />
<glyph unicode="&#xcd;" horiz-adv-x="508" d="M94 0v1399h309v-1399h-309zM160 1491l82 215h225l-125 -215h-182z" />
<glyph unicode="&#xce;" horiz-adv-x="508" d="M10 1491l119 215h250l119 -215h-185l-59 94l-59 -94h-185zM94 0v1399h309v-1399h-309z" />
<glyph unicode="&#xcf;" horiz-adv-x="508" d="M18 1505v197h201v-197h-201zM94 0v1399h309v-1399h-309zM291 1505v197h201v-197h-201z" />
<glyph unicode="&#xd0;" horiz-adv-x="995" d="M29 700v142h94v557h434q189 0 273.5 -89.5t84.5 -287.5v-645q0 -199 -84 -288t-274 -89h-434v700h-94zM432 266h57q65 0 89 22.5t24 112.5v31v565q0 91 -24 113.5t-89 22.5h-57v-291h94v-142h-94v-434z" />
<glyph unicode="&#xd1;" horiz-adv-x="958" d="M94 0v1399h287q44 -71 88 -164t86 -205v369h307v-1399h-307v274q0 178 -38 342t-114 312v-928h-309zM221 1493v61q0 66 27.5 99.5t80.5 33.5q12 0 22.5 -1t21.5 -3l167 -26q2 0 7.5 -1t7.5 -1q23 0 37 13t14 36h133v-60q0 -68 -27 -101.5t-81 -33.5h-19q-8 0 -13.5 0.5 t-10.5 1.5l-168 29q-2 0 -7.5 1t-7.5 1q-23 0 -37 -13.5t-14 -35.5h-133z" />
<glyph unicode="&#xd2;" horiz-adv-x="938" d="M80 451v497q0 259 89 364t300 105t300 -105t89 -364v-497q0 -259 -89 -364t-300 -105t-300 105t-89 364zM256 1706h225l80 -215h-180zM393 369q0 -80 16.5 -101.5t59.5 -21.5q44 0 60 23t16 110v31v610q0 85 -16.5 108t-59.5 23q-44 0 -60 -21t-16 -100v-41v-620z" />
<glyph unicode="&#xd3;" horiz-adv-x="938" d="M80 451v497q0 259 89 364t300 105t300 -105t89 -364v-497q0 -259 -89 -364t-300 -105t-300 105t-89 364zM375 1491l82 215h225l-125 -215h-182zM393 369q0 -80 16.5 -101.5t59.5 -21.5q44 0 60 23t16 110v31v610q0 85 -16.5 108t-59.5 23q-44 0 -60 -21t-16 -100v-41 v-620z" />
<glyph unicode="&#xd4;" horiz-adv-x="938" d="M80 451v497q0 259 89 364t300 105t300 -105t89 -364v-497q0 -259 -89 -364t-300 -105t-300 105t-89 364zM225 1491l119 215h250l119 -215h-185l-59 94l-59 -94h-185zM393 369q0 -80 16.5 -101.5t59.5 -21.5q44 0 60 23t16 110v31v610q0 85 -16.5 108t-59.5 23 q-44 0 -60 -21t-16 -100v-41v-620z" />
<glyph unicode="&#xd5;" horiz-adv-x="938" d="M80 451v497q0 259 89 364t300 105t300 -105t89 -364v-497q0 -259 -89 -364t-300 -105t-300 105t-89 364zM211 1493v61q0 66 27.5 99.5t80.5 33.5q12 0 22.5 -1t21.5 -3l167 -26q2 0 7.5 -1t7.5 -1q23 0 37 13t14 36h133v-60q0 -68 -27 -101.5t-81 -33.5h-19 q-8 0 -13.5 0.5t-10.5 1.5l-168 29q-2 0 -7.5 1t-7.5 1q-23 0 -37 -13.5t-14 -35.5h-133zM393 369q0 -80 16.5 -101.5t59.5 -21.5q44 0 60 23t16 110v31v610q0 85 -16.5 108t-59.5 23q-44 0 -60 -21t-16 -100v-41v-620z" />
<glyph unicode="&#xd6;" horiz-adv-x="938" d="M80 451v497q0 259 89 364t300 105t300 -105t89 -364v-497q0 -259 -89 -364t-300 -105t-300 105t-89 364zM233 1505v197h201v-197h-201zM393 369q0 -80 16.5 -101.5t59.5 -21.5q44 0 60 23t16 110v31v610q0 85 -16.5 108t-59.5 23q-44 0 -60 -21t-16 -100v-41v-620z M506 1505v197h201v-197h-201z" />
<glyph unicode="&#xd7;" horiz-adv-x="1706" d="M276 160l451 450l-451 453l140 139l450 -450l451 450l141 -139l-450 -453l450 -450l-141 -140l-451 451l-450 -451z" />
<glyph unicode="&#xd8;" horiz-adv-x="938" d="M53 -18l80 163q-27 37 -40 110t-13 196v497q0 259 89.5 364t299.5 105q89 0 156 -18t108 -53l33 71h127l-80 -162q23 -40 34 -114t11 -193v-497q0 -259 -89 -364t-300 -105q-90 0 -150.5 16.5t-109.5 54.5l-35 -71h-121zM389 342q0 -60 17.5 -82t62.5 -22q46 0 63 21.5 t17 102.5v41v381l-160 -409v-33zM389 621l162 405v29q0 62 -18 84t-64 22t-63 -24t-17 -115v-29v-372z" />
<glyph unicode="&#xd9;" horiz-adv-x="948" d="M88 451v948h309v-989v-41q0 -80 16.5 -101.5t59.5 -21.5q45 0 61.5 24t16.5 123v17v989h309v-948q0 -259 -89 -364t-298 -105t-297 104.5t-88 364.5zM262 1706h225l80 -215h-180z" />
<glyph unicode="&#xda;" horiz-adv-x="948" d="M88 451v948h309v-989v-41q0 -80 16.5 -101.5t59.5 -21.5q45 0 61.5 24t16.5 123v17v989h309v-948q0 -259 -89 -364t-298 -105t-297 104.5t-88 364.5zM381 1491l82 215h225l-125 -215h-182z" />
<glyph unicode="&#xdb;" horiz-adv-x="948" d="M88 451v948h309v-989v-41q0 -80 16.5 -101.5t59.5 -21.5q45 0 61.5 24t16.5 123v17v989h309v-948q0 -259 -89 -364t-298 -105t-297 104.5t-88 364.5zM231 1491l119 215h250l119 -215h-185l-59 94l-59 -94h-185z" />
<glyph unicode="&#xdc;" horiz-adv-x="948" d="M88 451v948h309v-989v-41q0 -80 16.5 -101.5t59.5 -21.5q45 0 61.5 24t16.5 123v17v989h309v-948q0 -259 -89 -364t-298 -105t-297 104.5t-88 364.5zM239 1505v197h201v-197h-201zM512 1505v197h201v-197h-201z" />
<glyph unicode="&#xdd;" horiz-adv-x="788" d="M10 1370v29h309q5 -264 25 -453.5t51 -263.5q32 76 52 265t24 452h307v-68q0 -253 -59.5 -495.5t-169.5 -438.5v-397h-309v397q-113 200 -171.5 446.5t-58.5 526.5zM301 1491l82 215h225l-125 -215h-182z" />
<glyph unicode="&#xde;" horiz-adv-x="877" d="M94 0v1399h309v-291h105q196 0 278 -93.5t82 -328.5q0 -191 -86 -270.5t-293 -79.5q-33 0 -51.5 0.5t-33.5 1.5l-1 -338h-309zM393 578q20 -3 30.5 -4t18.5 -1q64 0 92.5 32.5t28.5 105.5q0 85 -24 117t-84 32h-62v-282z" />
<glyph unicode="&#xdf;" horiz-adv-x="899" d="M90 0v1098q0 209 62 265t260 56q197 0 275.5 -55t78.5 -186q0 -66 -24.5 -109t-69.5 -57q88 -17 121.5 -77t33.5 -224v-322q0 -262 -46.5 -337t-168.5 -75q-54 0 -101 11t-87 32v183q8 -1 19 -2q26 -2 36 -2q34 0 47 17t13 69v460q0 82 -21 105.5t-84 23.5h-55v-874h-289 zM379 1016h92q40 0 57 22t17 74q0 53 -19.5 74.5t-68.5 21.5h-78v-192z" />
<glyph unicode="&#xe0;" horiz-adv-x="852" d="M66 266v180q0 142 65.5 218.5t349.5 195.5v41q0 70 -14 91.5t-51 21.5t-51.5 -21.5t-14.5 -91.5v-49h-260v80q0 155 82.5 230t251.5 75q181 0 263.5 -83t82.5 -267v-887h-274v66q-37 -43 -83 -64.5t-102 -21.5q-118 0 -181.5 74t-63.5 212zM227 1526h225l80 -215h-180z M350 332q0 -84 14 -105.5t52 -21.5q37 0 51 21.5t14 105.5v307q-71 -42 -101 -88.5t-30 -147.5v-18v-53z" />
<glyph unicode="&#xe1;" horiz-adv-x="852" d="M66 266v180q0 142 65.5 218.5t349.5 195.5v41q0 70 -14 91.5t-51 21.5t-51.5 -21.5t-14.5 -91.5v-49h-260v80q0 155 82.5 230t251.5 75q181 0 263.5 -83t82.5 -267v-887h-274v66q-37 -43 -83 -64.5t-102 -21.5q-118 0 -181.5 74t-63.5 212zM346 1311l82 215h225 l-125 -215h-182zM350 332q0 -84 14 -105.5t52 -21.5q37 0 51 21.5t14 105.5v307q-71 -42 -101 -88.5t-30 -147.5v-18v-53z" />
<glyph unicode="&#xe2;" horiz-adv-x="852" d="M66 266v180q0 142 65.5 218.5t349.5 195.5v41q0 70 -14 91.5t-51 21.5t-51.5 -21.5t-14.5 -91.5v-49h-260v80q0 155 82.5 230t251.5 75q181 0 263.5 -83t82.5 -267v-887h-274v66q-37 -43 -83 -64.5t-102 -21.5q-118 0 -181.5 74t-63.5 212zM196 1311l119 215h250 l119 -215h-185l-59 94l-59 -94h-185zM350 332q0 -84 14 -105.5t52 -21.5q37 0 51 21.5t14 105.5v307q-71 -42 -101 -88.5t-30 -147.5v-18v-53z" />
<glyph unicode="&#xe3;" horiz-adv-x="852" d="M66 266v180q0 142 65.5 218.5t349.5 195.5v41q0 70 -14 91.5t-51 21.5t-51.5 -21.5t-14.5 -91.5v-49h-260v80q0 155 82.5 230t251.5 75q181 0 263.5 -83t82.5 -267v-887h-274v66q-37 -43 -83 -64.5t-102 -21.5q-118 0 -181.5 74t-63.5 212zM182 1313v61q0 66 27.5 99.5 t80.5 33.5q12 0 22.5 -1t21.5 -3l167 -26q2 0 7.5 -1t7.5 -1q23 0 37 13t14 36h133v-60q0 -68 -27 -101.5t-81 -33.5h-19q-8 0 -13.5 0.5t-10.5 1.5l-168 29q-2 0 -7.5 1t-7.5 1q-23 0 -37 -13.5t-14 -35.5h-133zM350 332q0 -84 14 -105.5t52 -21.5q37 0 51 21.5t14 105.5 v307q-71 -42 -101 -88.5t-30 -147.5v-18v-53z" />
<glyph unicode="&#xe4;" horiz-adv-x="852" d="M66 266v180q0 142 65.5 218.5t349.5 195.5v41q0 70 -14 91.5t-51 21.5t-51.5 -21.5t-14.5 -91.5v-49h-260v80q0 155 82.5 230t251.5 75q181 0 263.5 -83t82.5 -267v-887h-274v66q-37 -43 -83 -64.5t-102 -21.5q-118 0 -181.5 74t-63.5 212zM204 1325v197h201v-197h-201z M350 332q0 -84 14 -105.5t52 -21.5q37 0 51 21.5t14 105.5v307q-71 -42 -101 -88.5t-30 -147.5v-18v-53zM477 1325v197h201v-197h-201z" />
<glyph unicode="&#xe5;" horiz-adv-x="852" d="M66 266v180q0 142 65.5 218.5t349.5 195.5v41q0 70 -14 91.5t-51 21.5t-51.5 -21.5t-14.5 -91.5v-49h-260v80q0 155 82.5 230t251.5 75q181 0 263.5 -83t82.5 -267v-887h-274v66q-37 -43 -83 -64.5t-102 -21.5q-118 0 -181.5 74t-63.5 212zM231 1491q0 84 61.5 145.5 t145.5 61.5q85 0 146 -61t61 -146q0 -86 -60 -145.5t-147 -59.5q-86 0 -146.5 59.5t-60.5 145.5zM350 332q0 -84 14 -105.5t52 -21.5q37 0 51 21.5t14 105.5v307q-71 -42 -101 -88.5t-30 -147.5v-18v-53zM360 1491q0 -31 23 -53.5t55 -22.5q33 0 55.5 22t22.5 54 q0 34 -22 56t-56 22q-33 0 -55.5 -22.5t-22.5 -55.5z" />
<glyph unicode="&#xe6;" horiz-adv-x="1262" d="M66 307v139q0 142 65.5 218.5t349.5 195.5v41q0 70 -14 91.5t-51 21.5t-51.5 -21.5t-14.5 -91.5v-49h-260v80q0 151 80.5 228t239.5 77q71 0 121.5 -13.5t89.5 -41.5q42 27 94.5 41t113.5 14q196 0 278.5 -87.5t82.5 -303.5v-283h-430v-231q0 -85 15 -106t54 -21t54.5 22 t15.5 105v162h291v-121q0 -217 -82.5 -304t-278.5 -87q-87 0 -147 17t-104 54q-37 -33 -91 -52t-112 -19q-157 0 -233 80t-76 245zM350 332q0 -84 14 -105.5t52 -21.5q37 0 51 21.5t14 105.5v307q-71 -42 -101 -88.5t-30 -147.5v-18v-53zM760 786h139v93q0 90 -14.5 112.5 t-55.5 22.5q-40 0 -54.5 -22.5t-14.5 -112.5v-93z" />
<glyph unicode="&#xe7;" horiz-adv-x="852" d="M72 373v473q0 216 82 303.5t276 87.5q195 0 276.5 -87t81.5 -304v-121h-292v162q0 84 -14.5 105.5t-51.5 21.5t-51 -22t-14 -105v-555q0 -84 14 -105.5t51 -21.5t51.5 21.5t14.5 105.5v162h292v-121q0 -218 -81.5 -304.5t-276.5 -86.5t-276.5 86.5t-81.5 304.5zM274 -150 h89q35 0 52 15.5t17 46.5q0 16 -6 37t-20 51h112q31 -43 45.5 -79t14.5 -68q0 -81 -51 -118.5t-160 -37.5q-15 0 -46 2.5t-47 3.5v147z" />
<glyph unicode="&#xe8;" d="M72 373v473q0 216 82 303.5t276 87.5q195 0 276.5 -87t81.5 -304v-283h-428v-231q0 -85 15 -106t55 -21q39 0 54.5 22t15.5 105v162h288v-121q0 -218 -81.5 -304.5t-276.5 -86.5t-276.5 86.5t-81.5 304.5zM217 1526h225l80 -215h-180zM360 786h140v93q0 90 -15 112.5 t-55 22.5t-55 -22.5t-15 -112.5v-93z" />
<glyph unicode="&#xe9;" d="M72 373v473q0 216 82 303.5t276 87.5q195 0 276.5 -87t81.5 -304v-283h-428v-231q0 -85 15 -106t55 -21q39 0 54.5 22t15.5 105v162h288v-121q0 -218 -81.5 -304.5t-276.5 -86.5t-276.5 86.5t-81.5 304.5zM336 1311l82 215h225l-125 -215h-182zM360 786h140v93 q0 90 -15 112.5t-55 22.5t-55 -22.5t-15 -112.5v-93z" />
<glyph unicode="&#xea;" d="M72 373v473q0 216 82 303.5t276 87.5q195 0 276.5 -87t81.5 -304v-283h-428v-231q0 -85 15 -106t55 -21q39 0 54.5 22t15.5 105v162h288v-121q0 -218 -81.5 -304.5t-276.5 -86.5t-276.5 86.5t-81.5 304.5zM186 1311l119 215h250l119 -215h-185l-59 94l-59 -94h-185z M360 786h140v93q0 90 -15 112.5t-55 22.5t-55 -22.5t-15 -112.5v-93z" />
<glyph unicode="&#xeb;" d="M72 373v473q0 216 82 303.5t276 87.5q195 0 276.5 -87t81.5 -304v-283h-428v-231q0 -85 15 -106t55 -21q39 0 54.5 22t15.5 105v162h288v-121q0 -218 -81.5 -304.5t-276.5 -86.5t-276.5 86.5t-81.5 304.5zM194 1325v197h201v-197h-201zM360 786h140v93q0 90 -15 112.5 t-55 22.5t-55 -22.5t-15 -112.5v-93zM467 1325v197h201v-197h-201z" />
<glyph unicode="&#xec;" horiz-adv-x="479" d="M27 1526h225l80 -215h-180zM90 0v1219h289v-1219h-289z" />
<glyph unicode="&#xed;" horiz-adv-x="479" d="M90 0v1219h289v-1219h-289zM146 1311l82 215h225l-125 -215h-182z" />
<glyph unicode="&#xee;" horiz-adv-x="479" d="M-4 1311l119 215h250l119 -215h-185l-59 94l-59 -94h-185zM90 0v1219h289v-1219h-289z" />
<glyph unicode="&#xef;" horiz-adv-x="479" d="M4 1325v197h201v-197h-201zM90 0v1219h289v-1219h-289zM277 1325v197h201v-197h-201z" />
<glyph unicode="&#xf0;" horiz-adv-x="877" d="M72 352v355q0 206 82 289t276 83q3 0 22 -1t35 -1q-6 30 -16 60.5t-25 58.5l-229 -51l-22 92l206 49q-16 30 -40.5 63t-57.5 68h221q21 -21 40.5 -42.5t37.5 -43.5l178 41l21 -94l-139 -33q68 -96 97 -214t29 -324v-355q0 -206 -81.5 -288t-276.5 -82q-194 0 -276 82 t-82 288zM365 313q0 -81 13.5 -100.5t51.5 -19.5t52 21t14 99v432q0 81 -14 101t-52 20q-37 0 -51 -20.5t-14 -100.5v-432z" />
<glyph unicode="&#xf1;" horiz-adv-x="879" d="M90 0v1219h272v-66q37 42 83.5 63t103.5 21q134 0 192 -83t58 -292v-862h-289v887q0 84 -14 105.5t-52 21.5q-37 0 -51 -22t-14 -105v-887h-289zM182 1313v61q0 66 27.5 99.5t80.5 33.5q12 0 22.5 -1t21.5 -3l167 -26q2 0 7.5 -1t7.5 -1q23 0 37 13t14 36h133v-60 q0 -68 -27 -101.5t-81 -33.5h-19q-8 0 -13.5 0.5t-10.5 1.5l-168 29q-2 0 -7.5 1t-7.5 1q-23 0 -37 -13.5t-14 -35.5h-133z" />
<glyph unicode="&#xf2;" d="M72 373v473q0 216 82 303.5t276 87.5q195 0 276.5 -87t81.5 -304v-473q0 -218 -81.5 -304.5t-276.5 -86.5t-276.5 86.5t-81.5 304.5zM217 1526h225l80 -215h-180zM365 332q0 -84 14 -105.5t51 -21.5t51.5 21.5t14.5 105.5v555q0 84 -14.5 105.5t-51.5 21.5t-51 -22 t-14 -105v-555z" />
<glyph unicode="&#xf3;" d="M72 373v473q0 216 82 303.5t276 87.5q195 0 276.5 -87t81.5 -304v-473q0 -218 -81.5 -304.5t-276.5 -86.5t-276.5 86.5t-81.5 304.5zM336 1311l82 215h225l-125 -215h-182zM365 332q0 -84 14 -105.5t51 -21.5t51.5 21.5t14.5 105.5v555q0 84 -14.5 105.5t-51.5 21.5 t-51 -22t-14 -105v-555z" />
<glyph unicode="&#xf4;" d="M72 373v473q0 216 82 303.5t276 87.5q195 0 276.5 -87t81.5 -304v-473q0 -218 -81.5 -304.5t-276.5 -86.5t-276.5 86.5t-81.5 304.5zM186 1311l119 215h250l119 -215h-185l-59 94l-59 -94h-185zM365 332q0 -84 14 -105.5t51 -21.5t51.5 21.5t14.5 105.5v555 q0 84 -14.5 105.5t-51.5 21.5t-51 -22t-14 -105v-555z" />
<glyph unicode="&#xf5;" d="M72 373v473q0 216 82 303.5t276 87.5q195 0 276.5 -87t81.5 -304v-473q0 -218 -81.5 -304.5t-276.5 -86.5t-276.5 86.5t-81.5 304.5zM172 1313v61q0 66 27.5 99.5t80.5 33.5q12 0 22.5 -1t21.5 -3l167 -26q2 0 7.5 -1t7.5 -1q23 0 37 13t14 36h133v-60q0 -68 -27 -101.5 t-81 -33.5h-19q-8 0 -13.5 0.5t-10.5 1.5l-168 29q-2 0 -7.5 1t-7.5 1q-23 0 -37 -13.5t-14 -35.5h-133zM365 332q0 -84 14 -105.5t51 -21.5t51.5 21.5t14.5 105.5v555q0 84 -14.5 105.5t-51.5 21.5t-51 -22t-14 -105v-555z" />
<glyph unicode="&#xf6;" d="M72 373v473q0 216 82 303.5t276 87.5q195 0 276.5 -87t81.5 -304v-473q0 -218 -81.5 -304.5t-276.5 -86.5t-276.5 86.5t-81.5 304.5zM194 1325v197h201v-197h-201zM365 332q0 -84 14 -105.5t51 -21.5t51.5 21.5t14.5 105.5v555q0 84 -14.5 105.5t-51.5 21.5t-51 -22 t-14 -105v-555zM467 1325v197h201v-197h-201z" />
<glyph unicode="&#xf7;" horiz-adv-x="1706" d="M254 512v199h1198v-199h-1198zM702 217q0 63 44.5 107.5t107.5 44.5q62 0 107 -45t45 -107q0 -61 -45 -105t-107 -44q-63 0 -107.5 43t-44.5 106zM702 1004q0 63 44.5 107t107.5 44q62 0 107 -44.5t45 -106.5q0 -63 -44.5 -107.5t-107.5 -44.5t-107.5 44.5t-44.5 107.5z " />
<glyph unicode="&#xf8;" d="M23 -18l83 159q-18 31 -26 85.5t-8 146.5v473q0 217 81.5 304t276.5 87q79 0 140 -15.5t96 -43.5l32 59h146l-86 -160q17 -29 23.5 -75t6.5 -156v-473q0 -218 -81.5 -304.5t-276.5 -86.5q-81 0 -142 15.5t-98 45.5l-32 -61h-135zM360 303q0 -61 16 -82.5t54 -21.5 q39 0 54.5 22.5t15.5 108.5v336l-140 -347v-16zM360 555l140 346v17q0 59 -15.5 80.5t-54.5 21.5t-54.5 -22.5t-15.5 -106.5v-336z" />
<glyph unicode="&#xf9;" horiz-adv-x="879" d="M80 356v863h291v-887q0 -87 13.5 -107t49.5 -20q37 0 51.5 21.5t14.5 105.5v887h288v-1219h-270v63q-36 -39 -82.5 -58t-105.5 -19q-135 0 -192.5 80.5t-57.5 289.5zM227 1526h225l80 -215h-180z" />
<glyph unicode="&#xfa;" horiz-adv-x="879" d="M80 356v863h291v-887q0 -87 13.5 -107t49.5 -20q37 0 51.5 21.5t14.5 105.5v887h288v-1219h-270v63q-36 -39 -82.5 -58t-105.5 -19q-135 0 -192.5 80.5t-57.5 289.5zM346 1311l82 215h225l-125 -215h-182z" />
<glyph unicode="&#xfb;" horiz-adv-x="879" d="M80 356v863h291v-887q0 -87 13.5 -107t49.5 -20q37 0 51.5 21.5t14.5 105.5v887h288v-1219h-270v63q-36 -39 -82.5 -58t-105.5 -19q-135 0 -192.5 80.5t-57.5 289.5zM196 1311l119 215h250l119 -215h-185l-59 94l-59 -94h-185z" />
<glyph unicode="&#xfc;" horiz-adv-x="879" d="M80 356v863h291v-887q0 -87 13.5 -107t49.5 -20q37 0 51.5 21.5t14.5 105.5v887h288v-1219h-270v63q-36 -39 -82.5 -58t-105.5 -19q-135 0 -192.5 80.5t-57.5 289.5zM204 1325v197h201v-197h-201zM477 1325v197h201v-197h-201z" />
<glyph unicode="&#xfd;" d="M76 29h192q-99 174 -145.5 356t-46.5 395v439h289v-451q0 -164 16.5 -313t48.5 -275q32 121 49 270.5t17 317.5v451h288v-439q0 -290 -60 -500.5t-196 -420.5h-452v170zM336 1311l82 215h225l-125 -215h-182z" />
<glyph unicode="&#xfe;" horiz-adv-x="874" d="M90 -141v1540h289v-230q32 32 78 48t106 16q128 0 184 -84.5t56 -286.5v-459q0 -260 -56.5 -340.5t-199.5 -80.5q-56 0 -99 17.5t-69 51.5v-192h-289zM379 332q0 -84 14 -105.5t51 -21.5q38 0 52 21.5t14 105.5v555q0 84 -14 105.5t-52 21.5q-37 0 -51 -22t-14 -105v-555 z" />
<glyph unicode="&#xff;" d="M76 29h192q-99 174 -145.5 356t-46.5 395v439h289v-451q0 -164 16.5 -313t48.5 -275q32 121 49 270.5t17 317.5v451h288v-439q0 -290 -60 -500.5t-196 -420.5h-452v170zM194 1325v197h201v-197h-201zM467 1325v197h201v-197h-201z" />
<glyph unicode="&#x152;" horiz-adv-x="1241" d="M80 451v497q0 259 89.5 364t299.5 105q40 0 78.5 -4.5t76.5 -13.5h552v-266h-322v-238h309v-264h-309v-365h336v-266h-565q-42 -9 -80.5 -13.5t-75.5 -4.5q-211 0 -300 105t-89 364zM393 369q0 -80 16.5 -101.5t59.5 -21.5q44 0 60 23t16 110v31v610q0 85 -16.5 108 t-59.5 23q-44 0 -60 -21t-16 -100v-41v-620z" />
<glyph unicode="&#x153;" horiz-adv-x="1276" d="M72 373v473q0 216 82 303.5t276 87.5q64 0 116 -15t89 -44q39 28 92.5 43.5t116.5 15.5q195 0 277.5 -87.5t82.5 -303.5v-283h-430v-231q0 -85 15 -106t55 -21t55.5 23t15.5 104v162h289v-121q0 -217 -82.5 -304t-277.5 -87q-70 0 -122.5 16.5t-84.5 48.5 q-33 -33 -88.5 -49t-132.5 -16q-184 0 -264 89t-80 302zM365 332q0 -84 14 -105.5t51 -21.5t51.5 21.5t14.5 105.5v555q0 84 -14.5 105.5t-51.5 21.5t-51 -22t-14 -105v-555zM774 786h141v93q0 88 -15 111.5t-56 23.5q-40 0 -55 -22.5t-15 -112.5v-93z" />
<glyph unicode="&#x178;" horiz-adv-x="788" d="M10 1370v29h309q5 -264 25 -453.5t51 -263.5q32 76 52 265t24 452h307v-68q0 -253 -59.5 -495.5t-169.5 -438.5v-397h-309v397q-113 200 -171.5 446.5t-58.5 526.5zM159 1505v197h201v-197h-201zM432 1505v197h201v-197h-201z" />
<glyph unicode="&#x2c6;" horiz-adv-x="1024" d="M268 1311l119 215h250l119 -215h-185l-59 94l-59 -94h-185z" />
<glyph unicode="&#x2dc;" horiz-adv-x="1024" d="M254 1313v61q0 66 27.5 99.5t80.5 33.5q12 0 22.5 -1t21.5 -3l167 -26q2 0 7.5 -1t7.5 -1q23 0 37 13t14 36h133v-60q0 -68 -27 -101.5t-81 -33.5h-19q-8 0 -13.5 0.5t-10.5 1.5l-168 29q-2 0 -7.5 1t-7.5 1q-23 0 -37 -13.5t-14 -35.5h-133z" />
<glyph unicode="&#x2000;" horiz-adv-x="930" />
<glyph unicode="&#x2001;" horiz-adv-x="1860" />
<glyph unicode="&#x2002;" horiz-adv-x="930" />
<glyph unicode="&#x2003;" horiz-adv-x="1860" />
<glyph unicode="&#x2004;" horiz-adv-x="620" />
<glyph unicode="&#x2005;" horiz-adv-x="465" />
<glyph unicode="&#x2006;" horiz-adv-x="310" />
<glyph unicode="&#x2007;" horiz-adv-x="310" />
<glyph unicode="&#x2008;" horiz-adv-x="232" />
<glyph unicode="&#x2009;" horiz-adv-x="372" />
<glyph unicode="&#x200a;" horiz-adv-x="103" />
<glyph unicode="&#x2010;" horiz-adv-x="844" d="M72 494v260h700v-260h-700z" />
<glyph unicode="&#x2011;" horiz-adv-x="844" d="M72 494v260h700v-260h-700z" />
<glyph unicode="&#x2012;" horiz-adv-x="844" d="M72 494v260h700v-260h-700z" />
<glyph unicode="&#x2013;" horiz-adv-x="1024" d="M0 528v191h1024v-191h-1024z" />
<glyph unicode="&#x2014;" horiz-adv-x="2048" d="M0 528v191h2048v-191h-2048z" />
<glyph unicode="&#x2018;" horiz-adv-x="432" d="M88 958v299l174 160l51 -45l-77 -115h108v-299h-256z" />
<glyph unicode="&#x2019;" horiz-adv-x="432" d="M88 1100v299h256v-299l-174 -160l-51 45l78 115h-109z" />
<glyph unicode="&#x201a;" horiz-adv-x="432" d="M88 0v299h256v-299l-174 -160l-51 45l78 115h-109z" />
<glyph unicode="&#x201c;" horiz-adv-x="754" d="M88 958v299l174 160l51 -45l-77 -115h108v-299h-256zM410 958v299l174 160l51 -45l-78 -115h109v-299h-256z" />
<glyph unicode="&#x201d;" horiz-adv-x="754" d="M88 1100v299h256v-299l-174 -160l-51 45l78 115h-109zM410 1100v299h256v-299l-172 -160l-54 45l78 115h-108z" />
<glyph unicode="&#x201e;" horiz-adv-x="754" d="M88 0v299h256v-299l-174 -160l-51 45l78 115h-109zM410 0v299h256v-299l-172 -160l-54 45l78 115h-108z" />
<glyph unicode="&#x2022;" horiz-adv-x="1208" d="M307 762q0 123 87 209t210 86q122 0 208.5 -86.5t86.5 -208.5t-87.5 -209.5t-209.5 -87.5q-123 0 -209 87t-86 210z" />
<glyph unicode="&#x2026;" horiz-adv-x="2048" d="M195 0v317h295v-317h-295zM877 0v317h295v-317h-295zM1561 0v317h295v-317h-295z" />
<glyph unicode="&#x202f;" horiz-adv-x="372" />
<glyph unicode="&#x2039;" horiz-adv-x="483" d="M72 604l121 488h239l-121 -488l121 -477h-239z" />
<glyph unicode="&#x203a;" horiz-adv-x="483" d="M51 127l121 487l-121 478h240l121 -478l-121 -487h-240z" />
<glyph unicode="&#x205f;" horiz-adv-x="465" />
<glyph unicode="&#x20ac;" horiz-adv-x="901" d="M-23 500l58 129h65v112h-123l58 129h65v60q0 253 86 356t289 103q193 0 283 -97t90 -307v-37h-309v78q0 64 -14 83t-50 19q-38 0 -51.5 -22t-13.5 -105v-131h286l-57 -129h-229v-112h178l-58 -129h-120v-131q0 -83 13.5 -105t51.5 -22q36 0 50 19t14 79v106h309v-67 q0 -209 -88.5 -303t-284.5 -94q-203 0 -289 103t-86 357v58h-123z" />
<glyph unicode="&#x2122;" horiz-adv-x="1706" d="M207 1350v112h485v-112h-168v-435h-149v435h-168zM803 915v547h196l127 -332l123 332h197v-547h-135v410l-154 -410h-61l-158 410v-410h-135z" />
<glyph unicode="&#x25fc;" horiz-adv-x="1220" d="M0 0v1220h1220v-1220h-1220z" />
</font>
</defs>
</svg>
