<?xml version="1.0" standalone="no"?>
<!DOCTYPE svg PUBLIC "-//W3C//DTD SVG 1.1//EN" "http://www.w3.org/Graphics/SVG/1.1/DTD/svg11.dtd" >
<svg>
<metadata>
Created by FontForge 20090622 at Wed Jan 13 19:00:36 2016
 By deploy user
Copyright (c) The Font Bureau, Inc., 2003. All rights reserved.
</metadata>
<defs>
<font id="BureauGrot-Medium" horiz-adv-x="647" >
  <font-face 
    font-family="BureauGrot Medium"
    font-weight="500"
    font-stretch="normal"
    units-per-em="1000"
    panose-1="2 0 6 3 6 0 0 2 0 4"
    ascent="800"
    descent="-200"
    x-height="574"
    cap-height="768"
    bbox="-221 -206 1498 948"
    underline-thickness="23"
    underline-position="-111"
    unicode-range="U+0020-U+FB02"
  />
<missing-glyph horiz-adv-x="500" 
 />
    <glyph glyph-name="fi" unicode="fi" horiz-adv-x="701" 
d="M630 629h-170v149h170v-149zM463 480h-203v-480h-165v480h-80v94h83q-6 29 -6 68q0 67 44 107.5t122 40.5q88 0 129.5 -27t41.5 -67q0 -32 -11 -62l-101 8q3 12 3 29q0 31 -45 31q-19 0 -30.5 -13.5t-11.5 -35.5q0 -51 12 -79h383v-574h-165v480z" />
    <glyph glyph-name="fl" unicode="fl" horiz-adv-x="701" 
d="M429 696q0 -32 -11 -62l-101 8q3 12 3 29q0 31 -45 31q-19 0 -30.5 -13.5t-11.5 -35.5q0 -51 12 -79h120v-94h-105v-480h-165v480h-80v94h83q-6 29 -6 68q0 67 44 107.5t122 40.5q89 0 130 -26.5t41 -67.5zM628 0h-165v768h165v-768z" />
    <glyph glyph-name="f_f_l" unicode="ffl" horiz-adv-x="1091" 
d="M488 574q-5 30 -5 68q0 67 43.5 107.5t122.5 40.5q88 0 129 -26t41 -68q0 -38 -11 -62l-101 8q4 16 4 29q0 31 -46 31q-19 0 -30 -13.5t-11 -35.5q0 -51 12 -79h120v-94h-106v-480h-165v480h-225v-480h-165v480h-80v94h83q-6 29 -6 68q0 67 44 107.5t122 40.5
q89 0 130 -27t41 -67q0 -32 -11 -62l-101 8q3 12 3 29q0 31 -45 31q-19 0 -30.5 -13.5t-11.5 -35.5q0 -51 12 -79h243zM1019 0h-165v768h165v-768z" />
    <glyph glyph-name="f_f_i" unicode="ffi" horiz-adv-x="1091" 
d="M1021 629h-170v149h170v-149zM488 574q-5 30 -5 68q0 67 43.5 107.5t122.5 40.5q86 0 128 -27t42 -67q0 -38 -11 -62l-101 8q4 16 4 29q0 31 -46 31q-19 0 -30 -13.5t-11 -35.5q0 -51 12 -79h120v-94h-106v-480h-165v480h-225v-480h-165v480h-80v94h83q-6 29 -6 68
q0 67 44 107.5t122 40.5q89 0 130 -26t41 -68q0 -32 -11 -62l-101 8q3 12 3 29q0 31 -45 31q-19 0 -30.5 -13.5t-11.5 -35.5q0 -51 12 -79h243zM1019 0h-165v574h165v-574z" />
    <glyph glyph-name="f_f" unicode="ff" horiz-adv-x="781" 
d="M488 574q-5 30 -5 68q0 67 43.5 107.5t122.5 40.5q83 0 126.5 -28t43.5 -66t-11 -62l-101 8q4 16 4 29q0 31 -46 31q-19 0 -30 -13.5t-11 -35.5q0 -51 12 -79h120v-94h-106v-480h-165v480h-225v-480h-165v480h-80v94h83q-6 29 -6 68q0 67 44 107.5t122 40.5
q84 0 127.5 -27t43.5 -67q0 -32 -11 -62l-101 8q3 12 3 29q0 31 -45 31q-19 0 -30.5 -13.5t-11.5 -35.5q0 -51 12 -79h243z" />
    <glyph glyph-name=".notdef" horiz-adv-x="500" 
 />
    <glyph glyph-name=".null" horiz-adv-x="0" 
 />
    <glyph glyph-name="nonmarkingreturn" horiz-adv-x="333" 
 />
    <glyph glyph-name="space" unicode=" " horiz-adv-x="270" 
 />
    <glyph glyph-name="space" unicode="&#xa0;" horiz-adv-x="270" 
 />
    <glyph glyph-name="exclam" unicode="!" horiz-adv-x="282" 
d="M230 528l-32 -286h-105l-37 286v240h174v-240zM233 0h-180v166h180v-166z" />
    <glyph glyph-name="quotedbl" unicode="&#x22;" horiz-adv-x="511" 
d="M476 768l-34 -319h-112l-33 319h179zM218 768l-35 -319h-111l-33 319h179z" />
    <glyph glyph-name="numbersign" unicode="#" horiz-adv-x="752" 
d="M693 607l-20 -150h-111l-26 -145h110l-22 -150h-110l-26 -162h-112l25 162h-122l-25 -162h-112l26 162h-109l22 150h110l25 145h-108l22 150h109l24 161h113l-26 -161h122l26 161h111l-25 -161h109zM449 457h-121l-24 -145h122z" />
    <glyph glyph-name="dollar" unicode="$" horiz-adv-x="674" 
d="M617 231q0 -219 -252 -229v-92h-71v92q-237 11 -237 164q0 58 17 101l155 11q-8 -27 -8 -77q0 -42 16.5 -64.5t56.5 -23.5v224l-85 30q-78 28 -117.5 74.5t-39.5 126.5q0 78 67.5 139t174.5 61v41h71v-41q101 0 159.5 -51t58.5 -130q0 -32 -10 -56h-155q10 20 10 57
q0 36 -13.5 53.5t-49.5 23.5v-189l87 -32q85 -31 125 -77.5t40 -135.5zM294 496v169q-37 -2 -58.5 -22t-21.5 -51q0 -41 16.5 -61t63.5 -35zM453 212q0 35 -19 60t-69 41v-201q47 2 67.5 25.5t20.5 74.5z" />
    <glyph glyph-name="percent" unicode="%" horiz-adv-x="1072" 
d="M475 514q0 -105 -57 -165t-153 -60q-99 0 -155 56t-56 167q0 268 211 268q102 0 156 -67.5t54 -198.5zM768 780l-391 -796h-68l391 796h68zM1020 214q0 -105 -57 -165t-153 -60q-99 0 -155 56t-56 167q0 268 211 268q102 0 156 -67.5t54 -198.5zM350 529
q0 91 -19.5 125.5t-63.5 34.5q-48 0 -67 -34.5t-19 -125.5q0 -146 84 -146q44 0 64.5 35t20.5 111zM895 229q0 91 -19.5 125.5t-63.5 34.5q-48 0 -67 -34.5t-19 -125.5q0 -146 84 -146q44 0 64.5 35t20.5 111z" />
    <glyph glyph-name="ampersand" unicode="&#x26;" horiz-adv-x="825" 
d="M789 143q0 -68 -38 -111.5t-117 -43.5q-57 0 -88.5 20t-67.5 65q-43 -43 -105.5 -64t-118.5 -21q-103 0 -160.5 63.5t-57.5 155.5t48 153.5t141 106.5q-49 81 -49 149q0 75 50.5 119.5t151.5 44.5q87 0 137 -40.5t50 -107.5q0 -36 -12 -64t-40 -50.5t-50 -35.5t-66 -35
l63 -106q34 -57 57 -92q69 100 112 251h98q-31 -98 -76.5 -190.5t-85.5 -143.5q47 -74 81 -74q16 0 26 6.5t13.5 20t4.5 23t1 25.5q0 42 -9 77h93q14 -63 14 -101zM455 641q0 28 -21.5 44.5t-54.5 16.5q-75 0 -75 -65q0 -33 48 -111q64 39 83.5 61t19.5 54zM430 145l-74 111
q-8 13 -37 57l-43 66q-102 -69 -102 -157q0 -135 138 -135q28 0 61 15.5t57 42.5z" />
    <glyph glyph-name="quotesingle" unicode="'" horiz-adv-x="253" 
d="M218 768l-35 -319h-111l-33 319h179z" />
    <glyph glyph-name="parenleft" unicode="(" horiz-adv-x="418" 
d="M406 -114h-100q-250 153 -250 447q0 150 61 258.5t189 188.5h100q-196 -161 -196 -447q0 -142 45.5 -252t150.5 -195z" />
    <glyph glyph-name="parenright" unicode=")" horiz-adv-x="418" 
d="M362 333q0 -294 -250 -447h-100q105 85 150.5 195t45.5 252q0 286 -196 447h100q127 -80 188.5 -188.5t61.5 -258.5z" />
    <glyph glyph-name="asterisk" unicode="*" horiz-adv-x="425" 
d="M392 567l-50 -77l-85 45v-91h-90v92l-88 -46l-49 77l88 46l-87 45l49 77l87 -45v90h90v-90l85 45l48 -77l-85 -45z" />
    <glyph glyph-name="plus" unicode="+" horiz-adv-x="559" 
d="M511 275h-170v-148h-123v148h-169v120h169v148h123v-148h170v-120z" />
    <glyph glyph-name="comma" unicode="," horiz-adv-x="295" 
d="M243 0q0 -87 -79 -136q-38 -24 -90 -30l-14 51q74 19 82 83q1 11 1 32h-99v175h199v-175z" />
    <glyph glyph-name="hyphen" unicode="-" horiz-adv-x="558" 
d="M503 275h-448v120h448v-120z" />
    <glyph glyph-name="hyphen" unicode="&#xad;" horiz-adv-x="558" 
d="M503 275h-448v120h448v-120z" />
    <glyph glyph-name="period" unicode="." horiz-adv-x="295" 
d="M242 0h-197v175h197v-175z" />
    <glyph glyph-name="slash" unicode="/" horiz-adv-x="524" 
d="M519 768l-402 -768h-113l407 768h108z" />
    <glyph glyph-name="zero" unicode="0" horiz-adv-x="572" 
d="M528 349q0 -185 -58.5 -273t-184.5 -88q-130 0 -185.5 83.5t-55.5 275.5q0 231 50.5 332t190.5 101q129 0 186 -106t57 -325zM365 376q0 122 -9 185.5t-24.5 84.5t-45.5 21q-33 0 -49 -21.5t-23 -82.5t-7 -187q0 -156 15.5 -214.5t62.5 -58.5q48 0 64 55.5t16 217.5z" />
    <glyph glyph-name="one" unicode="1" horiz-adv-x="438" 
d="M361 0h-163v548q-29 -10 -83 -10q-64 0 -96 4v88q83 1 151 44q59 37 84 94h107v-768z" />
    <glyph glyph-name="two" unicode="2" horiz-adv-x="550" 
d="M519 0h-482v133q314 205 314 407q0 72 -17.5 100t-60.5 28q-40 0 -58 -30t-18 -97q0 -15 11 -97h-153q-13 76 -13 121q0 95 60.5 155t171.5 60q243 0 243 -243q0 -114 -87 -219.5t-228 -195.5h317v-122z" />
    <glyph glyph-name="three" unicode="3" horiz-adv-x="550" 
d="M520 253q0 -265 -259 -265q-101 0 -162.5 48.5t-61.5 127.5q0 48 12 92l141 10q-9 -43 -9 -67q0 -52 25.5 -76t66.5 -24q106 0 106 155q0 75 -25.5 107.5t-79.5 32.5q-34 0 -73 -30l-82 74l220 212h-281v118h424v-122l-192 -184q29 15 74 15q62 0 109 -58.5t47 -165.5z
" />
    <glyph glyph-name="four" unicode="4" horiz-adv-x="550" 
d="M530 160h-74v-160h-138v160h-298v149l251 459h185v-488h74v-120zM318 280v306l-181 -306h181z" />
    <glyph glyph-name="five" unicode="5" horiz-adv-x="550" 
d="M520 253q0 -265 -246 -265q-110 0 -170 45.5t-60 132.5q0 36 7 73l148 -1q-5 -30 -5 -52q0 -46 18.5 -69.5t61.5 -23.5q49 0 68 35.5t19 125.5q0 88 -16.5 121t-59.5 33q-39 0 -55.5 -17t-22.5 -48l-148 8l22 417h397l-6 -119h-266l-18 -212q36 80 154 80q88 0 133 -69
t45 -195z" />
    <glyph glyph-name="six" unicode="6" horiz-adv-x="550" 
d="M520 246q0 -258 -234 -258q-57 0 -100.5 19.5t-79 63.5t-54 123t-18.5 191q0 223 56.5 309t198.5 86q100 0 153.5 -46t53.5 -125q0 -22 -5 -44l-142 -5q3 16 3 29q0 40 -22 62.5t-62 22.5q-29 0 -47.5 -12.5t-27 -37.5t-11 -50t-2.5 -62q0 -87 3 -104q57 77 141 77
q92 0 144 -53.5t52 -185.5zM368 248q0 80 -20.5 107t-68.5 27q-50 0 -69.5 -27t-19.5 -107q0 -82 23.5 -117.5t72.5 -35.5q43 0 62.5 35t19.5 118z" />
    <glyph glyph-name="seven" unicode="7" horiz-adv-x="546" 
d="M513 768l-6 -126q-194 -194 -194 -478q0 -116 8 -164h-179q-3 42 -3 78q0 167 75 318.5t172 242.5h-352l10 129h469z" />
    <glyph glyph-name="eight" unicode="8" horiz-adv-x="550" 
d="M520 203q0 -114 -61 -164.5t-185 -50.5q-247 0 -247 215q0 83 33 132.5t82 59.5q-41 9 -69 51.5t-28 105.5q0 110 60.5 169t168.5 59q112 0 173 -60t61 -168q0 -60 -28.5 -104t-74.5 -53q49 -7 82 -58.5t33 -133.5zM349 566q0 111 -75 111q-38 0 -53.5 -28t-15.5 -83
q0 -62 14.5 -93t54.5 -31t57.5 30.5t17.5 93.5zM359 217q0 67 -19 99t-66 32q-48 0 -65.5 -31t-17.5 -100q0 -64 20 -93.5t63 -29.5q45 0 65 29.5t20 93.5z" />
    <glyph glyph-name="nine" unicode="9" horiz-adv-x="550" 
d="M514 382q0 -223 -57 -309t-199 -86q-94 0 -150 47t-56 124q0 22 5 44l142 5q-3 -16 -3 -29q0 -79 83 -79q60 0 75 59q6 23 9 97q4 89 2 104q-57 -77 -142 -77q-92 0 -144 53.5t-52 185.5q0 258 248 258q81 0 131.5 -34.5t79 -123.5t28.5 -239zM357 519q0 79 -20 116
t-66 37q-92 0 -92 -153q0 -74 23 -104t66 -30q44 0 66.5 30t22.5 104z" />
    <glyph glyph-name="colon" unicode=":" horiz-adv-x="295" 
d="M245 359h-197v175h197v-175zM245 0h-197v175h197v-175z" />
    <glyph glyph-name="semicolon" unicode=";" horiz-adv-x="295" 
d="M246 355h-197v175h197v-175zM247 0q0 -88 -79 -136q-36 -24 -90 -30l-13 51q75 19 81 83q1 11 1 32h-99v175h199v-175z" />
    <glyph glyph-name="less" unicode="&#x3c;" horiz-adv-x="481" 
d="M405 124l-337 150v96l337 150v-91l-239 -107l239 -107v-91z" />
    <glyph glyph-name="equal" unicode="=" horiz-adv-x="559" 
d="M498 395h-438v120h438v-120zM498 155h-438v120h438v-120z" />
    <glyph glyph-name="greater" unicode="&#x3e;" horiz-adv-x="481" 
d="M411 274l-336 -150v91l238 107l-238 107v91l336 -150v-96z" />
    <glyph glyph-name="question" unicode="?" horiz-adv-x="526" 
d="M505 548q0 -140 -49.5 -204t-125.5 -64q-73 0 -112 46v-91h-123v220h106q22 -58 73 -58q32 0 44.5 27.5t12.5 118.5q0 72 -17 101t-53 29q-61 0 -61 -67q0 -28 7 -41h-150q-9 25 -9 59q0 68 58 112t171 44q106 0 167 -61t61 -171zM263 0h-190v175h190v-175z" />
    <glyph glyph-name="at" unicode="@" horiz-adv-x="961" 
d="M896 389q0 -152 -57.5 -234.5t-170.5 -82.5q-52 0 -83.5 25t-30.5 57q-20 -26 -36 -40.5t-51 -28t-82 -13.5q-56 0 -93 31t-37 83q0 106 80.5 158.5t218.5 50.5l5 34q5 42 -12.5 63.5t-50.5 21.5q-69 0 -69 -75l1 -16l-118 -11q-3 7 -3 14q0 162 212 162
q96 0 138.5 -49.5t32.5 -110.5l-40 -241q-1 -6 -1 -18q0 -42 46 -42q58 0 92.5 68t34.5 193q0 167 -91 255.5t-245 88.5q-149 0 -244 -119.5t-95 -302.5q0 -194 95.5 -296t257.5 -102q60 0 118.5 24t98.5 61l39 -40q-117 -100 -261 -100q-202 0 -314 118t-112 336
q0 211 112.5 340t313.5 129q185 0 293 -101.5t108 -289.5zM544 332q-29 2 -56.5 -1.5t-54 -15t-42.5 -37.5t-16 -64q0 -33 13 -47.5t41 -14.5q48 0 70.5 23.5t30.5 67.5z" />
    <glyph glyph-name="A" unicode="A" horiz-adv-x="669" 
d="M652 0h-174l-44 157h-209l-40 -157h-169l212 768h211zM399 284l-35 147q-31 123 -36 164q-6 -48 -37 -165l-34 -146h142z" />
    <glyph glyph-name="B" unicode="B" horiz-adv-x="670" 
d="M625 217q0 -62 -20.5 -106t-57 -67t-78 -33.5t-92.5 -10.5h-295v768h260q120 0 188.5 -54t68.5 -147q0 -143 -135 -164q67 -7 114 -55t47 -131zM425 558q0 96 -108 96h-68v-196h70q49 0 77.5 25t28.5 75zM451 230q0 52 -33.5 85t-86.5 33h-82v-233h84q118 0 118 115z" />
    <glyph glyph-name="C" unicode="C" horiz-adv-x="683" 
d="M648 281q6 -139 -63.5 -216t-216.5 -77q-157 0 -240 88.5t-83 293.5q0 215 81 312.5t233 97.5q70 0 123 -17t83.5 -43.5t48.5 -64t23.5 -73.5t3.5 -77l-164 -10q5 88 -23.5 129t-96.5 41q-51 0 -79.5 -24t-42 -86t-13.5 -177q0 -160 31 -216.5t109 -56.5t106 47t21 142z
" />
    <glyph glyph-name="D" unicode="D" horiz-adv-x="712" 
d="M675 362q0 -171 -88.5 -266.5t-247.5 -95.5h-265v768h274q152 0 239.5 -101t87.5 -305zM498 380q0 146 -50 208.5t-140 62.5h-72v-534h85q91 0 134 58t43 205z" />
    <glyph glyph-name="E" unicode="E" horiz-adv-x="609" 
d="M572 0h-490v768h465v-123h-296v-185h266v-130h-266v-206h321v-124z" />
    <glyph glyph-name="F" unicode="F" horiz-adv-x="571" 
d="M535 647h-284v-196h259v-131h-259v-320h-169v768h453v-121z" />
    <glyph glyph-name="G" unicode="G" horiz-adv-x="708" 
d="M645 0h-70l-44 67l-14 -15q-61 -64 -167 -64q-70 0 -122.5 17.5t-95 58.5t-65 116t-22.5 182q0 221 79.5 319.5t232.5 98.5q145 0 216.5 -71.5t66.5 -192.5l-162 -10q7 79 -22.5 122.5t-98.5 43.5q-79 0 -107.5 -64t-28.5 -245q0 -106 15 -165t42.5 -80.5t76.5 -21.5
q71 0 103.5 35t37.5 108l1 32h-129v123h277v-394z" />
    <glyph glyph-name="H" unicode="H" horiz-adv-x="730" 
d="M74 0v768h170v-297h242v297h171v-768h-171v336h-242v-336h-170z" />
    <glyph glyph-name="I" unicode="I" horiz-adv-x="338" 
d="M257 0h-173v768h173v-768z" />
    <glyph glyph-name="J" unicode="J" horiz-adv-x="587" 
d="M510 219q0 -112 -64 -171.5t-194 -59.5q-114 0 -173.5 56.5t-59.5 142.5q0 36 14 71l146 8q-10 -37 -10 -74q0 -42 20 -61t63 -19q45 0 65.5 30t20.5 99v527h172v-549z" />
    <glyph glyph-name="K" unicode="K" horiz-adv-x="689" 
d="M676 0h-198l-225 337v-337h-171v768h171v-298l197 298h185l-243 -356z" />
    <glyph glyph-name="L" unicode="L" horiz-adv-x="564" 
d="M531 0h-449v768h171v-632h278v-136z" />
    <glyph glyph-name="M" unicode="M" horiz-adv-x="921" 
d="M838 0h-155v459l4 128q-19 -90 -28 -128l-109 -459h-180l-108 464l-26 123q4 -75 4 -123v-464h-158v768h244l110 -463l24 -129q14 91 23 129l112 463h243v-768z" />
    <glyph glyph-name="N" unicode="N" horiz-adv-x="720" 
d="M638 0h-153l-217 395l-37 79q4 -59 4 -84v-390h-153v768h153l223 -409l33 -81q-6 62 -6 82v408h153v-768z" />
    <glyph glyph-name="O" unicode="O" horiz-adv-x="723" 
d="M36 385q0 199 86.5 297t238.5 98q325 0 325 -395q0 -208 -84 -302.5t-241 -94.5q-167 0 -246 94.5t-79 302.5zM213 383q0 -153 37 -217t104 -64q78 0 116.5 63t38.5 218q0 285 -154 285q-76 0 -109 -65.5t-33 -219.5z" />
    <glyph glyph-name="P" unicode="P" horiz-adv-x="639" 
d="M615 530q0 -125 -73.5 -183t-199.5 -58h-89v-289h-171v768h241q140 0 216 -55.5t76 -182.5zM434 530q0 121 -108 121h-73v-242h76q48 0 76.5 30t28.5 91z" />
    <glyph glyph-name="Q" unicode="Q" horiz-adv-x="723" 
d="M685 385q0 -195 -71 -287t-206 -102q-23 -14 -23 -36q0 -62 73 -62q41 0 85 47l51 -71q-53 -65 -149 -65q-177 0 -177 138q0 31 19 51q-127 15 -188.5 105.5t-61.5 281.5q0 203 85.5 299t238.5 96q324 0 324 -395zM508 383q0 147 -38.5 216t-114.5 69q-57 0 -88 -34
t-41.5 -92.5t-10.5 -158.5q0 -151 32 -214.5t107 -63.5q81 0 117.5 59.5t36.5 218.5z" />
    <glyph glyph-name="R" unicode="R" horiz-adv-x="678" 
d="M630 0h-177q-24 17 -30 88q-1 12 -1.5 57t-0.5 63q-2 95 -93 95h-75v-303h-171v768h269q131 0 198.5 -58.5t67.5 -170.5q0 -81 -41.5 -117t-111.5 -49q72 -11 101.5 -60t32.5 -147q0 -11 4 -80q2 -25 10 -51t18 -35zM441 538q0 112 -141 112h-47v-221h67q61 0 91 24.5
t30 84.5z" />
    <glyph glyph-name="S" unicode="S" horiz-adv-x="631" 
d="M601 227q0 -239 -286 -239q-130 0 -199 50t-69 140q0 24 10 60l160 5q-10 -28 -10 -52q0 -91 109 -91q121 0 121 96q0 42 -31 71.5t-115 61.5l-113 43q-125 48 -125 192q0 97 67.5 156.5t194.5 59.5q107 0 173 -51t66 -134q0 -25 -10 -53l-150 -4q5 17 5 37
q0 52 -24.5 74t-72.5 22q-44 0 -68.5 -20t-24.5 -54q0 -38 23.5 -60t83.5 -46l126 -51q80 -32 119.5 -87.5t39.5 -125.5z" />
    <glyph glyph-name="T" unicode="T" horiz-adv-x="599" 
d="M573 642h-189v-642h-171v642h-189v126h549v-126z" />
    <glyph glyph-name="U" unicode="U" horiz-adv-x="713" 
d="M640 238q0 -250 -281 -250q-153 0 -215.5 63.5t-62.5 186.5v530h169v-513q0 -77 23 -111.5t88 -34.5q70 0 91.5 36.5t21.5 109.5v513h166v-530z" />
    <glyph glyph-name="V" unicode="V" horiz-adv-x="656" 
d="M639 768l-210 -768h-202l-211 768h173l143 -566h6l133 566h168z" />
    <glyph glyph-name="W" unicode="W" horiz-adv-x="934" 
d="M912 768l-162 -768h-184l-95 510l-104 -510h-182l-163 768h169l88 -518l97 518h190l95 -518l86 518h165z" />
    <glyph glyph-name="X" unicode="X" horiz-adv-x="676" 
d="M654 0h-182l-141 249l-147 -249h-169l235 394l-210 374h183l125 -223l132 223h170l-221 -368z" />
    <glyph glyph-name="Y" unicode="Y" horiz-adv-x="618" 
d="M613 768l-218 -460v-308h-171v308l-219 460h184l129 -296l129 296h166z" />
    <glyph glyph-name="Z" unicode="Z" horiz-adv-x="626" 
d="M569 0h-525v146l351 503h-326v119h500v-140l-354 -509h354v-119z" />
    <glyph glyph-name="bracketleft" unicode="[" horiz-adv-x="428" 
d="M379 -114h-304v882h304v-102h-150v-678h150v-102z" />
    <glyph glyph-name="backslash" unicode="\" horiz-adv-x="524" 
d="M519 0h-112l-403 768h108z" />
    <glyph glyph-name="bracketright" unicode="]" horiz-adv-x="428" 
d="M334 -114h-304v102h149v678h-149v102h304v-882z" />
    <glyph glyph-name="asciicircum" unicode="^" horiz-adv-x="577" 
d="M469 574h-103l-80 104l-79 -104h-103l126 194h112z" />
    <glyph glyph-name="underscore" unicode="_" horiz-adv-x="642" 
d="M642 -200h-642v97h642v-97z" />
    <glyph glyph-name="grave" unicode="`" horiz-adv-x="396" 
d="M333 626h-89l-197 114v11h205z" />
    <glyph glyph-name="a" unicode="a" horiz-adv-x="648" 
d="M627 18q-56 -25 -113 -25q-91 0 -103 71q-54 -76 -182 -76q-92 0 -140.5 46.5t-48.5 126.5q0 64 49.5 106.5t123.5 60.5q137 32 174 60q-1 24 -2 35t-5.5 30t-13 28t-25.5 16.5t-42 7.5q-46 0 -68 -19t-22 -48q0 -20 8 -32l-147 -7q-7 24 -7 49q0 66 63.5 105t179.5 39
q234 0 234 -173v-276q0 -30 15.5 -39t53.5 -9h18v-77zM385 293q-24 -14 -68 -26q-67 -17 -91.5 -44t-24.5 -68q0 -35 24 -53t61 -18q47 0 71 27.5t26 71.5z" />
    <glyph glyph-name="b" unicode="b" horiz-adv-x="659" 
d="M616 289q0 -156 -67 -226t-179 -70q-120 0 -169 87l-60 -80h-68v768h159v-275q42 93 153 93q46 0 85 -14.5t73 -47t53.5 -92.5t19.5 -143zM454 287q0 110 -28.5 149.5t-87.5 39.5q-50 0 -77.5 -49t-27.5 -139q0 -188 106 -188q53 0 84 39.5t31 147.5z" />
    <glyph glyph-name="c" unicode="c" horiz-adv-x="603" 
d="M555 152q0 -61 -67.5 -112.5t-177.5 -51.5q-133 0 -200 65t-67 213q0 167 73 246.5t204 79.5q109 0 166.5 -49.5t57.5 -122.5q0 -35 -3 -48l-152 -4q4 13 4 34q0 83 -81 83q-54 0 -80 -42.5t-26 -141.5q0 -111 25.5 -156t79.5 -45q49 0 71.5 22t22.5 72q0 20 -4 38
l146 -6q8 -30 8 -74z" />
    <glyph glyph-name="d" unicode="d" horiz-adv-x="659" 
d="M586 0h-154v69q-50 -77 -152 -77q-237 0 -237 291q0 141 68 219.5t172 78.5q99 0 144 -76v263h159v-768zM423 286q0 77 -26 139q-23 55 -82 55q-110 0 -110 -193q0 -104 29 -148t83 -44q53 0 79.5 43.5t26.5 147.5z" />
    <glyph glyph-name="e" unicode="e" horiz-adv-x="606" 
d="M562 144q-4 -60 -66.5 -108t-182.5 -48q-270 0 -270 291q0 153 75 233t193 80q103 0 168.5 -59.5t74.5 -175.5q6 -57 -1 -102h-351q-1 -81 29.5 -120.5t81.5 -39.5q92 0 97 70l1 23l150 -10q3 -14 1 -34zM404 348q2 25 -3 45q-14 89 -92 89q-100 0 -107 -134h202z" />
    <glyph glyph-name="f" unicode="f" horiz-adv-x="390" 
d="M429 696q0 -32 -11 -62l-101 8q3 12 3 29q0 31 -45 31q-19 0 -30.5 -13.5t-11.5 -35.5q0 -51 12 -79h120v-94h-105v-480h-165v480h-80v94h83q-6 29 -6 68q0 67 44 107.5t122 40.5q84 0 127.5 -27t43.5 -67z" />
    <glyph glyph-name="g" unicode="g" horiz-adv-x="603" 
d="M596 -10q0 -79 -75.5 -128.5t-230.5 -49.5q-133 0 -201 31.5t-68 87.5q0 69 124 93q-62 4 -89 34.5t-27 68.5q0 41 33 71t97 42q-50 22 -78 65.5t-28 93.5q0 84 68 134.5t181 50.5q49 0 87 -10l17 109h149l-82 -140q80 -44 80 -144q0 -77 -66.5 -131t-158.5 -54
q-65 0 -105 10q-34 -8 -48 -18.5t-14 -25.5q0 -16 20 -20.5t85 -0.5l106 6q110 7 167 -39t57 -136zM394 399q0 105 -92 105q-47 0 -68.5 -26t-21.5 -79q0 -52 24.5 -77.5t65.5 -25.5q47 0 69.5 23.5t22.5 79.5zM475 -31q0 36 -25 45.5t-101 9.5q-58 0 -126 -8
q-34 -10 -55 -27.5t-21 -35.5q0 -31 31 -44.5t116 -13.5q181 0 181 74z" />
    <glyph glyph-name="h" unicode="h" horiz-adv-x="657" 
d="M586 0h-165v350q0 67 -15.5 92t-64.5 25q-103 0 -103 -169v-298h-165v768h159v-295q47 112 183 112q171 0 171 -164v-421z" />
    <glyph glyph-name="i" unicode="i" horiz-adv-x="310" 
d="M240 629h-170v149h170v-149zM238 0h-165v574h165v-574z" />
    <glyph glyph-name="j" unicode="j" horiz-adv-x="310" 
d="M241 629h-171v149h171v-149zM238 -27q0 -75 -44.5 -114t-131.5 -39q-68 0 -120 28t-52 84q0 26 17 45l94 -9q-2 -8 -2 -21q0 -19 16.5 -29t35.5 -10q45 0 45 32q0 6 -12 49q-11 33 -11 72v513h165v-601z" />
    <glyph glyph-name="k" unicode="k" horiz-adv-x="586" 
d="M576 0h-166l-124 256l-54 -64v-192h-159v768h159v-398l154 204h167l-169 -203z" />
    <glyph glyph-name="l" unicode="l" horiz-adv-x="310" 
d="M238 0h-165v768h165v-768z" />
    <glyph glyph-name="m" unicode="m" horiz-adv-x="983" 
d="M913 0h-165v350q0 68 -16.5 92.5t-58.5 24.5q-48 0 -73 -46t-25 -123v-298h-165v350q0 68 -16.5 92.5t-62.5 24.5q-42 0 -67.5 -44.5t-25.5 -124.5v-298h-165v574h163v-98q52 109 172 109q70 0 110.5 -24.5t54.5 -84.5q28 57 70.5 83t107.5 26q83 0 122.5 -40.5
t39.5 -123.5v-421z" />
    <glyph glyph-name="n" unicode="n" horiz-adv-x="657" 
d="M64 0v574h160v-98q51 109 191 109q85 0 132.5 -42t47.5 -122v-421h-165v350q0 67 -20 92t-69 25q-51 0 -81.5 -44.5t-30.5 -124.5v-298h-165z" />
    <glyph glyph-name="o" unicode="o" horiz-adv-x="631" 
d="M34 278q0 149 77.5 231.5t204.5 82.5q128 0 204.5 -85t76.5 -229t-75.5 -217t-205.5 -73q-135 0 -208.5 72.5t-73.5 217.5zM197 282q0 -182 119 -182q64 0 91 44t27 138q0 110 -29.5 156.5t-88.5 46.5q-119 0 -119 -203z" />
    <glyph glyph-name="p" unicode="p" horiz-adv-x="659" 
d="M625 289q0 -152 -71 -224t-184 -72q-97 0 -147 68v-225h-159v738h155v-89q13 43 57 72t103 29q47 0 88 -14.5t78 -47t58.5 -93t21.5 -142.5zM463 287q0 104 -31.5 145t-93.5 41q-115 0 -115 -185q0 -186 121 -186q119 0 119 185z" />
    <glyph glyph-name="q" unicode="q" horiz-adv-x="659" 
d="M586 -164h-159v228q-42 -73 -145 -73q-107 0 -173 72.5t-66 212.5q0 148 69.5 226.5t178.5 78.5q112 0 156 -83l51 76h88v-738zM426 289q0 187 -116 187q-105 0 -105 -194q0 -101 27.5 -146t84.5 -45q52 0 80.5 45.5t28.5 152.5z" />
    <glyph glyph-name="r" unicode="r" horiz-adv-x="560" 
d="M550 423l-135 -51q3 12 3 23q0 27 -18.5 44.5t-54.5 17.5q-107 0 -107 -146v-311h-165v574h161v-93q18 41 58.5 73.5t102.5 32.5q52 0 86.5 -17t48 -45t17.5 -51.5t3 -50.5z" />
    <glyph glyph-name="s" unicode="s" horiz-adv-x="565" 
d="M531 170q0 -84 -63 -133t-184 -49q-116 0 -183.5 41.5t-67.5 105.5q0 27 15 64l143 -9q-6 -17 -6 -37q0 -30 24.5 -48t74.5 -18q40 0 60 18t20 48q0 57 -85 81l-88 25q-74 21 -112 58t-38 106q0 76 66.5 122.5t166.5 46.5q107 0 169 -39t62 -99q0 -22 -8 -36l-152 -8
q7 11 7 31q0 53 -78 53q-39 0 -56.5 -17t-17.5 -42q0 -19 16 -32.5t60 -25.5l94 -26q84 -24 122.5 -66t38.5 -115z" />
    <glyph glyph-name="t" unicode="t" horiz-adv-x="476" 
d="M456 28q-73 -35 -172 -35q-84 0 -133 41t-49 125v319h-95v96h95v158h161v-158h163v-96h-163v-317q0 -35 18.5 -49t62.5 -14q50 0 112 26v-96z" />
    <glyph glyph-name="u" unicode="u" horiz-adv-x="657" 
d="M584 0h-161v99q-22 -50 -68.5 -80t-112.5 -30q-81 0 -126.5 40.5t-45.5 136.5v408h165v-350q0 -64 15 -90.5t66 -26.5q50 0 76.5 43.5t26.5 125.5v298h165v-574z" />
    <glyph glyph-name="v" unicode="v" horiz-adv-x="596" 
d="M577 574l-190 -574h-185l-194 574h183l106 -434l108 434h172z" />
    <glyph glyph-name="w" unicode="w" horiz-adv-x="843" 
d="M835 574l-166 -574h-137l-110 361l-104 -361h-142l-168 574h178l75 -368l98 368h129l114 -368l62 368h171z" />
    <glyph glyph-name="x" unicode="x" horiz-adv-x="596" 
d="M591 0h-193l-108 199l-113 -199h-172l208 297l-187 277h192l88 -170l95 170h170l-187 -271z" />
    <glyph glyph-name="y" unicode="y" horiz-adv-x="585" 
d="M577 574l-194 -579q-33 -96 -83.5 -135.5t-147.5 -39.5q-79 0 -125.5 35.5t-46.5 88.5q0 21 6 35h126q-3 -12 -3 -24q0 -36 47 -36q35 0 48 20t1 58l-197 577h184l106 -450l110 450h169z" />
    <glyph glyph-name="z" unicode="z" horiz-adv-x="564" 
d="M511 0h-471v129l298 329h-283v116h456v-136l-298 -322h298v-116z" />
    <glyph glyph-name="braceleft" unicode="{" horiz-adv-x="420" 
d="M374 -114h-116q-72 0 -104 29t-32 104v237q0 30 -11 41t-42 11h-27v90h27q36 0 44.5 10.5t8.5 48.5v175q0 66 31 101t105 35h116v-98h-55q-22 0 -32.5 -16.5t-10.5 -37.5v-180q0 -73 -68 -83q68 -11 68 -89v-226q0 -54 43 -54h55v-98z" />
    <glyph glyph-name="bar" unicode="|" horiz-adv-x="267" 
d="M191 -200h-115v1000h115v-1000z" />
    <glyph glyph-name="braceright" unicode="}" horiz-adv-x="420" 
d="M390 308h-27q-31 0 -42 -11t-11 -41v-237q0 -75 -32 -104t-104 -29h-116v98h55q43 0 43 54v226q0 78 68 89q-35 6 -51.5 25.5t-16.5 57.5v180q0 21 -10.5 37.5t-32.5 16.5h-55v98h116q74 0 105 -35t31 -101v-175q0 -37 9 -48t44 -11h27v-90z" />
    <glyph glyph-name="asciitilde" unicode="~" horiz-adv-x="577" 
d="M504 699q0 -47 -30.5 -73t-89.5 -26q-53 0 -101 33l-30 22q-34 23 -59 23q-48 0 -48 -41q0 -11 5 -24h-56q-14 22 -14 61q0 99 109 99q58 0 117 -39l32 -21q29 -19 50 -19q32 0 43 20.5t2 49.5h55q15 -26 15 -65z" />
    <glyph glyph-name="exclamdown" unicode="&#xa1;" horiz-adv-x="282" 
d="M233 602h-180v166h180v-166zM230 0h-174v240l37 286h105l32 -286v-240z" />
    <glyph glyph-name="cent" unicode="&#xa2;" horiz-adv-x="604" 
d="M553 292q0 -63 -56 -117.5t-153 -61.5v-71h-66v71q-233 13 -233 277q0 156 64 235t169 89v54h66v-53q98 -5 148 -54.5t50 -126.5q0 -28 -3 -48l-150 -4q4 15 4 34q0 45 -11.5 66.5t-37.5 24.5v-386q35 4 48 29t13 84q0 28 -6 41l145 -6q9 -29 9 -77zM278 221v387
q-36 -5 -53 -45.5t-17 -137.5q0 -114 14.5 -156.5t55.5 -47.5z" />
    <glyph glyph-name="sterling" unicode="&#xa3;" horiz-adv-x="672" 
d="M668 187q0 -100 -53.5 -149.5t-138.5 -49.5q-63 0 -108 12.5t-102 40.5q-64 -52 -143 -52q-49 0 -80 25.5t-31 63.5q0 52 36 84t89 32q63 0 103 -20q13 26 13 60q0 46 -10 80h-125v114h85q-36 61 -36 131q0 102 63.5 161.5t172.5 59.5q102 0 162.5 -51t60.5 -152
q0 -34 -8 -56l-160 -13q7 39 7 74q0 42 -14 63t-51 21q-31 0 -50.5 -21t-19.5 -58q0 -87 36 -159h139v-114h-112q4 -22 4 -48q0 -77 -46 -131q55 -22 94 -22q41 0 54.5 23.5t13.5 79.5l-3 36l149 -17q9 -34 9 -48zM185 75q-4 1 -13 5t-14 6t-14.5 4t-19.5 2q-28 0 -28 -23
q0 -17 26 -17q37 0 63 23z" />
    <glyph glyph-name="currency" unicode="&#xa4;" horiz-adv-x="602" 
d="M243 400v-71h135v-77h-133q2 -82 20.5 -115.5t62.5 -33.5q93 0 80 171l159 -11q6 -136 -55.5 -205.5t-187.5 -69.5q-113 0 -170 62.5t-70 201.5h-70v77h66q0 48 1 71h-67v77h71q16 171 77.5 237t181.5 66q116 0 167 -74t49 -195l-164 -6q7 93 -7 127.5t-58 34.5
q-33 0 -49.5 -12.5t-26.5 -54t-11 -123.5h134v-77h-135z" />
    <glyph glyph-name="yen" unicode="&#xa5;" horiz-adv-x="618" 
d="M613 768l-107 -225h85v-85h-126l-47 -101h173v-85h-196v-272h-171v272h-210v85h187l-48 101h-139v85h98l-107 225h184l129 -296l129 296h166z" />
    <glyph glyph-name="brokenbar" unicode="&#xa6;" horiz-adv-x="267" 
d="M76 333v467h115v-467h-115zM76 -200v467h115v-467h-115z" />
    <glyph glyph-name="section" unicode="&#xa7;" horiz-adv-x="572" 
d="M530 103q0 -90 -63 -137.5t-186 -47.5q-114 0 -177 38.5t-63 108.5q0 35 16 71l128 -7q-7 -33 -7 -38q0 -82 98 -82q104 0 104 76q0 33 -19 50.5t-86 37.5l-84 25q-71 21 -107 56t-36 99q0 83 83 122q-39 19 -61 49t-22 87q0 83 61.5 126t162.5 43q107 0 170 -38t63 -104
q0 -19 -8 -41l-138 -8q8 27 8 38q0 63 -93 63q-46 0 -66 -18.5t-20 -45.5q0 -26 16.5 -40t68.5 -29l90 -26q83 -24 125 -63.5t42 -106.5q0 -47 -18 -74.5t-52 -48.5q70 -50 70 -135zM380 339q0 29 -10.5 43t-34.5 22l-77 25q-70 -5 -70 -63q0 -21 12 -31.5t39 -18.5l107 -31
q34 19 34 54z" />
    <glyph glyph-name="dieresis" unicode="&#xa8;" horiz-adv-x="396" 
d="M408 626h-150v126h150v-126zM133 626h-148v126h148v-126z" />
    <glyph glyph-name="copyright" unicode="&#xa9;" horiz-adv-x="779" 
d="M743 397q-2 -146 -105 -250.5t-247 -104.5q-146 0 -250 104.5t-104 250.5q0 147 103.5 251t250.5 104q145 0 248.5 -104.5t103.5 -250.5zM680 397q0 121 -85 209.5t-204 88.5q-120 0 -206 -88.5t-86 -209.5q0 -123 85.5 -210t206.5 -87q120 0 204.5 87t84.5 210zM530 339
q5 -157 -135 -157q-82 0 -119 45.5t-37 157.5q0 117 37 168t114 51q144 0 137 -147l-79 -5q4 90 -58 90q-37 0 -52 -31.5t-15 -121.5q0 -84 15.5 -114.5t52.5 -30.5q38 0 51.5 25.5t10.5 76.5z" />
    <glyph glyph-name="ordfeminine" unicode="&#xaa;" horiz-adv-x="514" 
d="M445 427q-41 -16 -70 -16q-54 0 -63 45q-34 -47 -113 -47q-58 0 -86 28.5t-28 77.5q0 41 29 67t76 36q76 17 108 37q0 18 -1.5 27t-6.5 21.5t-16.5 18t-30.5 5.5q-54 0 -54 -41q0 -14 3 -20l-89 -4q-6 12 -6 30q0 41 39.5 64.5t110.5 23.5q148 0 148 -106v-170
q0 -16 7 -22.5t31 -6.5h12v-48zM443 319h-356v55h356v-55zM297 597q-18 -10 -42 -17q-42 -11 -57.5 -27t-15.5 -41q0 -22 15.5 -33t38.5 -11q28 0 43 17.5t16 43.5z" />
    <glyph glyph-name="guillemotleft" unicode="&#xab;" horiz-adv-x="694" 
d="M643 36l-290 173v135l290 171v-120l-200 -119l200 -120v-120zM349 36l-289 173v135l289 171v-120l-197 -119l197 -120v-120z" />
    <glyph glyph-name="logicalnot" unicode="&#xac;" 
d="M593 331q0 -111 -79 -189.5t-190 -78.5t-190 78.5t-79 189.5t79 190t190 79t190 -79t79 -190zM535 330l-101 76l-52 128l-76 -93l-155 29l57 -106l-88 -110l190 -15l53 -111l55 118z" />
    <glyph glyph-name="registered" unicode="&#xae;" horiz-adv-x="779" 
d="M743 397q0 -146 -103.5 -250.5t-248.5 -104.5q-146 0 -250 104.5t-104 250.5q0 147 103.5 251t250.5 104q145 0 248.5 -104.5t103.5 -250.5zM680 397q0 121 -85 209.5t-204 88.5q-120 0 -206 -88.5t-86 -209.5q0 -123 85.5 -210t206.5 -87q120 0 204.5 87t84.5 210z
M530 468q0 -38 -22 -63.5t-63 -29.5q18 -2 31 -6.5t21 -16t12.5 -19t6.5 -28.5t2.5 -31.5t1.5 -40.5q0 -25 6 -45h-77q-7 26 -7 49v69q0 20 -11.5 30.5t-29.5 10.5h-60v-159h-79v407h144q124 0 124 -127zM441 467q0 72 -41 72h-59v-137h60q40 0 40 65z" />
    <glyph glyph-name="macron" unicode="&#xaf;" horiz-adv-x="396" 
d="M342 643h-288v86h288v-86z" />
    <glyph glyph-name="macron" unicode="&#x2c9;" horiz-adv-x="396" 
d="M342 643h-288v86h288v-86z" />
    <glyph glyph-name="degree" unicode="&#xb0;" horiz-adv-x="473" 
d="M385 645q0 -56 -43.5 -95.5t-105.5 -39.5t-105 39.5t-43 95.5t43 95.5t105 39.5t105.5 -39.5t43.5 -95.5zM310 645q0 28 -21 48.5t-53 20.5q-33 0 -53 -20t-20 -49t20.5 -49t52.5 -20t53 20.5t21 48.5z" />
    <glyph glyph-name="plusminus" unicode="&#xb1;" horiz-adv-x="1091" 
d="M488 574q-5 30 -5 68q0 67 43.5 107.5t122.5 40.5q88 0 129 -26t41 -68q0 -38 -11 -62l-101 8q4 16 4 29q0 31 -46 31q-19 0 -30 -13.5t-11 -35.5q0 -51 12 -79h120v-94h-106v-480h-165v480h-225v-480h-165v480h-80v94h83q-6 29 -6 68q0 67 44 107.5t122 40.5
q89 0 130 -27t41 -67q0 -32 -11 -62l-101 8q3 12 3 29q0 31 -45 31q-19 0 -30.5 -13.5t-11.5 -35.5q0 -51 12 -79h243zM1019 0h-165v768h165v-768z" />
    <glyph glyph-name="twosuperior" unicode="&#xb2;" horiz-adv-x="376" 
d="M26 280l-1 86l34.5 24t42 30t36 29t36.5 34q61 68 61 137q0 39 -12.5 55.5t-38.5 16.5t-38 -17t-12 -56q0 -38 11 -71l-106 -5q-13 36 -13 90q0 65 41.5 103t120.5 38q165 0 165 -150q0 -88 -93 -179q-42 -39 -96 -71q8 1 45 1l142 1v-96h-325z" />
    <glyph glyph-name="threesuperior" unicode="&#xb3;" horiz-adv-x="372" 
d="M178 274q-79 0 -117.5 35.5t-38.5 92.5q0 37 7 55l108 7q-6 -20 -6 -46q0 -56 50 -56q56 0 56 79q0 81 -48 81q-38 0 -56 -18l-48 67l120 103h-169v94h295v-91l-115 -96q10 6 27 6q109 -2 109 -149q0 -81 -44.5 -122.5t-129.5 -41.5z" />
    <glyph glyph-name="acute" unicode="&#xb4;" horiz-adv-x="396" 
d="M362 740l-197 -114h-89l81 125h205v-11z" />
    <glyph glyph-name="mu" unicode="&#xb5;" 
d="M593 331q0 -111 -79 -189.5t-190 -78.5t-190 78.5t-79 189.5t79 190t190 79t190 -79t79 -190zM535 330l-101 76l-52 128l-76 -93l-155 29l57 -106l-88 -110l190 -15l53 -111l55 118z" />
    <glyph glyph-name="mu" unicode="&#x3bc;" 
d="M593 331q0 -111 -79 -189.5t-190 -78.5t-190 78.5t-79 189.5t79 190t190 79t190 -79t79 -190zM535 330l-101 76l-52 128l-76 -93l-155 29l57 -106l-88 -110l190 -15l53 -111l55 118z" />
    <glyph glyph-name="paragraph" unicode="&#xb6;" horiz-adv-x="685" 
d="M608 -47h-117v741h-50v-741h-118v321h-89q-36 0 -70.5 12.5t-67 38t-52.5 74.5t-20 113q0 68 20 120t53.5 80.5t70 42t75.5 13.5h365v-815zM323 351v343h-12q-35 0 -48 -36.5t-13 -145.5q0 -91 12.5 -126t46.5 -35h14z" />
    <glyph glyph-name="periodcentered" unicode="&#xb7;" horiz-adv-x="331" 
d="M266 386q0 -38 -30 -65t-71 -27t-71 27t-30 65t30 65t71 27t71 -27t30 -65z" />
    <glyph glyph-name="periodcentered" unicode="&#x2219;" horiz-adv-x="331" 
d="M266 386q0 -38 -30 -65t-71 -27t-71 27t-30 65t30 65t71 27t71 -27t30 -65z" />
    <glyph glyph-name="cedilla" unicode="&#xb8;" horiz-adv-x="396" 
d="M334 -108q0 -43 -38 -67.5t-107 -24.5q-109 0 -162 36l41 54q51 -32 117 -32q42 0 42 31q0 24 -29 30t-64 -7l23 68h48q60 0 94.5 -24.5t34.5 -63.5z" />
    <glyph glyph-name="onesuperior" unicode="&#xb9;" horiz-adv-x="289" 
d="M113 285v351q-16 -11 -62 -11q-29 0 -45 2v73q47 0 85 20q37 20 54 54h82v-489h-114z" />
    <glyph glyph-name="ordmasculine" unicode="&#xba;" horiz-adv-x="514" 
d="M425 586q0 -91 -44 -136t-124 -45q-82 0 -124.5 46t-42.5 135q0 92 43.5 143t123.5 51q81 0 124.5 -53t43.5 -141zM425 319h-335v55h335v-55zM326 588q0 126 -69 126q-68 0 -68 -126q0 -114 68 -114q38 0 53.5 28.5t15.5 85.5z" />
    <glyph glyph-name="guillemotright" unicode="&#xbb;" horiz-adv-x="694" 
d="M634 210l-289 -173v120l197 120l-197 119v120l289 -171v-135zM341 210l-290 -173v120l200 120l-200 119v120l290 -171v-135z" />
    <glyph glyph-name="onequarter" unicode="&#xbc;" horiz-adv-x="874" 
d="M113 285v351q-16 -11 -62 -11q-29 0 -45 2v73q46 0 86 21q38 19 53 53h82v-489h-114zM78 -6l583 788h101l-583 -788h-101zM679 0v98h-199v103l177 286h133v-298h57v-91h-57v-98h-111zM574 189h105v131q0 38 1 50l-27 -46z" />
    <glyph glyph-name="onehalf" unicode="&#xbd;" horiz-adv-x="922" 
d="M113 285v351q-16 -11 -62 -11q-29 0 -45 2v73q47 0 85 20q37 20 54 54h82v-489h-114zM71 -6l583 788h101l-582 -788h-102zM545 0l-1 85q10 8 44.5 32t60 44.5t44.5 41.5q61 68 61 137q0 39 -12.5 55.5t-39.5 16.5q-50 0 -50 -74q0 -36 12 -70l-107 -6q-12 42 -12 90
q0 66 41.5 104t119.5 38q166 0 166 -151q0 -82 -85 -169q-45 -45 -104 -80q8 1 44 1l143 1v-96h-325z" />
    <glyph glyph-name="threequarters" unicode="&#xbe;" horiz-adv-x="949" 
d="M179 274q-78 0 -117 35.5t-39 92.5q0 37 7 55l109 7q-7 -18 -7 -46q0 -56 50 -56q56 0 56 79q0 81 -48 81q-38 0 -56 -18l-48 67l120 103h-169v94h295v-91l-115 -96q11 6 27 6q110 -2 110 -149q0 -81 -45 -122.5t-130 -41.5zM150 -6l584 788h101l-583 -788h-102zM753 0
v98h-198v103l176 286h134v-298h57v-91h-57v-98h-112zM649 189h104v138q0 31 2 43l-23 -39z" />
    <glyph glyph-name="questiondown" unicode="&#xbf;" horiz-adv-x="526" 
d="M466 593h-190v175h190v-175zM491 144q0 -68 -58 -112t-171 -44q-114 0 -171 60t-57 172q0 144 44.5 206t130.5 62q73 0 112 -46v91h123v-220h-106q-22 58 -73 58q-22 0 -33 -9.5t-17.5 -41.5t-6.5 -95q0 -76 16.5 -103t53.5 -27q61 0 61 67q0 28 -7 41h150q9 -25 9 -59z
" />
    <glyph glyph-name="Agrave" unicode="&#xc0;" horiz-adv-x="669" 
d="M652 0h-174l-44 157h-209l-40 -157h-169l212 768h211zM399 284l-35 147q-31 123 -36 164q-6 -48 -37 -165l-34 -146h142zM386 806h-89l-197 114v11h205z" />
    <glyph glyph-name="Aacute" unicode="&#xc1;" horiz-adv-x="669" 
d="M652 0h-174l-44 157h-209l-40 -157h-169l212 768h211zM399 284l-35 147q-31 123 -36 164q-6 -48 -37 -165l-34 -146h142zM567 920l-197 -114h-89l81 125h205v-11z" />
    <glyph glyph-name="Acircumflex" unicode="&#xc2;" horiz-adv-x="669" 
d="M652 0h-174l-44 157h-209l-40 -157h-169l212 768h211zM399 284l-35 147q-31 123 -36 164q-6 -48 -37 -165l-34 -146h142zM493 806h-74l-88 52l-88 -52h-74l89 125h146z" />
    <glyph glyph-name="Atilde" unicode="&#xc3;" horiz-adv-x="669" 
d="M652 0h-174l-44 157h-209l-40 -157h-169l212 768h211zM399 284l-35 147q-31 123 -36 164q-6 -48 -37 -165l-34 -146h142zM497 885q0 -80 -98 -80q-51 0 -98 29q-39 25 -56 25q-29 0 -29 -23q0 -11 4 -25h-67q-12 19 -12 56q0 80 94 80q27 0 45.5 -7t49.5 -26
q38 -25 62 -25q29 0 29 28q0 12 -5 24h67q14 -26 14 -56z" />
    <glyph glyph-name="Adieresis" unicode="&#xc4;" horiz-adv-x="669" 
d="M652 0h-174l-44 157h-209l-40 -157h-169l212 768h211zM399 284l-35 147q-31 123 -36 164q-6 -48 -37 -165l-34 -146h142zM545 806h-150v126h150v-126zM270 806h-148v126h148v-126z" />
    <glyph glyph-name="Aring" unicode="&#xc5;" horiz-adv-x="669" 
d="M652 0h-174l-44 157h-209l-40 -157h-169l200 724q-35 38 -35 86q0 56 44 96t106 40t106 -40t44 -96q0 -46 -31 -82zM405 810q0 28 -21.5 48.5t-52.5 20.5t-52.5 -20.5t-21.5 -48.5t21.5 -48.5t52.5 -20.5t52.5 20.5t21.5 48.5zM399 284l-35 147q-31 123 -36 164
q-6 -48 -37 -165l-34 -146h142z" />
    <glyph glyph-name="AE" unicode="&#xc6;" horiz-adv-x="954" 
d="M916 0h-484v157h-182l-65 -157h-169l326 768h549v-123h-296v-185h266v-130h-266v-206h321v-124zM432 284v352l-139 -352h139z" />
    <glyph glyph-name="Ccedilla" unicode="&#xc7;" horiz-adv-x="683" 
d="M648 281q6 -139 -63.5 -216t-216.5 -77q-157 0 -240 88.5t-83 293.5q0 215 81 312.5t233 97.5q70 0 123 -17t83.5 -43.5t48.5 -64t23.5 -73.5t3.5 -77l-164 -10q5 88 -23.5 129t-96.5 41q-51 0 -79.5 -24t-42 -86t-13.5 -177q0 -160 31 -216.5t109 -56.5t106 47t21 142z
M478 -114q0 -43 -38 -67.5t-107 -24.5q-109 0 -162 36l41 54q51 -32 117 -32q42 0 42 31q0 24 -29 30t-64 -7l23 68h48q60 0 94.5 -24.5t34.5 -63.5z" />
    <glyph glyph-name="Egrave" unicode="&#xc8;" horiz-adv-x="609" 
d="M572 0h-490v768h465v-123h-296v-185h266v-130h-266v-206h321v-124zM396 806h-89l-197 114v11h205z" />
    <glyph glyph-name="Eacute" unicode="&#xc9;" horiz-adv-x="609" 
d="M572 0h-490v768h465v-123h-296v-185h266v-130h-266v-206h321v-124zM535 920l-197 -114h-89l81 125h205v-11z" />
    <glyph glyph-name="Ecircumflex" unicode="&#xca;" horiz-adv-x="609" 
d="M572 0h-490v768h465v-123h-296v-185h266v-130h-266v-206h321v-124zM490 806h-74l-88 52l-88 -52h-74l89 125h146z" />
    <glyph glyph-name="Edieresis" unicode="&#xcb;" horiz-adv-x="609" 
d="M572 0h-490v768h465v-123h-296v-185h266v-130h-266v-206h321v-124zM526 806h-150v126h150v-126zM251 806h-148v126h148v-126z" />
    <glyph glyph-name="Igrave" unicode="&#xcc;" horiz-adv-x="338" 
d="M257 0h-173v768h173v-768zM223 806h-89l-197 114v11h205z" />
    <glyph glyph-name="Iacute" unicode="&#xcd;" horiz-adv-x="338" 
d="M257 0h-173v768h173v-768zM406 920l-197 -114h-89l81 125h205v-11z" />
    <glyph glyph-name="Icircumflex" unicode="&#xce;" horiz-adv-x="338" 
d="M257 0h-173v768h173v-768zM333 806h-74l-88 52l-88 -52h-74l89 125h146z" />
    <glyph glyph-name="Idieresis" unicode="&#xcf;" horiz-adv-x="338" 
d="M257 0h-173v768h173v-768zM382 806h-150v126h150v-126zM107 806h-148v126h148v-126z" />
    <glyph glyph-name="Eth" unicode="&#xd0;" horiz-adv-x="712" 
d="M678 362q0 -172 -85 -267t-243 -95h-257v308h-57v122h57v338h266q147 0 233 -101.5t86 -304.5zM500 380q0 271 -181 271h-63v-221h143v-122h-143v-191h76q84 0 126 58.5t42 204.5z" />
    <glyph glyph-name="Ntilde" unicode="&#xd1;" horiz-adv-x="720" 
d="M638 0h-153l-217 395l-37 79q4 -59 4 -84v-390h-153v768h153l223 -409l33 -81q-6 62 -6 82v408h153v-768zM529 886q0 -80 -98 -80q-51 0 -98 29q-39 25 -56 25q-29 0 -29 -23q0 -11 4 -25h-67q-12 19 -12 56q0 80 94 80q27 0 45.5 -7t49.5 -26q38 -25 62 -25q29 0 29 28
q0 12 -5 24h67q14 -26 14 -56z" />
    <glyph glyph-name="Ograve" unicode="&#xd2;" horiz-adv-x="723" 
d="M36 385q0 199 86.5 297t238.5 98q325 0 325 -395q0 -208 -84 -302.5t-241 -94.5q-167 0 -246 94.5t-79 302.5zM213 383q0 -153 37 -217t104 -64q78 0 116.5 63t38.5 218q0 285 -154 285q-76 0 -109 -65.5t-33 -219.5zM435 806h-89l-197 114v11h205z" />
    <glyph glyph-name="Oacute" unicode="&#xd3;" horiz-adv-x="723" 
d="M36 385q0 199 86.5 297t238.5 98q325 0 325 -395q0 -208 -84 -302.5t-241 -94.5q-167 0 -246 94.5t-79 302.5zM213 383q0 -153 37 -217t104 -64q78 0 116.5 63t38.5 218q0 285 -154 285q-76 0 -109 -65.5t-33 -219.5zM579 920l-197 -114h-89l81 125h205v-11z" />
    <glyph glyph-name="Ocircumflex" unicode="&#xd4;" horiz-adv-x="723" 
d="M36 385q0 199 86.5 297t238.5 98q325 0 325 -395q0 -208 -84 -302.5t-241 -94.5q-167 0 -246 94.5t-79 302.5zM213 383q0 -153 37 -217t104 -64q78 0 116.5 63t38.5 218q0 285 -154 285q-76 0 -109 -65.5t-33 -219.5zM521 806h-74l-88 52l-88 -52h-74l89 125h146z" />
    <glyph glyph-name="Otilde" unicode="&#xd5;" horiz-adv-x="723" 
d="M36 385q0 199 86.5 297t238.5 98q325 0 325 -395q0 -208 -84 -302.5t-241 -94.5q-167 0 -246 94.5t-79 302.5zM213 383q0 -153 37 -217t104 -64q78 0 116.5 63t38.5 218q0 285 -154 285q-76 0 -109 -65.5t-33 -219.5zM534 885q0 -80 -98 -80q-51 0 -98 29q-39 25 -56 25
q-29 0 -29 -23q0 -11 4 -25h-67q-12 19 -12 56q0 80 94 80q27 0 45.5 -7t49.5 -26q38 -25 62 -25q29 0 29 28q0 12 -5 24h67q14 -26 14 -56z" />
    <glyph glyph-name="Odieresis" unicode="&#xd6;" horiz-adv-x="723" 
d="M36 385q0 199 86.5 297t238.5 98q325 0 325 -395q0 -208 -84 -302.5t-241 -94.5q-167 0 -246 94.5t-79 302.5zM213 383q0 -153 37 -217t104 -64q78 0 116.5 63t38.5 218q0 285 -154 285q-76 0 -109 -65.5t-33 -219.5zM571 806h-150v126h150v-126zM296 806h-148v126h148
v-126z" />
    <glyph glyph-name="multiply" unicode="&#xd7;" horiz-adv-x="541" 
d="M355 334l121 -121l-84 -84l-122 121l-121 -121l-84 84l121 121l-121 121l85 85l120 -121l121 121l85 -85z" />
    <glyph glyph-name="Oslash" unicode="&#xd8;" horiz-adv-x="723" 
d="M696 780l-81 -111q63 -95 63 -284q0 -397 -317 -397q-123 0 -189 41l-30 -41h-90l63 90q-70 89 -70 307q0 200 82.5 297.5t233.5 97.5q134 0 207 -59l42 59h86zM473 591q-32 77 -118 77q-83 0 -108 -60t-25 -225q0 -98 9 -148zM500 383q0 60 -5 113l-237 -349
q30 -45 96 -45q54 0 84 22.5t46 84.5t16 174z" />
    <glyph glyph-name="Ugrave" unicode="&#xd9;" horiz-adv-x="713" 
d="M640 238q0 -250 -281 -250q-153 0 -215.5 63.5t-62.5 186.5v530h169v-513q0 -77 23 -111.5t88 -34.5q70 0 91.5 36.5t21.5 109.5v513h166v-530zM426 806h-89l-197 114v11h205z" />
    <glyph glyph-name="Uacute" unicode="&#xda;" horiz-adv-x="713" 
d="M640 238q0 -250 -281 -250q-153 0 -215.5 63.5t-62.5 186.5v530h169v-513q0 -77 23 -111.5t88 -34.5q70 0 91.5 36.5t21.5 109.5v513h166v-530zM580 920l-197 -114h-89l81 125h205v-11z" />
    <glyph glyph-name="Ucircumflex" unicode="&#xdb;" horiz-adv-x="713" 
d="M640 238q0 -250 -281 -250q-153 0 -215.5 63.5t-62.5 186.5v530h169v-513q0 -77 23 -111.5t88 -34.5q70 0 91.5 36.5t21.5 109.5v513h166v-530zM527 806h-74l-88 52l-88 -52h-74l89 125h146z" />
    <glyph glyph-name="Udieresis" unicode="&#xdc;" horiz-adv-x="713" 
d="M640 238q0 -250 -281 -250q-153 0 -215.5 63.5t-62.5 186.5v530h169v-513q0 -77 23 -111.5t88 -34.5q70 0 91.5 36.5t21.5 109.5v513h166v-530zM574 806h-150v126h150v-126zM299 806h-148v126h148v-126z" />
    <glyph glyph-name="Yacute" unicode="&#xdd;" horiz-adv-x="618" 
d="M613 768l-218 -460v-308h-171v308l-219 460h184l129 -296l129 296h166zM548 894l-197 -114h-89l81 125h205v-11z" />
    <glyph glyph-name="Thorn" unicode="&#xde;" horiz-adv-x="639" 
d="M615 382q0 -124 -74.5 -182.5t-198.5 -58.5h-89v-141h-171v768h171v-148h70q292 0 292 -238zM434 382q0 121 -108 121h-73v-242h76q48 0 76.5 30t28.5 91z" />
    <glyph glyph-name="germandbls" unicode="&#xdf;" horiz-adv-x="642" 
d="M602 217q0 -108 -67.5 -162.5t-196.5 -54.5h-27v95q64 0 98 28t34 98q0 57 -35.5 93t-96.5 36v109q45 0 68.5 31.5t23.5 77.5q0 105 -77 105q-82 0 -82 -91v-582h-165v574q0 101 66.5 153.5t191.5 52.5q58 0 103.5 -19t71 -49.5t38 -64t12.5 -67.5q0 -62 -28 -108
t-89 -56q76 -11 116.5 -62t40.5 -137z" />
    <glyph glyph-name="agrave" unicode="&#xe0;" horiz-adv-x="648" 
d="M627 18q-56 -25 -113 -25q-91 0 -103 71q-54 -76 -182 -76q-92 0 -140.5 46.5t-48.5 126.5q0 64 49.5 106.5t123.5 60.5q137 32 174 60q-1 24 -2 35t-5.5 30t-13 28t-25.5 16.5t-42 7.5q-46 0 -68 -19t-22 -48q0 -20 8 -32l-147 -7q-7 24 -7 49q0 66 63.5 105t179.5 39
q234 0 234 -173v-276q0 -30 15.5 -39t53.5 -9h18v-77zM385 293q-24 -14 -68 -26q-67 -17 -91.5 -44t-24.5 -68q0 -35 24 -53t61 -18q47 0 71 27.5t26 71.5zM372 626h-89l-197 114v11h205z" />
    <glyph glyph-name="aacute" unicode="&#xe1;" horiz-adv-x="648" 
d="M627 18q-56 -25 -113 -25q-91 0 -103 71q-54 -76 -182 -76q-92 0 -140.5 46.5t-48.5 126.5q0 64 49.5 106.5t123.5 60.5q137 32 174 60q-1 24 -2 35t-5.5 30t-13 28t-25.5 16.5t-42 7.5q-46 0 -68 -19t-22 -48q0 -20 8 -32l-147 -7q-7 24 -7 49q0 66 63.5 105t179.5 39
q234 0 234 -173v-276q0 -30 15.5 -39t53.5 -9h18v-77zM385 293q-24 -14 -68 -26q-67 -17 -91.5 -44t-24.5 -68q0 -35 24 -53t61 -18q47 0 71 27.5t26 71.5zM532 740l-197 -114h-89l81 125h205v-11z" />
    <glyph glyph-name="acircumflex" unicode="&#xe2;" horiz-adv-x="648" 
d="M627 18q-56 -25 -113 -25q-91 0 -103 71q-54 -76 -182 -76q-92 0 -140.5 46.5t-48.5 126.5q0 64 49.5 106.5t123.5 60.5q137 32 174 60q-1 24 -2 35t-5.5 30t-13 28t-25.5 16.5t-42 7.5q-46 0 -68 -19t-22 -48q0 -20 8 -32l-147 -7q-7 24 -7 49q0 66 63.5 105t179.5 39
q234 0 234 -173v-276q0 -30 15.5 -39t53.5 -9h18v-77zM385 293q-24 -14 -68 -26q-67 -17 -91.5 -44t-24.5 -68q0 -35 24 -53t61 -18q47 0 71 27.5t26 71.5zM465 626h-74l-88 52l-88 -52h-74l89 125h146z" />
    <glyph glyph-name="atilde" unicode="&#xe3;" horiz-adv-x="648" 
d="M627 18q-56 -25 -113 -25q-91 0 -103 71q-54 -76 -182 -76q-92 0 -140.5 46.5t-48.5 126.5q0 64 49.5 106.5t123.5 60.5q137 32 174 60q-1 24 -2 35t-5.5 30t-13 28t-25.5 16.5t-42 7.5q-46 0 -68 -19t-22 -48q0 -20 8 -32l-147 -7q-7 24 -7 49q0 66 63.5 105t179.5 39
q234 0 234 -173v-276q0 -30 15.5 -39t53.5 -9h18v-77zM385 293q-24 -14 -68 -26q-67 -17 -91.5 -44t-24.5 -68q0 -35 24 -53t61 -18q47 0 71 27.5t26 71.5zM482 705q0 -80 -98 -80q-51 0 -98 29q-39 25 -56 25q-29 0 -29 -23q0 -11 4 -25h-67q-12 19 -12 56q0 80 94 80
q27 0 45.5 -7t49.5 -26q38 -25 62 -25q29 0 29 28q0 12 -5 24h67q14 -26 14 -56z" />
    <glyph glyph-name="adieresis" unicode="&#xe4;" horiz-adv-x="648" 
d="M627 18q-56 -25 -113 -25q-91 0 -103 71q-54 -76 -182 -76q-92 0 -140.5 46.5t-48.5 126.5q0 64 49.5 106.5t123.5 60.5q137 32 174 60q-1 24 -2 35t-5.5 30t-13 28t-25.5 16.5t-42 7.5q-46 0 -68 -19t-22 -48q0 -20 8 -32l-147 -7q-7 24 -7 49q0 66 63.5 105t179.5 39
q234 0 234 -173v-276q0 -30 15.5 -39t53.5 -9h18v-77zM385 293q-24 -14 -68 -26q-67 -17 -91.5 -44t-24.5 -68q0 -35 24 -53t61 -18q47 0 71 27.5t26 71.5zM515 626h-150v126h150v-126zM240 626h-148v126h148v-126z" />
    <glyph glyph-name="aring" unicode="&#xe5;" horiz-adv-x="648" 
d="M627 18q-56 -25 -113 -25q-91 0 -103 71q-54 -76 -182 -76q-92 0 -140.5 46.5t-48.5 126.5q0 64 49.5 106.5t123.5 60.5q137 32 174 60q-1 24 -2 35t-5.5 30t-13 28t-25.5 16.5t-42 7.5q-46 0 -68 -19t-22 -48q0 -20 8 -32l-147 -7q-7 24 -7 49q0 66 63.5 105t179.5 39
q234 0 234 -173v-276q0 -30 15.5 -39t53.5 -9h18v-77zM385 293q-24 -14 -68 -26q-67 -17 -91.5 -44t-24.5 -68q0 -35 24 -53t61 -18q47 0 71 27.5t26 71.5zM445 762q0 -56 -43.5 -96t-105.5 -40t-106 40t-44 96t44 96t106 40t105.5 -40t43.5 -96zM369 762q0 28 -21.5 48.5
t-51.5 20.5q-31 0 -52.5 -20.5t-21.5 -48.5t21.5 -48.5t52.5 -20.5q30 0 51.5 20.5t21.5 48.5z" />
    <glyph glyph-name="ae" unicode="&#xe6;" horiz-adv-x="944" 
d="M900 144q-5 -60 -68.5 -108t-180.5 -48q-175 0 -228 100q-19 -48 -74.5 -74t-119.5 -26q-90 0 -139.5 47t-49.5 126q0 66 48.5 108.5t124.5 58.5q130 27 174 60q-1 24 -2 35t-5.5 30t-13 28t-25.5 16.5t-42 7.5q-46 0 -68 -19t-22 -48q0 -20 8 -32l-147 -7q-7 24 -7 49
q0 65 63 104.5t180 39.5q137 0 175 -65q23 30 70.5 47.5t97.5 17.5q100 0 167 -60t76 -175q2 -34 2 -47q0 -31 -3 -55h-351q-1 -84 26 -122t85 -38q51 0 73 17.5t24 52.5l1 23l150 -10q3 -14 1 -34zM741 348q2 24 -2 45q-15 89 -92 89q-101 0 -107 -134h201zM385 293
q-24 -14 -68 -26q-67 -17 -91.5 -44t-24.5 -68q0 -35 24 -53t61 -18q47 0 71.5 28t25.5 71z" />
    <glyph glyph-name="ccedilla" unicode="&#xe7;" horiz-adv-x="603" 
d="M555 152q0 -61 -67.5 -112.5t-177.5 -51.5q-133 0 -200 65t-67 213q0 167 73 246.5t204 79.5q109 0 166.5 -49.5t57.5 -122.5q0 -35 -3 -48l-152 -4q4 13 4 34q0 83 -81 83q-54 0 -80 -42.5t-26 -141.5q0 -111 25.5 -156t79.5 -45q49 0 71.5 22t22.5 72q0 20 -4 38
l146 -6q8 -30 8 -74zM438 -108q0 -43 -38 -67.5t-107 -24.5q-109 0 -162 36l41 54q51 -32 117 -32q42 0 42 31q0 24 -29 30t-64 -7l23 68h48q60 0 94.5 -24.5t34.5 -63.5z" />
    <glyph glyph-name="egrave" unicode="&#xe8;" horiz-adv-x="606" 
d="M562 144q-4 -60 -66.5 -108t-182.5 -48q-270 0 -270 291q0 153 75 233t193 80q103 0 168.5 -59.5t74.5 -175.5q6 -57 -1 -102h-351q-1 -81 29.5 -120.5t81.5 -39.5q92 0 97 70l1 23l150 -10q3 -14 1 -34zM404 348q2 25 -3 45q-14 89 -92 89q-100 0 -107 -134h202z
M375 626h-89l-197 114v11h205z" />
    <glyph glyph-name="eacute" unicode="&#xe9;" horiz-adv-x="606" 
d="M562 144q-4 -60 -66.5 -108t-182.5 -48q-270 0 -270 291q0 153 75 233t193 80q103 0 168.5 -59.5t74.5 -175.5q6 -57 -1 -102h-351q-1 -81 29.5 -120.5t81.5 -39.5q92 0 97 70l1 23l150 -10q3 -14 1 -34zM404 348q2 25 -3 45q-14 89 -92 89q-100 0 -107 -134h202z
M538 740l-197 -114h-89l81 125h205v-11z" />
    <glyph glyph-name="ecircumflex" unicode="&#xea;" horiz-adv-x="606" 
d="M562 144q-4 -60 -66.5 -108t-182.5 -48q-270 0 -270 291q0 153 75 233t193 80q103 0 168.5 -59.5t74.5 -175.5q6 -57 -1 -102h-351q-1 -81 29.5 -120.5t81.5 -39.5q92 0 97 70l1 23l150 -10q3 -14 1 -34zM404 348q2 25 -3 45q-14 89 -92 89q-100 0 -107 -134h202z
M467 626h-74l-88 52l-88 -52h-74l89 125h146z" />
    <glyph glyph-name="edieresis" unicode="&#xeb;" horiz-adv-x="606" 
d="M562 144q-4 -60 -66.5 -108t-182.5 -48q-270 0 -270 291q0 153 75 233t193 80q103 0 168.5 -59.5t74.5 -175.5q6 -57 -1 -102h-351q-1 -81 29.5 -120.5t81.5 -39.5q92 0 97 70l1 23l150 -10q3 -14 1 -34zM404 348q2 25 -3 45q-14 89 -92 89q-100 0 -107 -134h202z
M518 626h-150v126h150v-126zM243 626h-148v126h148v-126z" />
    <glyph glyph-name="igrave" unicode="&#xec;" horiz-adv-x="310" 
d="M238 0h-165v574h165v-574zM211 626h-89l-197 114v11h205z" />
    <glyph glyph-name="iacute" unicode="&#xed;" horiz-adv-x="310" 
d="M238 0h-165v574h165v-574zM386 740l-197 -114h-89l81 125h205v-11z" />
    <glyph glyph-name="icircumflex" unicode="&#xee;" horiz-adv-x="310" 
d="M238 0h-165v574h165v-574zM320 626h-74l-88 52l-88 -52h-74l89 125h146z" />
    <glyph glyph-name="idieresis" unicode="&#xef;" horiz-adv-x="310" 
d="M238 0h-165v574h165v-574zM367 626h-150v126h150v-126zM92 626h-148v126h148v-126z" />
    <glyph glyph-name="eth" unicode="&#xf0;" horiz-adv-x="629" 
d="M577 270q0 -143 -72 -212.5t-195 -69.5q-127 0 -197 70t-70 212q0 140 70.5 213t196.5 73q57 0 99 -22q-7 66 -46 122q-36 -6 -36 -31q0 -19 16 -30l-48 -25q-19 5 -34 25t-15 39q0 37 51 64q-77 15 -140 -36l-66 90q66 50 187 50q108 0 180 -78q28 9 28 30q0 19 -17 29
l48 25q19 -7 33 -25.5t14 -37.5q0 -42 -66 -77q79 -135 79 -398zM425 270q0 95 -28.5 135t-86.5 40t-84 -39.5t-26 -135.5q0 -88 26 -129t84 -41q60 0 87.5 40.5t27.5 129.5z" />
    <glyph glyph-name="ntilde" unicode="&#xf1;" horiz-adv-x="657" 
d="M64 0v574h160v-98q51 109 191 109q85 0 132.5 -42t47.5 -122v-421h-165v350q0 67 -20 92t-69 25q-51 0 -81.5 -44.5t-30.5 -124.5v-298h-165zM512 703q0 -80 -98 -80q-51 0 -98 29q-39 25 -56 25q-29 0 -29 -23q0 -11 4 -25h-67q-12 19 -12 56q0 80 94 80q27 0 45.5 -7
t49.5 -26q38 -25 62 -25q29 0 29 28q0 12 -5 24h67q14 -26 14 -56z" />
    <glyph glyph-name="ograve" unicode="&#xf2;" horiz-adv-x="631" 
d="M34 278q0 149 77.5 231.5t204.5 82.5q128 0 204.5 -85t76.5 -229t-75.5 -217t-205.5 -73q-135 0 -208.5 72.5t-73.5 217.5zM197 282q0 -182 119 -182q64 0 91 44t27 138q0 110 -29.5 156.5t-88.5 46.5q-119 0 -119 -203zM371 626h-89l-197 114v11h205z" />
    <glyph glyph-name="oacute" unicode="&#xf3;" horiz-adv-x="631" 
d="M34 278q0 149 77.5 231.5t204.5 82.5q128 0 204.5 -85t76.5 -229t-75.5 -217t-205.5 -73q-135 0 -208.5 72.5t-73.5 217.5zM197 282q0 -182 119 -182q64 0 91 44t27 138q0 110 -29.5 156.5t-88.5 46.5q-119 0 -119 -203zM545 740l-197 -114h-89l81 125h205v-11z" />
    <glyph glyph-name="ocircumflex" unicode="&#xf4;" horiz-adv-x="631" 
d="M34 278q0 149 77.5 231.5t204.5 82.5q128 0 204.5 -85t76.5 -229t-75.5 -217t-205.5 -73q-135 0 -208.5 72.5t-73.5 217.5zM197 282q0 -182 119 -182q64 0 91 44t27 138q0 110 -29.5 156.5t-88.5 46.5q-119 0 -119 -203zM477 626h-74l-88 52l-88 -52h-74l89 125h146z" />
    <glyph glyph-name="otilde" unicode="&#xf5;" horiz-adv-x="631" 
d="M34 278q0 149 77.5 231.5t204.5 82.5q128 0 204.5 -85t76.5 -229t-75.5 -217t-205.5 -73q-135 0 -208.5 72.5t-73.5 217.5zM197 282q0 -182 119 -182q64 0 91 44t27 138q0 110 -29.5 156.5t-88.5 46.5q-119 0 -119 -203zM495 703q0 -80 -98 -80q-51 0 -98 29
q-39 25 -56 25q-29 0 -29 -23q0 -11 4 -25h-67q-12 19 -12 56q0 80 94 80q27 0 45.5 -7t49.5 -26q38 -25 62 -25q29 0 29 28q0 12 -5 24h67q14 -26 14 -56z" />
    <glyph glyph-name="odieresis" unicode="&#xf6;" horiz-adv-x="631" 
d="M34 278q0 149 77.5 231.5t204.5 82.5q128 0 204.5 -85t76.5 -229t-75.5 -217t-205.5 -73q-135 0 -208.5 72.5t-73.5 217.5zM197 282q0 -182 119 -182q64 0 91 44t27 138q0 110 -29.5 156.5t-88.5 46.5q-119 0 -119 -203zM525 626h-150v126h150v-126zM250 626h-148v126
h148v-126z" />
    <glyph glyph-name="divide" unicode="&#xf7;" 
d="M593 331q0 -111 -79 -189.5t-190 -78.5t-190 78.5t-79 189.5t79 190t190 79t190 -79t79 -190zM535 330l-101 76l-52 128l-76 -93l-155 29l57 -106l-88 -110l190 -15l53 -111l55 118z" />
    <glyph glyph-name="oslash" unicode="&#xf8;" horiz-adv-x="631" 
d="M588 278q0 -144 -74 -217t-198 -73q-95 0 -155 32l-28 -39h-82l59 78q-67 70 -67 219q0 154 73 234t200 80q93 0 157 -41l30 40h77l-61 -81q69 -80 69 -232zM395 449q-25 36 -79 36q-110 0 -110 -203q0 -50 6 -86zM426 282q0 43 -6 95l-178 -250q26 -27 74 -27
q110 0 110 182z" />
    <glyph glyph-name="ugrave" unicode="&#xf9;" horiz-adv-x="657" 
d="M584 0h-161v99q-22 -50 -68.5 -80t-112.5 -30q-81 0 -126.5 40.5t-45.5 136.5v408h165v-350q0 -64 15 -90.5t66 -26.5q50 0 76.5 43.5t26.5 125.5v298h165v-574zM377 626h-89l-197 114v11h205z" />
    <glyph glyph-name="uacute" unicode="&#xfa;" horiz-adv-x="657" 
d="M584 0h-161v99q-22 -50 -68.5 -80t-112.5 -30q-81 0 -126.5 40.5t-45.5 136.5v408h165v-350q0 -64 15 -90.5t66 -26.5q50 0 76.5 43.5t26.5 125.5v298h165v-574zM557 740l-197 -114h-89l81 125h205v-11z" />
    <glyph glyph-name="ucircumflex" unicode="&#xfb;" horiz-adv-x="657" 
d="M584 0h-161v99q-22 -50 -68.5 -80t-112.5 -30q-81 0 -126.5 40.5t-45.5 136.5v408h165v-350q0 -64 15 -90.5t66 -26.5q50 0 76.5 43.5t26.5 125.5v298h165v-574zM487 626h-74l-88 52l-88 -52h-74l89 125h146z" />
    <glyph glyph-name="udieresis" unicode="&#xfc;" horiz-adv-x="657" 
d="M584 0h-161v99q-22 -50 -68.5 -80t-112.5 -30q-81 0 -126.5 40.5t-45.5 136.5v408h165v-350q0 -64 15 -90.5t66 -26.5q50 0 76.5 43.5t26.5 125.5v298h165v-574zM540 626h-150v126h150v-126zM265 626h-148v126h148v-126z" />
    <glyph glyph-name="yacute" unicode="&#xfd;" horiz-adv-x="585" 
d="M577 574l-194 -579q-33 -96 -83.5 -135.5t-147.5 -39.5q-79 0 -125.5 35.5t-46.5 88.5q0 21 6 35h126q-3 -12 -3 -24q0 -36 47 -36q35 0 48 20t1 58l-197 577h184l106 -450l110 450h169zM536 740l-197 -114h-89l81 125h205v-11z" />
    <glyph glyph-name="thorn" unicode="&#xfe;" horiz-adv-x="659" 
d="M616 287q0 -155 -68 -225.5t-178 -70.5q-41 0 -70.5 11.5t-41 23.5t-26.5 33v-223h-159v932h159v-275q41 93 153 93q43 0 81 -14t73.5 -45.5t56 -93t20.5 -146.5zM454 287q0 106 -30 147.5t-86 41.5q-105 0 -106 -188q0 -98 27 -142t85 -44q54 0 82 39.5t28 145.5z" />
    <glyph glyph-name="ydieresis" unicode="&#xff;" horiz-adv-x="585" 
d="M577 574l-194 -579q-33 -96 -83.5 -135.5t-147.5 -39.5q-79 0 -125.5 35.5t-46.5 88.5q0 21 6 35h126q-3 -12 -3 -24q0 -36 47 -36q35 0 48 20t1 58l-197 577h184l106 -450l110 450h169zM510 626h-150v126h150v-126zM235 626h-148v126h148v-126z" />
    <glyph glyph-name="dotlessi" unicode="&#x131;" horiz-adv-x="310" 
d="M238 0h-165v574h165v-574z" />
    <glyph glyph-name="Lslash" unicode="&#x141;" horiz-adv-x="586" 
d="M553 0h-449v174l-38 -27l-65 78l103 74v469h171v-349l143 101l65 -78l-208 -148v-162h278v-132z" />
    <glyph glyph-name="lslash" unicode="&#x142;" horiz-adv-x="376" 
d="M375 386l-104 -74v-312h-165v195l-40 -28l-65 78l105 74v449h165v-332l39 28z" />
    <glyph glyph-name="OE" unicode="&#x152;" horiz-adv-x="1005" 
d="M968 0h-490q-50 -12 -117 -12q-169 0 -242.5 88.5t-73.5 308.5q0 395 316 395q69 0 117 -12h465v-123h-296v-185h266v-130h-266v-206h321v-124zM478 151v468q-35 49 -123 49q-83 0 -108 -62t-25 -223q0 -156 29 -218.5t103 -62.5q50 0 76.5 12t47.5 37z" />
    <glyph glyph-name="oe" unicode="&#x153;" horiz-adv-x="981" 
d="M937 144q-5 -64 -65.5 -110t-183.5 -46q-145 0 -197 59q-59 -59 -184 -59q-136 0 -204.5 69t-68.5 221q0 155 70 234.5t203 79.5q128 0 191 -73q65 73 188 73q107 0 170 -59t73 -176q2 -34 2 -48q0 -30 -3 -54h-351q-1 -83 26.5 -121.5t84.5 -38.5q51 0 73 17.5t24 52.5
l1 23l150 -10q3 -14 1 -34zM779 348q2 25 -3 45q-15 89 -92 89q-100 0 -107 -134h202zM417 282q0 112 -26 157.5t-84 45.5q-57 0 -83.5 -47t-26.5 -156q0 -92 26.5 -137t83.5 -45q63 0 86.5 41.5t23.5 140.5z" />
    <glyph glyph-name="Scaron" unicode="&#x160;" horiz-adv-x="631" 
d="M601 227q0 -239 -286 -239q-130 0 -199 50t-69 140q0 24 10 60l160 5q-10 -28 -10 -52q0 -91 109 -91q121 0 121 96q0 42 -31 71.5t-115 61.5l-113 43q-125 48 -125 192q0 97 67.5 156.5t194.5 59.5q107 0 173 -51t66 -134q0 -25 -10 -53l-150 -4q5 17 5 37
q0 52 -24.5 74t-72.5 22q-44 0 -68.5 -20t-24.5 -54q0 -38 23.5 -60t83.5 -46l126 -51q80 -32 119.5 -87.5t39.5 -125.5zM473 925l-89 -125h-145l-89 125h73l88 -52l88 52h74z" />
    <glyph glyph-name="scaron" unicode="&#x161;" horiz-adv-x="565" 
d="M531 170q0 -84 -63 -133t-184 -49q-116 0 -183.5 41.5t-67.5 105.5q0 27 15 64l143 -9q-6 -17 -6 -37q0 -30 24.5 -48t74.5 -18q40 0 60 18t20 48q0 57 -85 81l-88 25q-74 21 -112 58t-38 106q0 76 66.5 122.5t166.5 46.5q107 0 169 -39t62 -99q0 -22 -8 -36l-152 -8
q7 11 7 31q0 53 -78 53q-39 0 -56.5 -17t-17.5 -42q0 -19 16 -32.5t60 -25.5l94 -26q84 -24 122.5 -66t38.5 -115zM438 751l-89 -125h-145l-89 125h73l88 -52l88 52h74z" />
    <glyph glyph-name="Ydieresis" unicode="&#x178;" horiz-adv-x="618" 
d="M613 768l-218 -460v-308h-171v308l-219 460h184l129 -296l129 296h166zM532 806h-150v126h150v-126zM257 806h-148v126h148v-126z" />
    <glyph glyph-name="Zcaron" unicode="&#x17d;" horiz-adv-x="626" 
d="M569 0h-525v146l351 503h-326v119h500v-140l-354 -509h354v-119zM472 925l-89 -125h-145l-89 125h73l88 -52l88 52h74z" />
    <glyph glyph-name="zcaron" unicode="&#x17e;" horiz-adv-x="564" 
d="M511 0h-471v129l298 329h-283v116h456v-136l-298 -322h298v-116zM455 751l-89 -125h-145l-89 125h73l88 -52l88 52h74z" />
    <glyph glyph-name="florin" unicode="&#x192;" horiz-adv-x="390" 
d="M429 696q0 -32 -11 -62l-101 8q3 10 3 29q0 31 -45 31q-19 0 -30.5 -13.5t-11.5 -35.5q0 -51 12 -79h120v-94h-105v-507q0 -75 -44.5 -114t-131.5 -39q-75 0 -123.5 26t-48.5 86q0 26 17 45l94 -9q-2 -8 -2 -21q0 -19 16.5 -29t35.5 -10q45 0 45 32q0 14 -11.5 48.5
t-11.5 72.5v419h-80v94h83q-6 29 -6 68q0 67 44 107.5t122 40.5q88 0 129.5 -26.5t41.5 -67.5z" />
    <glyph glyph-name="circumflex" unicode="&#x2c6;" horiz-adv-x="396" 
d="M360 626h-74l-88 52l-88 -52h-74l89 125h146z" />
    <glyph glyph-name="caron" unicode="&#x2c7;" horiz-adv-x="396" 
d="M364 750l-89 -125h-145l-89 125h73l88 -52l88 52h74z" />
    <glyph glyph-name="breve" unicode="&#x2d8;" horiz-adv-x="396" 
d="M372 742q0 -66 -37.5 -97.5t-138.5 -31.5q-102 0 -140 31t-38 98h85q-1 -23 24.5 -41t68.5 -18q42 0 68 18t24 41h84z" />
    <glyph glyph-name="dotaccent" unicode="&#x2d9;" horiz-adv-x="396" 
d="M273 626h-150v130h150v-130z" />
    <glyph glyph-name="ring" unicode="&#x2da;" horiz-adv-x="396" 
d="M345 732q0 -56 -43.5 -96t-105.5 -40t-106 40t-44 96t44 96t106 40t105.5 -40t43.5 -96zM269 732q0 28 -21.5 48.5t-51.5 20.5q-31 0 -52.5 -20.5t-21.5 -48.5t21.5 -48.5t52.5 -20.5q30 0 51.5 20.5t21.5 48.5z" />
    <glyph glyph-name="ogonek" unicode="&#x2db;" horiz-adv-x="396" 
d="M323 -134q0 -69 -132 -69q-122 0 -122 78q0 77 134 125h80q-119 -49 -119 -116q0 -45 36 -45t36 32q0 13 -7 31h89q5 -17 5 -36z" />
    <glyph glyph-name="tilde" unicode="&#x2dc;" horiz-adv-x="396" 
d="M376 703q0 -80 -98 -80q-51 0 -98 29q-39 25 -56 25q-29 0 -29 -23q0 -11 4 -25h-67q-12 19 -12 56q0 80 94 80q27 0 45.5 -7t49.5 -26q38 -25 62 -25q29 0 29 28q0 12 -5 24h67q14 -26 14 -56z" />
    <glyph glyph-name="hungarumlaut" unicode="&#x2dd;" horiz-adv-x="396" 
d="M411 740l-148 -115h-74l78 126h144v-11zM224 740l-148 -115h-74l78 126h144v-11z" />
    <glyph glyph-name="Delta" unicode="&#x394;" 
d="M593 331q0 -111 -79 -189.5t-190 -78.5t-190 78.5t-79 189.5t79 190t190 79t190 -79t79 -190zM535 330l-101 76l-52 128l-76 -93l-155 29l57 -106l-88 -110l190 -15l53 -111l55 118z" />
    <glyph glyph-name="Delta" unicode="&#x2206;" 
d="M593 331q0 -111 -79 -189.5t-190 -78.5t-190 78.5t-79 189.5t79 190t190 79t190 -79t79 -190zM535 330l-101 76l-52 128l-76 -93l-155 29l57 -106l-88 -110l190 -15l53 -111l55 118z" />
    <glyph glyph-name="Omega" unicode="&#x3a9;" 
d="M593 331q0 -111 -79 -189.5t-190 -78.5t-190 78.5t-79 189.5t79 190t190 79t190 -79t79 -190zM535 330l-101 76l-52 128l-76 -93l-155 29l57 -106l-88 -110l190 -15l53 -111l55 118z" />
    <glyph glyph-name="Omega" unicode="&#x2126;" 
d="M593 331q0 -111 -79 -189.5t-190 -78.5t-190 78.5t-79 189.5t79 190t190 79t190 -79t79 -190zM535 330l-101 76l-52 128l-76 -93l-155 29l57 -106l-88 -110l190 -15l53 -111l55 118z" />
    <glyph glyph-name="pi" unicode="&#x3c0;" horiz-adv-x="779" 
d="M736 397q-2 -146 -105 -250.5t-247 -104.5q-146 0 -250 104.5t-104 250.5q0 147 103.5 251t250.5 104q145 0 248.5 -104.5t103.5 -250.5zM673 397q0 121 -85 209.5t-204 88.5q-120 0 -206 -88.5t-86 -209.5q0 -123 85.5 -210t206.5 -87q120 0 204.5 87t84.5 210zM537 468
q0 -64 -33.5 -92.5t-87.5 -28.5h-68v-159h-79v407h139q129 0 129 -127zM457 467q0 72 -52 72h-57v-137h58q51 0 51 65z" />
    <glyph glyph-name="endash" unicode="&#x2013;" horiz-adv-x="660" 
d="M605 275h-550v120h550v-120z" />
    <glyph glyph-name="emdash" unicode="&#x2014;" horiz-adv-x="1137" 
d="M1082 275h-1027v120h1027v-120z" />
    <glyph glyph-name="quoteleft" unicode="&#x2018;" horiz-adv-x="315" 
d="M265 736q-47 -9 -75 -28q-26 -18 -26 -61q0 -14 2 -20h89v-166h-191v166q0 80 81 124q42 22 108 30z" />
    <glyph glyph-name="quoteright" unicode="&#x2019;" horiz-adv-x="315" 
d="M257 602q0 -80 -81 -124q-40 -22 -108 -30l-12 45q47 9 75 28q26 18 26 61q0 14 -2 20h-89v166h191v-166z" />
    <glyph glyph-name="quotesinglbase" unicode="&#x201a;" horiz-adv-x="315" 
d="M257 0q0 -80 -81 -124q-40 -22 -108 -30l-12 45q47 9 75 28q26 18 26 61q0 14 -2 20h-89v166h191v-166z" />
    <glyph glyph-name="quotedblleft" unicode="&#x201c;" horiz-adv-x="576" 
d="M527 736q-47 -9 -75 -28q-26 -18 -26 -60q0 -14 2 -21h89v-166h-191v166q0 80 81 124q40 22 108 30zM265 736q-47 -9 -75 -28q-26 -18 -26 -59q0 -15 2 -22h89v-166h-191v166q0 80 81 124q42 22 108 30z" />
    <glyph glyph-name="quotedblright" unicode="&#x201d;" horiz-adv-x="576" 
d="M519 602q0 -80 -81 -124q-42 -22 -108 -30l-12 45q47 9 75 28q26 18 26 61q0 14 -2 20h-89v166h191v-166zM257 602q0 -80 -81 -124q-40 -22 -108 -30l-12 45q47 9 75 28q26 18 26 61q0 14 -2 20h-89v166h191v-166z" />
    <glyph glyph-name="quotedblbase" unicode="&#x201e;" horiz-adv-x="576" 
d="M519 0q0 -80 -81 -124q-42 -22 -108 -30l-12 45q47 9 75 28q26 18 26 61q0 14 -2 20h-89v166h191v-166zM257 0q0 -80 -81 -124q-40 -22 -108 -30l-12 45q47 9 75 28q26 18 26 61q0 14 -2 20h-89v166h191v-166z" />
    <glyph glyph-name="dagger" unicode="&#x2020;" horiz-adv-x="568" 
d="M499 501h-138v-589h-154v589h-139v110h139v157h154v-157h138v-110z" />
    <glyph glyph-name="daggerdbl" unicode="&#x2021;" horiz-adv-x="568" 
d="M499 117h-138v-205h-154v205h-139v110h139v274h-139v110h139v157h154v-157h138v-110h-138v-274h138v-110z" />
    <glyph glyph-name="bullet" unicode="&#x2022;" horiz-adv-x="652" 
d="M609 334q0 -110 -83 -188.5t-200 -78.5q-118 0 -202 78.5t-84 188.5t84 188.5t202 78.5q117 0 200 -78.5t83 -188.5z" />
    <glyph glyph-name="ellipsis" unicode="&#x2026;" horiz-adv-x="884" 
d="M832 0h-197v175h197v-175zM537 0h-197v175h197v-175zM242 0h-197v175h197v-175z" />
    <glyph glyph-name="perthousand" unicode="&#x2030;" horiz-adv-x="1560" 
d="M475 514q0 -105 -57 -165t-153 -60q-99 0 -155 56t-56 167q0 268 211 268q102 0 156 -67.5t54 -198.5zM768 780l-391 -796h-68l391 796h68zM1498 214q0 -105 -57 -165t-153 -60q-99 0 -155 56t-56 167q0 268 211 268q102 0 156 -67.5t54 -198.5zM1020 214
q0 -105 -57 -165t-153 -60q-99 0 -155 56t-56 167q0 268 211 268q102 0 156 -67.5t54 -198.5zM350 529q0 91 -19.5 125.5t-63.5 34.5q-48 0 -67 -34.5t-19 -125.5q0 -146 84 -146q44 0 64.5 35t20.5 111zM1373 229q0 91 -19.5 125.5t-63.5 34.5q-48 0 -67 -34.5t-19 -125.5
q0 -146 84 -146q44 0 64.5 35t20.5 111zM895 229q0 91 -19.5 125.5t-63.5 34.5q-48 0 -67 -34.5t-19 -125.5q0 -146 84 -146q44 0 64.5 35t20.5 111z" />
    <glyph glyph-name="guilsinglleft" unicode="&#x2039;" horiz-adv-x="401" 
d="M349 36l-289 172v136l289 171v-120l-197 -119l197 -120v-120z" />
    <glyph glyph-name="guilsinglright" unicode="&#x203a;" horiz-adv-x="401" 
d="M341 210l-290 -173v120l200 120l-200 119v120l290 -171v-135z" />
    <glyph glyph-name="fraction" unicode="&#x2044;" horiz-adv-x="341" 
d="M562 780l-659 -794h-124l655 794h128z" />
    <glyph glyph-name="fraction" unicode="&#x2215;" horiz-adv-x="341" 
d="M562 780l-659 -794h-124l655 794h128z" />
    <glyph glyph-name="Euro" unicode="&#x20ac;" horiz-adv-x="602" 
d="M243 400v-71h135v-77h-133q2 -82 20.5 -115.5t62.5 -33.5q93 0 80 171l159 -11q6 -136 -55.5 -205.5t-187.5 -69.5q-113 0 -170 62.5t-70 201.5h-70v77h66q0 48 1 71h-67v77h71q16 171 77.5 237t181.5 66q116 0 167 -74t49 -195l-164 -6q7 93 -7 127.5t-58 34.5
q-33 0 -49.5 -12.5t-26.5 -54t-11 -123.5h134v-77h-135z" />
    <glyph glyph-name="trademark" unicode="&#x2122;" horiz-adv-x="651" 
d="M582 537h-60v181l-52 -181h-61l-56 181v-181h-52v231h88l53 -177l52 177h88v-231zM263 722h-75v-185h-62v185h-72v46h209v-46z" />
    <glyph glyph-name="partialdiff" unicode="&#x2202;" 
d="M593 331q0 -111 -79 -189.5t-190 -78.5t-190 78.5t-79 189.5t79 190t190 79t190 -79t79 -190zM535 330l-101 76l-52 128l-76 -93l-155 29l57 -106l-88 -110l190 -15l53 -111l55 118z" />
    <glyph glyph-name="product" unicode="&#x220f;" 
d="M593 331q0 -111 -79 -189.5t-190 -78.5t-190 78.5t-79 189.5t79 190t190 79t190 -79t79 -190zM535 330l-101 76l-52 128l-76 -93l-155 29l57 -106l-88 -110l190 -15l53 -111l55 118z" />
    <glyph glyph-name="summation" unicode="&#x2211;" 
d="M593 331q0 -111 -79 -189.5t-190 -78.5t-190 78.5t-79 189.5t79 190t190 79t190 -79t79 -190zM535 330l-101 76l-52 128l-76 -93l-155 29l57 -106l-88 -110l190 -15l53 -111l55 118z" />
    <glyph glyph-name="minus" unicode="&#x2212;" horiz-adv-x="559" 
d="M511 275h-462v120h462v-120z" />
    <glyph glyph-name="radical" unicode="&#x221a;" horiz-adv-x="863" 
d="M867 909q-68 -76 -146.5 -209.5t-132.5 -253.5q-138 -310 -188 -541l-125 -49l-275 420l172 71l148 -308q59 227 154 436q98 216 233 398z" />
    <glyph glyph-name="infinity" unicode="&#x221e;" horiz-adv-x="1091" 
d="M1021 629h-170v149h170v-149zM488 574q-5 30 -5 68q0 67 43.5 107.5t122.5 40.5q86 0 128 -27t42 -67q0 -38 -11 -62l-101 8q4 16 4 29q0 31 -46 31q-19 0 -30 -13.5t-11 -35.5q0 -51 12 -79h120v-94h-106v-480h-165v480h-225v-480h-165v480h-80v94h83q-6 29 -6 68
q0 67 44 107.5t122 40.5q89 0 130 -26t41 -68q0 -32 -11 -62l-101 8q3 12 3 29q0 31 -45 31q-19 0 -30.5 -13.5t-11.5 -35.5q0 -51 12 -79h243zM1019 0h-165v574h165v-574z" />
    <glyph glyph-name="integral" unicode="&#x222b;" 
d="M593 331q0 -111 -79 -189.5t-190 -78.5t-190 78.5t-79 189.5t79 190t190 79t190 -79t79 -190zM535 330l-101 76l-52 128l-76 -93l-155 29l57 -106l-88 -110l190 -15l53 -111l55 118z" />
    <glyph glyph-name="approxequal" unicode="&#x2248;" 
d="M593 331q0 -111 -79 -189.5t-190 -78.5t-190 78.5t-79 189.5t79 190t190 79t190 -79t79 -190zM535 330l-101 76l-52 128l-76 -93l-155 29l57 -106l-88 -110l190 -15l53 -111l55 118z" />
    <glyph glyph-name="notequal" unicode="&#x2260;" horiz-adv-x="781" 
d="M488 574q-5 30 -5 68q0 67 43.5 107.5t122.5 40.5q83 0 126.5 -28t43.5 -66t-11 -62l-101 8q4 16 4 29q0 31 -46 31q-19 0 -30 -13.5t-11 -35.5q0 -51 12 -79h120v-94h-106v-480h-165v480h-225v-480h-165v480h-80v94h83q-6 29 -6 68q0 67 44 107.5t122 40.5
q84 0 127.5 -27t43.5 -67q0 -32 -11 -62l-101 8q3 12 3 29q0 31 -45 31q-19 0 -30.5 -13.5t-11.5 -35.5q0 -51 12 -79h243z" />
    <glyph glyph-name="lessequal" unicode="&#x2264;" 
d="M593 331q0 -111 -79 -189.5t-190 -78.5t-190 78.5t-79 189.5t79 190t190 79t190 -79t79 -190zM535 330l-101 76l-52 128l-76 -93l-155 29l57 -106l-88 -110l190 -15l53 -111l55 118z" />
    <glyph glyph-name="greaterequal" unicode="&#x2265;" 
d="M593 331q0 -111 -79 -189.5t-190 -78.5t-190 78.5t-79 189.5t79 190t190 79t190 -79t79 -190zM535 330l-101 76l-52 128l-76 -93l-155 29l57 -106l-88 -110l190 -15l53 -111l55 118z" />
    <glyph glyph-name="lozenge" unicode="&#x25ca;" 
d="M593 331q0 -111 -79 -189.5t-190 -78.5t-190 78.5t-79 189.5t79 190t190 79t190 -79t79 -190zM535 330l-101 76l-52 128l-76 -93l-155 29l57 -106l-88 -110l190 -15l53 -111l55 118z" />
    <glyph glyph-name="apple" unicode="&#xf8ff;" 
d="M593 331q0 -111 -79 -189.5t-190 -78.5t-190 78.5t-79 189.5t79 190t190 79t190 -79t79 -190zM535 330l-101 76l-52 128l-76 -93l-155 29l57 -106l-88 -110l190 -15l53 -111l55 118z" />
    <glyph glyph-name="NUL" horiz-adv-x="0" 
 />
    </font>
</defs>
</svg>
