<?xml version="1.0" encoding="UTF-8" standalone="no"?>
<!-- Created with Inkscape (http://www.inkscape.org/) -->

<svg
   xmlns:dc="http://purl.org/dc/elements/1.1/"
   xmlns:cc="http://creativecommons.org/ns#"
   xmlns:rdf="http://www.w3.org/1999/02/22-rdf-syntax-ns#"
   xmlns:svg="http://www.w3.org/2000/svg"
   xmlns="http://www.w3.org/2000/svg"
   xmlns:sodipodi="http://sodipodi.sourceforge.net/DTD/sodipodi-0.dtd"
   xmlns:inkscape="http://www.inkscape.org/namespaces/inkscape"
   width="744.09448819"
   height="1052.3622047"
   id="svg2"
   version="1.1"
   inkscape:version="0.47pre4 r22446"
   sodipodi:docname="home_away.svg">
  <defs
     id="defs4">
    <inkscape:perspective
       sodipodi:type="inkscape:persp3d"
       inkscape:vp_x="0 : 526.18109 : 1"
       inkscape:vp_y="0 : 1000 : 0"
       inkscape:vp_z="744.09448 : 526.18109 : 1"
       inkscape:persp3d-origin="372.04724 : 350.78739 : 1"
       id="perspective10" />
  </defs>
  <sodipodi:namedview
     id="base"
     pagecolor="#ffffff"
     bordercolor="#666666"
     borderopacity="1.0"
     inkscape:pageopacity="0.0"
     inkscape:pageshadow="2"
     inkscape:zoom="0.98994949"
     inkscape:cx="219.03207"
     inkscape:cy="480.55458"
     inkscape:document-units="px"
     inkscape:current-layer="layer1"
     showgrid="false"
     inkscape:window-width="1024"
     inkscape:window-height="696"
     inkscape:window-x="0"
     inkscape:window-y="25"
     inkscape:window-maximized="1" />
  <metadata
     id="metadata7">
    <rdf:RDF>
      <cc:Work
         rdf:about="">
        <dc:format>image/svg+xml</dc:format>
        <dc:type
           rdf:resource="http://purl.org/dc/dcmitype/StillImage" />
        <dc:title></dc:title>
      </cc:Work>
    </rdf:RDF>
  </metadata>
  <g
     inkscape:label="Layer 1"
     inkscape:groupmode="layer"
     id="layer1">
    <path
       style="font-size:28px;font-style:normal;font-variant:normal;font-weight:normal;font-stretch:extra-condensed;text-align:start;line-height:125%;writing-mode:lr-tb;text-anchor:start;fill:#a7a6a6;fill-opacity:1;stroke:#000000;stroke-width:2;stroke-miterlimit:4;stroke-opacity:1;stroke-dasharray:none;font-family:BloodBowl;-inkscape-font-specification:BloodBowl Ultra-Condensed"
       d="m 209.4375,662.59375 6.25,2.9375 0,4.34375 3.21875,0 2.28125,9.59375 2.5,-9.59375 3.625,0 0,-3.4375 21.6875,0 0,3.4375 3.28125,0 2.28125,9.65625 2.53125,-9.65625 4.0625,0 0,-4.125 6.5625,-3.15625 -6.5625,-3.1875 0,-4.75 -12.15625,0 0,1.75 -7.59375,0 0.0312,-6.28125 7.5625,0 0,1.6875 12.15625,0 0,-4.71875 6.5625,-3.15625 -6.5625,-3.1875 0,-4.15625 -4.125,0 -2.4375,-9.875 -2.1875,9.875 -3.40625,0 0,3.5 -21.6875,0 0,-3.5 -3.4375,0 -2.4375,-9.625 -2.1875,9.625 -3.5625,0 0,4.375 -6.25,2.96875 6.25,2.9375 0,4.9375 11.625,0 0,-1.9375 7.28125,0 0,6.53125 -7.28125,0 0,-1.75 -11.625,0 0,4.96875 -6.25,2.96875 z m 0,-72.96875 6.0625,2.84375 0,8.53125 4.28125,5.5 6,0 2.15625,9.125 2.375,-9.125 15.34375,0 2.15625,9.15625 2.40625,-9.15625 6.40625,0 4.53125,-5 0,-8.71875 6.5625,-3.15625 -6.53125,-3.15625 0,-8.65625 -4.875,-4.84375 -6.15625,0 -2.34375,-9.40625 -2.125,9.40625 -15.4375,0 -2.3125,-9.34375 -2.09375,9.34375 -6,0 -4.34375,5.0625 0,8.71875 -6.0625,2.875 z m 0,-51.90625 6.46875,3.03125 0,3.78125 2.96875,0 2.3125,9.84375 2.5625,-9.84375 3.75,0 0,-2.84375 21.6875,0 0,2.84375 3.03125,0 2.34375,9.875 2.5625,-9.875 0.46875,0 0,0.25 0.53125,-0.25 3.21875,0 0,-1.5625 6.21875,-2.96875 -6.21875,-3.03125 0,-4.34375 -12.15625,0 0,2.875 -24.46875,0 36.625,-7.28125 0,-3.40625 -36.96875,-6.75 24.8125,0 0,2.5 12.15625,0 0,-5.625 6.40625,-3.03125 -6.40625,-3.03125 0,-1.96875 -4.125,0 -2.4375,-9.09375 -2.21875,9.09375 -3.375,0 0,2.9375 -21.6875,0 0,-2.9375 -3.71875,0 -2.40625,-9.03125 -2.1875,9.03125 -3.28125,0 0,4.3125 -6.28125,2.875 6.28125,2.90625 0,4.65625 20.78125,3.90625 -20.78125,3.875 0,5.21875 -6.46875,3.0625 z m 0,-75 6.25,2.9375 0,13.71875 3.25,0 2.25,9.59375 2.5,-9.59375 3.625,0 0,-3.875 21.6875,0 0,3.875 3.28125,0 2.28125,9.625 2.5,-9.625 4.09375,0 0,-13.5 6.5625,-3.15625 -6.5625,-3.1875 0,-13.21875 -4.0625,0 -2.5,-10.09375 -2.25,10.09375 -9.9375,0 0,10.09375 6.59375,0 0,7.84375 -8.84375,0 0,-9.78125 -4.6875,0 0,9.78125 -8.15625,0 0,-7.84375 6.5625,0 0,-10.59375 -10.0625,0.0312 -2.375,-9.40625 -2.125,9.40625 -3.625,0 0,13.90625 -6.25,2.96875 z M 227.5,592.9375 l 0.0312,-6.625 20.40625,0 -0.0625,6.625 -20.375,0 z"
       id="path2833"
       inkscape:export-filename="/home/danielh/public_html/obblm/bubble-v2/modules/pdfmatchreport/home.png"
       inkscape:export-xdpi="298.44537"
       inkscape:export-ydpi="298.44537" />
    <path
       style="font-size:28px;font-style:normal;font-variant:normal;font-weight:normal;font-stretch:extra-condensed;text-align:start;line-height:125%;writing-mode:lr-tb;text-anchor:start;fill:#a7a6a6;fill-opacity:1;stroke:#000000;stroke-width:2;stroke-miterlimit:4;stroke-opacity:1;stroke-dasharray:none;font-family:BloodBowl;-inkscape-font-specification:BloodBowl Ultra-Condensed"
       d="m 294.77468,597.51606 7.5625,3.71875 0,3.34375 3.34375,0 2.125,9.0625 2.34375,-9.0625 3.6875,0 0,-3.21875 17.9375,-3.59375 2.3125,9.75 2.75,-10.75 10.4375,-2.09375 0,-1.125 6.375,-3.0625 -6.375,-3.125 0,-1.0625 -18.6875,-3.5 18.6875,-3.15625 0,-1.21875 6.21875,-3.03125 -6.21875,-3.03125 0,-1.03125 -3.4375,-0.65625 -0.1875,-0.0937 0,0.0625 -6.8125,-1.3125 -2.59374,-10.375 -2.15626,9.46875 -18.25,-3.5 1e-5,-3.09375 -3.65625,0 -2.40625,-9.625 -2.1875,9.625 -3.25,0 0,1.96875 -7.56251,3.78125 7.5625,3.71875 0,2.3125 11.5,0 0,-2.28125 17.375,3.0625 -17.375,3.09375 0,-2.3125 -11.5,0 0,2.71875 -7.5625,3.78125 7.5625,3.71875 0,3.21875 11.5,0 0,-2.3125 17.90625,3.25 -17.90625,3.0625 0,-2.1875 -11.5,0 0,3.3125 -7.5625,3.78125 z m 1.0625,48.9375 5.96875,2.90625 0.15625,-5.78125 -6.125,2.875 z m 6.125,-2.875 0.0312,-0.0312 0,5.90625 -0.1875,-0.0937 0,0.1875 0.1875,0.0937 0,5.9375 9.78125,2.9375 2.6875,11.9375 2.59375,-10.34375 17.84375,5.34375 0,4.53125 3.5625,0 2.15625,9.5 2.375,-9.5 3.90625,0 0,-5.65625 7.0625,-3.40625 -7.0625,-3.4375 0,-7.5 -12,0 0,5.59375 -8,-2.40625 -0.0312,-12.8125 8.1875,-3.15625 -0.125,5.75 11.96875,-0.0312 0,-7.125 6.84375,-3.3125 -6.84375,-3.34375 0,-6.21875 -3.875,0 -2.375,-9.34375 -2.15625,9.34375 -3.59375,0 0,4.28125 -17.90625,5.5 -2.53125,-10.40625 -2.625,11.96875 -9.84375,3.03125 0,6 -0.0312,0 0,0.28125 z m -6.12499,-123.875 5.96875,2.90625 0.15625,-5.78125 -6.125,2.875 z m 6.125,-2.875 0.0312,-0.0312 0,5.90625 -0.1875,-0.0937 0,0.21875 0.1875,0.0937 0,5.9375 9.78125,2.9375 2.6875,11.90625 2.59375,-10.34375 17.84375,5.34375 0,4.53125 3.5625,0 2.15625,9.53125 2.37499,-9.53125 3.90625,0 0,-5.625 7.0625,-3.40625 -7.0625,-3.4375 0,-7.5 -11.99999,0 0,5.59375 -8,-2.40625 -0.0312,-12.8125 8.1875,-3.15625 -0.125,5.75 11.96874,-0.0625 0,-7.09375 6.84375,-3.3125 -6.84375,-3.34375 0,-6.21875 -3.84375,0 -2.40624,-9.34375 -2.15625,9.34375 -3.59375,0 0,4.28125 -17.90625,5.5 -2.53125,-10.40625 -2.625,11.96875 -9.84375,3.03125 0,5.96875 -0.0312,0 0,0.28125 z m -5.78125,-64.875 6.15625,3.0625 0,4.4375 11.5,0 0,-3.28125 7.71875,4.53125 -7.71875,3.84375 0,-2.78125 -11.5,0 0,5.875 -6,3 6,2.96875 0,4.25 3.21875,0 2.1875,9.375 2.4375,-9.375 3.65625,0 0,-2.75 13.5,-8.84375 7.90625,0 0,3.8125 3.1875,0 2.3125,9.84375 2.56249,-9.84375 3.96875,0 0,-5.75 6.34375,-3.0625 -6.34375,-3.09375 0,-5.53125 -3.8125,0 -2.68749,-10.8125 -2.4375,10.8125 -3.09375,0 0,3.53125 -7.90625,0 -13.5,-8.125 0,-3.15625 -3.6875,0 -2.375,-9.5625 -2.15625,9.5625 -3.28125,0 0,4 -6.15625,3.0625 z m 14.62499,194.6875 8.375,-3.40625 -0.0312,6.6875 -8.34375,-3.28125 z m 1e-5,-126.75 8.375,-3.375 -0.0312,6.6875 -8.34375,-3.3125 z"
       id="path2841"
       inkscape:export-filename="/home/danielh/public_html/obblm/bubble-v2/modules/pdfmatchreport/away.png"
       inkscape:export-xdpi="294.17999"
       inkscape:export-ydpi="294.17999" />
  </g>
</svg>
